<svg width="970" height="35" viewBox="0 0 970 35" fill="none" xmlns="http://www.w3.org/2000/svg"><path d="M315.509 18.943h-4.29L310.295 21h-.847l3.52-7.7h.803l3.52 7.7h-.858l-.924-2.057zm-.297-.66l-1.848-4.136-1.848 4.136h3.696zm6.004-3.113c.543 0 1.034.1247 1.474.374.44.242.785.5867 1.034 1.034.25.4473.374.957.374 1.529s-.124 1.0817-.374 1.529c-.249.4473-.594.7957-1.034 1.045-.44.2493-.931.374-1.474.374-.484 0-.92-.1027-1.309-.308-.381-.2053-.689-.5023-.924-.891V21h-.748v-8.162h.781v3.476c.242-.374.55-.6563.924-.847.382-.198.807-.297 1.276-.297zm-.055 5.192c.404 0 .77-.0917 1.1-.275.33-.1907.587-.4583.77-.803.191-.3447.286-.737.286-1.177 0-.44-.095-.8323-.286-1.177-.183-.3447-.44-.6087-.77-.792-.33-.1907-.696-.286-1.1-.286-.41 0-.781.0953-1.111.286-.322.1833-.579.4473-.77.792-.183.3447-.275.737-.275 1.177 0 .44.092.8323.275 1.177.191.3447.448.6123.77.803.33.1833.701.275 1.111.275zm6.729.693c-.557 0-1.059-.1247-1.507-.374-.447-.2567-.799-.6087-1.056-1.056-.256-.4473-.385-.9533-.385-1.518s.129-1.0707.385-1.518c.257-.4473.609-.7957 1.056-1.045.448-.2493.95-.374 1.507-.374.558 0 1.06.1247 1.507.374.448.2493.796.5977 1.045 1.045.257.4473.385.9533.385 1.518s-.128 1.0707-.385 1.518c-.249.4473-.597.7993-1.045 1.056-.447.2493-.949.374-1.507.374zm0-.693c.411 0 .778-.0917 1.1-.275.33-.1907.587-.4583.77-.803.184-.3447.275-.737.275-1.177 0-.44-.091-.8323-.275-1.177-.183-.3447-.44-.6087-.77-.792-.322-.1907-.689-.286-1.1-.286-.41 0-.781.0953-1.111.286-.322.1833-.579.4473-.77.792-.183.3447-.275.737-.275 1.177 0 .44.092.8323.275 1.177.191.3447.448.6123.77.803.33.1833.701.275 1.111.275zm9.581-5.148V21h-.748v-1.056c-.206.352-.488.627-.847.825-.36.1907-.77.286-1.232.286-.756 0-1.353-.209-1.793-.627-.433-.4253-.649-1.045-.649-1.859v-3.355h.781v3.278c0 .6087.15 1.0707.451 1.386.3.3153.729.473 1.287.473.608 0 1.089-.1833 1.441-.55.352-.374.528-.891.528-1.551v-3.036h.781zm5.069 5.434c-.147.132-.33.2347-.55.308-.213.066-.436.099-.671.099-.543 0-.961-.1467-1.254-.44-.293-.2933-.44-.7077-.44-1.243v-3.498h-1.034v-.66h1.034v-1.265h.781v1.265h1.76v.66h-1.76v3.454c0 .3447.084.6087.253.792.176.176.425.264.748.264.161 0 .315-.0257.462-.077.154-.0513.286-.1247.396-.22l.275.561zm45.475.418c-.763 0-1.452-.1687-2.068-.506-.609-.3373-1.089-.803-1.441-1.397-.345-.6013-.517-1.2723-.517-2.013 0-.7407.172-1.408.517-2.002.352-.6013.836-1.0707 1.452-1.408.616-.3373 1.305-.506 2.068-.506.572 0 1.1.0953 1.584.286.484.1907.894.4693 1.232.836l-.517.517c-.602-.6087-1.361-.913-2.277-.913-.609 0-1.163.1393-1.661.418-.499.2787-.891.66-1.177 1.144-.279.484-.418 1.0267-.418 1.628s.139 1.144.418 1.628c.286.484.678.8653 1.177 1.144.498.2787 1.052.418 1.661.418.924 0 1.683-.308 2.277-.924l.517.517c-.338.3667-.752.649-1.243.847-.484.1907-1.012.286-1.584.286zm6.339-.011c-.557 0-1.06-.1247-1.507-.374-.447-.2567-.799-.6087-1.056-1.056-.257-.4473-.385-.9533-.385-1.518s.128-1.0707.385-1.518c.257-.4473.609-.7957 1.056-1.045.447-.2493.95-.374 1.507-.374.557 0 1.06.1247 1.507.374.447.2493.796.5977 1.045 1.045.257.4473.385.9533.385 1.518s-.128 1.0707-.385 1.518c-.249.4473-.598.7993-1.045 1.056-.447.2493-.95.374-1.507.374zm0-.693c.411 0 .777-.0917 1.1-.275.33-.1907.587-.4583.77-.803.183-.3447.275-.737.275-1.177 0-.44-.092-.8323-.275-1.177-.183-.3447-.44-.6087-.77-.792-.323-.1907-.689-.286-1.1-.286-.411 0-.781.0953-1.111.286-.323.1833-.579.4473-.77.792-.183.3447-.275.737-.275 1.177 0 .44.092.8323.275 1.177.191.3447.447.6123.77.803.33.1833.7.275 1.111.275zm7.314-5.192c.726 0 1.302.2127 1.727.638.433.418.649 1.0303.649 1.837V21h-.781v-3.278c0-.6013-.15-1.0597-.451-1.375-.3-.3153-.729-.473-1.287-.473-.623 0-1.118.187-1.485.561-.359.3667-.539.8763-.539 1.529V21h-.781v-5.786h.748v1.067c.213-.352.506-.6233.88-.814.382-.198.822-.297 1.32-.297zm7.379 5.478c-.147.132-.33.2347-.55.308-.213.066-.437.099-.671.099-.543 0-.961-.1467-1.254-.44-.294-.2933-.44-.7077-.44-1.243v-3.498h-1.034v-.66h1.034v-1.265h.781v1.265h1.76v.66h-1.76v3.454c0 .3447.084.6087.253.792.176.176.425.264.748.264.161 0 .315-.0257.462-.077.154-.0513.286-.1247.396-.22l.275.561zm3.281-5.478c.755 0 1.334.1907 1.738.572.403.374.605.9313.605 1.672V21h-.748v-.902c-.176.3007-.437.5353-.781.704-.338.1687-.741.253-1.21.253-.646 0-1.159-.154-1.54-.462-.382-.308-.572-.715-.572-1.221 0-.4913.176-.8873.528-1.188.359-.3007.927-.451 1.705-.451h1.837v-.352c0-.4987-.14-.8763-.418-1.133-.279-.264-.686-.396-1.221-.396-.367 0-.719.0623-1.056.187-.338.1173-.627.2823-.869.495l-.352-.583c.293-.2493.645-.44 1.056-.572.41-.1393.843-.209 1.298-.209zm-.275 5.269c.44 0 .817-.099 1.133-.297.315-.2053.55-.4987.704-.88v-.946h-1.815c-.99 0-1.485.3447-1.485 1.034 0 .3373.128.605.385.803.256.1907.616.286 1.078.286zm6.993.616c-.572 0-1.085-.1247-1.54-.374-.447-.2493-.799-.5977-1.056-1.045-.256-.4547-.385-.9643-.385-1.529 0-.5647.129-1.0707.385-1.518.257-.4473.609-.7957 1.056-1.045.455-.2493.968-.374 1.54-.374.499 0 .943.099 1.331.297.396.1907.708.473.935.847l-.583.396c-.19-.286-.432-.4987-.726-.638-.293-.1467-.612-.22-.957-.22-.418 0-.795.0953-1.133.286-.33.1833-.59.4473-.781.792-.183.3447-.275.737-.275 1.177 0 .4473.092.8433.275 1.188.191.3373.451.6013.781.792.338.1833.715.275 1.133.275.345 0 .664-.0697.957-.209.294-.1393.536-.352.726-.638l.583.396c-.227.374-.539.66-.935.858-.396.1907-.839.286-1.331.286zm6.747-.407c-.147.132-.33.2347-.55.308-.213.066-.436.099-.671.099-.543 0-.961-.1467-1.254-.44-.293-.2933-.44-.7077-.44-1.243v-3.498h-1.034v-.66h1.034v-1.265h.781v1.265h1.76v.66h-1.76v3.454c0 .3447.084.6087.253.792.176.176.425.264.748.264.161 0 .315-.0257.462-.077.154-.0513.286-.1247.396-.22l.275.561zm45.012-7.348c.983 0 1.753.2347 2.31.704.558.4693.836 1.1147.836 1.936 0 .8213-.278 1.4667-.836 1.936-.557.462-1.327.693-2.31.693h-2.068V21h-.814v-7.7h2.882zm-.022 4.554c.763 0 1.346-.165 1.749-.495.404-.3373.605-.8103.605-1.419 0-.6233-.201-1.1-.605-1.43-.403-.3373-.986-.506-1.749-.506h-2.046v3.85h2.046zm6.569-2.684c.755 0 1.334.1907 1.738.572.403.374.605.9313.605 1.672V21h-.748v-.902c-.176.3007-.437.5353-.781.704-.338.1687-.741.253-1.21.253-.646 0-1.159-.154-1.54-.462-.382-.308-.572-.715-.572-1.221 0-.4913.176-.8873.528-1.188.359-.3007.927-.451 1.705-.451h1.837v-.352c0-.4987-.14-.8763-.418-1.133-.279-.264-.686-.396-1.221-.396-.367 0-.719.0623-1.056.187-.338.1173-.627.2823-.869.495l-.352-.583c.293-.2493.645-.44 1.056-.572.41-.1393.843-.209 1.298-.209zm-.275 5.269c.44 0 .817-.099 1.133-.297.315-.2053.55-.4987.704-.88v-.946h-1.815c-.99 0-1.485.3447-1.485 1.034 0 .3373.128.605.385.803.256.1907.616.286 1.078.286zm5.322-4.092c.183-.3887.455-.682.814-.88.367-.198.818-.297 1.353-.297v.759l-.187-.011c-.609 0-1.085.187-1.43.561-.345.374-.517.8983-.517 1.573V21h-.781v-5.786h.748v1.133zm8.4 2.002h-4.84c.044.6013.275 1.089.693 1.463.418.3667.946.55 1.584.55.36 0 .69-.0623.99-.187.301-.132.561-.3227.781-.572l.44.506c-.256.308-.579.5427-.968.704-.381.1613-.803.242-1.265.242-.594 0-1.122-.1247-1.584-.374-.454-.2567-.81-.6087-1.067-1.056-.256-.4473-.385-.9533-.385-1.518s.121-1.0707.363-1.518c.25-.4473.587-.7957 1.012-1.045.433-.2493.917-.374 1.452-.374.536 0 1.016.1247 1.441.374.426.2493.759.5977 1.001 1.045.242.44.363.946.363 1.518l-.011.242zm-2.794-2.508c-.557 0-1.026.1797-1.408.539-.374.352-.586.814-.638 1.386h4.103c-.051-.572-.267-1.034-.649-1.386-.374-.3593-.843-.539-1.408-.539zm7.178-.671c.726 0 1.302.2127 1.727.638.433.418.649 1.0303.649 1.837V21h-.781v-3.278c0-.6013-.15-1.0597-.451-1.375-.301-.3153-.73-.473-1.287-.473-.623 0-1.118.187-1.485.561-.359.3667-.539.8763-.539 1.529V21h-.781v-5.786h.748v1.067c.213-.352.506-.6233.88-.814.381-.198.821-.297 1.32-.297zm7.378 5.478c-.146.132-.33.2347-.55.308-.212.066-.436.099-.671.099-.542 0-.96-.1467-1.254-.44-.293-.2933-.44-.7077-.44-1.243v-3.498h-1.034v-.66h1.034v-1.265h.781v1.265h1.76v.66h-1.76v3.454c0 .3447.085.6087.253.792.176.176.426.264.748.264.162 0 .316-.0257.462-.077.154-.0513.286-.1247.396-.22l.275.561zm2.808.407c-.469 0-.92-.066-1.353-.198-.425-.1393-.759-.3117-1.001-.517l.352-.616c.242.1907.546.3483.913.473.367.1173.748.176 1.144.176.528 0 .917-.0807 1.166-.242.257-.1687.385-.4033.385-.704 0-.2127-.07-.3777-.209-.495-.139-.1247-.315-.2163-.528-.275-.213-.066-.495-.1283-.847-.187-.469-.088-.847-.176-1.133-.264-.286-.0953-.532-.253-.737-.473-.198-.22-.297-.5243-.297-.913 0-.484.202-.88.605-1.188.403-.308.964-.462 1.683-.462.374 0 .748.0513 1.122.154.374.0953.682.2237.924.385l-.341.627c-.477-.33-1.045-.495-1.705-.495-.499 0-.876.088-1.133.264-.249.176-.374.407-.374.693 0 .22.07.396.209.528.147.132.326.231.539.297.213.0587.506.121.88.187.462.088.832.176 1.111.264.279.088.517.2383.715.451.198.2127.297.506.297.88 0 .506-.213.9093-.638 1.21-.418.2933-1.001.44-1.749.44zm46.036-7.051h-2.706V13.3h6.226v.704h-2.706V21h-.814v-6.996zm8.926 4.345h-4.84c.044.6013.275 1.089.693 1.463.418.3667.946.55 1.584.55.36 0 .69-.0623.99-.187.301-.132.561-.3227.781-.572l.44.506c-.256.308-.579.5427-.968.704-.381.1613-.803.242-1.265.242-.594 0-1.122-.1247-1.584-.374-.454-.2567-.81-.6087-1.067-1.056-.256-.4473-.385-.9533-.385-1.518s.121-1.0707.363-1.518c.25-.4473.587-.7957 1.012-1.045.433-.2493.917-.374 1.452-.374.536 0 1.016.1247 1.441.374.426.2493.759.5977 1.001 1.045.242.44.363.946.363 1.518l-.011.242zm-2.794-2.508c-.557 0-1.026.1797-1.408.539-.374.352-.586.814-.638 1.386h4.103c-.051-.572-.267-1.034-.649-1.386-.374-.3593-.843-.539-1.408-.539zm4.978.506c.183-.3887.455-.682.814-.88.367-.198.818-.297 1.353-.297v.759l-.187-.011c-.609 0-1.085.187-1.43.561-.345.374-.517.8983-.517 1.573V21h-.781v-5.786h.748v1.133zm10.632-1.177c.726 0 1.294.209 1.705.627.418.418.627 1.034.627 1.848V21h-.781v-3.278c0-.6013-.147-1.0597-.44-1.375-.286-.3153-.693-.473-1.221-.473-.601 0-1.074.187-1.419.561-.345.3667-.517.8763-.517 1.529V21h-.781v-3.278c0-.6013-.147-1.0597-.44-1.375-.286-.3153-.697-.473-1.232-.473-.594 0-1.067.187-1.419.561-.345.3667-.517.8763-.517 1.529V21h-.781v-5.786h.748v1.056c.205-.352.491-.6233.858-.814.367-.1907.788-.286 1.265-.286.484 0 .902.1027 1.254.308.359.2053.627.5097.803.913.213-.3813.517-.6783.913-.891.403-.22.862-.33 1.375-.33zm5.836 5.885c-.469 0-.92-.066-1.353-.198-.425-.1393-.759-.3117-1.001-.517l.352-.616c.242.1907.546.3483.913.473.367.1173.748.176 1.144.176.528 0 .917-.0807 1.166-.242.257-.1687.385-.4033.385-.704 0-.2127-.07-.3777-.209-.495-.139-.1247-.315-.2163-.528-.275-.213-.066-.495-.1283-.847-.187-.469-.088-.847-.176-1.133-.264-.286-.0953-.532-.253-.737-.473-.198-.22-.297-.5243-.297-.913 0-.484.202-.88.605-1.188.403-.308.964-.462 1.683-.462.374 0 .748.0513 1.122.154.374.0953.682.2237.924.385l-.341.627c-.477-.33-1.045-.495-1.705-.495-.499 0-.876.088-1.133.264-.249.176-.374.407-.374.693 0 .22.07.396.209.528.147.132.326.231.539.297.213.0587.506.121.88.187.462.088.832.176 1.111.264.279.088.517.2383.715.451.198.2127.297.506.297.88 0 .506-.213.9093-.638 1.21-.418.2933-1.001.44-1.749.44zm47.422-7.755c.982 0 1.752.2347 2.31.704.557.4693.836 1.1147.836 1.936 0 .8213-.279 1.4667-.836 1.936-.558.462-1.328.693-2.31.693h-2.068V21h-.814v-7.7h2.882zm-.022 4.554c.762 0 1.345-.165 1.749-.495.403-.3373.605-.8103.605-1.419 0-.6233-.202-1.1-.605-1.43-.404-.3373-.987-.506-1.749-.506h-2.046v3.85h2.046zm5.195-1.507c.184-.3887.455-.682.814-.88.367-.198.818-.297 1.353-.297v.759l-.187-.011c-.608 0-1.085.187-1.43.561-.344.374-.517.8983-.517 1.573V21h-.781v-5.786h.748v1.133zm3.416-1.133h.781V21h-.781v-5.786zm.396-1.265c-.161 0-.297-.055-.407-.165-.11-.11-.165-.242-.165-.396 0-.1467.055-.275.165-.385.11-.11.246-.165.407-.165.162 0 .297.055.407.165.11.1027.165.2273.165.374 0 .1613-.055.297-.165.407-.11.11-.245.165-.407.165zm7.255 1.265L640.071 21h-.803l-2.563-5.786h.814l2.167 4.928 2.189-4.928h.77zm2.788-.044c.755 0 1.334.1907 1.738.572.403.374.605.9313.605 1.672V21h-.748v-.902c-.176.3007-.437.5353-.781.704-.338.1687-.741.253-1.21.253-.646 0-1.159-.154-1.54-.462-.382-.308-.572-.715-.572-1.221 0-.4913.176-.8873.528-1.188.359-.3007.927-.451 1.705-.451h1.837v-.352c0-.4987-.14-.8763-.418-1.133-.279-.264-.686-.396-1.221-.396-.367 0-.719.0623-1.056.187-.338.1173-.627.2823-.869.495l-.352-.583c.293-.2493.645-.44 1.056-.572.41-.1393.843-.209 1.298-.209zm-.275 5.269c.44 0 .817-.099 1.133-.297.315-.2053.55-.4987.704-.88v-.946h-1.815c-.99 0-1.485.3447-1.485 1.034 0 .3373.128.605.385.803.256.1907.616.286 1.078.286zm6.993.616c-.572 0-1.085-.1247-1.54-.374-.447-.2493-.799-.5977-1.056-1.045-.256-.4547-.385-.9643-.385-1.529 0-.5647.129-1.0707.385-1.518.257-.4473.609-.7957 1.056-1.045.455-.2493.968-.374 1.54-.374.499 0 .943.099 1.331.297.396.1907.708.473.935.847l-.583.396c-.19-.286-.432-.4987-.726-.638-.293-.1467-.612-.22-.957-.22-.418 0-.795.0953-1.133.286-.33.1833-.59.4473-.781.792-.183.3447-.275.737-.275 1.177 0 .4473.092.8433.275 1.188.191.3373.451.6013.781.792.338.1833.715.275 1.133.275.345 0 .664-.0697.957-.209.294-.1393.536-.352.726-.638l.583.396c-.227.374-.539.66-.935.858-.396.1907-.839.286-1.331.286zm8.412-5.841l-2.893 6.479c-.235.5427-.506.9277-.814 1.155-.308.2273-.679.341-1.111.341-.279 0-.539-.044-.781-.132-.242-.088-.451-.22-.627-.396l.363-.583c.293.2933.645.44 1.056.44.264 0 .487-.0733.671-.22.19-.1467.366-.396.528-.748l.253-.561-2.585-5.775h.814l2.178 4.917 2.178-4.917h.77z" fill="#fff"/></svg>