<svg width="192" height="52" viewBox="0 0 192 52" fill="none" xmlns="http://www.w3.org/2000/svg"><rect width="192" height="52" rx="26" fill="#33B8FF"/><path d="M67.0211 32.504c-.9406 0-1.853-.1246-2.737-.374-.8726-.2606-1.5753-.595-2.108-1.003l.935-2.074c.51.374 1.1164.6744 1.819.901.7027.2267 1.4054.34 2.108.34.782 0 1.36-.1133 1.734-.34.374-.238.561-.5496.561-.935 0-.2833-.1133-.5156-.34-.697-.2153-.1926-.4986-.3456-.85-.459-.34-.1133-.8046-.238-1.394-.374-.9066-.2153-1.649-.4306-2.227-.646-.578-.2153-1.0766-.561-1.496-1.037-.408-.476-.612-1.1106-.612-1.904 0-.6913.187-1.3146.561-1.87.374-.5666.935-1.0143 1.683-1.343.7594-.3286 1.683-.493 2.771-.493.7594 0 1.5017.0907 2.227.272.7254.1814 1.36.442 1.904.782l-.85 2.091c-1.0993-.6233-2.1986-.935-3.298-.935-.7706 0-1.343.1247-1.717.374-.3626.2494-.544.578-.544.986 0 .408.2097.714.629.918.4307.1927 1.0824.3854 1.955.578.9067.2154 1.649.4307 2.227.646.578.2154 1.071.5554 1.479 1.02.4194.4647.629 1.0937.629 1.887 0 .68-.1926 1.3034-.578 1.87-.374.5554-.9406.9974-1.7 1.326-.7593.3287-1.683.493-2.771.493zm6.4888-9.35h2.652V32.3h-2.652v-9.146zm1.326-1.275c-.4873 0-.884-.1416-1.19-.425-.306-.2833-.459-.6346-.459-1.054 0-.4193.153-.7706.459-1.054.306-.2833.7027-.425 1.19-.425.4874 0 .884.136 1.19.408.306.272.459.612.459 1.02 0 .442-.153.8104-.459 1.105-.306.2834-.7026.425-1.19.425zm12.9673 1.275v7.616c0 1.6774-.4363 2.924-1.309 3.74-.8726.816-2.1476 1.224-3.825 1.224-.884 0-1.7226-.1076-2.516-.323-.7933-.2153-1.4506-.527-1.972-.935l1.054-1.904c.3854.3174.8727.5667 1.462.748.5894.1927 1.1787.289 1.768.289.918 0 1.5924-.2096 2.023-.629.442-.408.663-1.0313.663-1.87v-.391c-.6913.7594-1.6546 1.139-2.89 1.139-.8386 0-1.6093-.1813-2.312-.544-.6913-.374-1.241-.8953-1.649-1.564-.408-.6686-.612-1.4393-.612-2.312 0-.8726.204-1.6433.612-2.312.408-.6686.9577-1.1843 1.649-1.547.7027-.374 1.4734-.561 2.312-.561 1.326 0 2.3347.4364 3.026 1.309v-1.173h2.516zm-5.015 6.528c.7027 0 1.275-.204 1.717-.612.4534-.4193.68-.9633.68-1.632 0-.6686-.2266-1.207-.68-1.615-.442-.4193-1.0143-.629-1.717-.629-.7026 0-1.2806.2097-1.734.629-.4533.408-.68.9464-.68 1.615 0 .6687.2267 1.2127.68 1.632.4534.408 1.0314.612 1.734.612zm12.7873-6.664c1.1334 0 2.0457.34 2.737 1.02.7027.68 1.054 1.6887 1.054 3.026V32.3h-2.652v-4.828c0-.7253-.1586-1.2636-.476-1.615-.3173-.3626-.7763-.544-1.377-.544-.6686 0-1.2013.2097-1.598.629-.3966.408-.595 1.02-.595 1.836V32.3h-2.652v-9.146h2.533v1.071c.3514-.3853.7877-.68 1.309-.884.5214-.2153 1.0937-.323 1.717-.323zm15.9735 9.486c-1.7 0-3.026-.4703-3.978-1.411-.941-.9406-1.411-2.2836-1.411-4.029V20.4h2.754v6.562c0 2.1307.884 3.196 2.652 3.196.861 0 1.519-.255 1.972-.765.453-.5213.68-1.3316.68-2.431V20.4h2.72v6.664c0 1.7454-.476 3.0884-1.428 4.029-.941.9407-2.261 1.411-3.961 1.411zm13.074-9.486c.85 0 1.621.1984 2.312.595.703.3854 1.253.935 1.649 1.649.397.7027.595 1.5244.595 2.465 0 .9407-.198 1.768-.595 2.482-.396.7027-.946 1.2524-1.649 1.649-.691.3854-1.462.578-2.312.578-1.167 0-2.085-.3683-2.754-1.105v4.267h-2.652V23.154h2.533v1.054c.658-.7933 1.615-1.19 2.873-1.19zm-.459 7.242c.68 0 1.236-.2266 1.666-.68.442-.4646.663-1.0823.663-1.853 0-.7706-.221-1.3826-.663-1.836-.43-.4646-.986-.697-1.666-.697-.68 0-1.241.2324-1.683.697-.43.4534-.646 1.0654-.646 1.836 0 .7707.216 1.3884.646 1.853.442.4534 1.003.68 1.683.68z" fill="#F2F2F2"/></svg>