<svg width="255" height="73" viewBox="0 0 255 73" fill="none" xmlns="http://www.w3.org/2000/svg"><rect y="4" width="255" height="69" rx="34.5" fill="#000" fill-opacity=".3"/><rect x=".5" y=".5" width="254" height="68" rx="34" fill="#00CC6D" stroke="#00CC6D"/><path d="M61.5675 34.3599h3.256v6.248c-.836.6307-1.804 1.1147-2.904 1.452-1.1.3373-2.2073.506-3.322.506-1.5987 0-3.036-.3373-4.312-1.012-1.276-.6893-2.2807-1.6353-3.014-2.838-.7187-1.2173-1.078-2.5887-1.078-4.114s.3593-2.8893 1.078-4.092c.7333-1.2173 1.7453-2.1633 3.036-2.838 1.2907-.6893 2.7427-1.034 4.356-1.034 1.3493 0 2.574.2273 3.674.682 1.1.4547 2.024 1.1147 2.772 1.98l-2.288 2.112c-1.1-1.1587-2.4273-1.738-3.982-1.738-.9827 0-1.8553.2053-2.618.616-.7627.4107-1.3567.99-1.782 1.738s-.638 1.606-.638 2.574c0 .9533.2127 1.804.638 2.552s1.012 1.3347 1.76 1.76c.7627.4107 1.628.616 2.596.616 1.0267 0 1.9507-.22 2.772-.66v-4.51zm18.1607 5.082v2.86h-11.924v-15.4h11.638v2.86h-8.096v3.344h7.15v2.772h-7.15v3.564h8.382zm5.6957-9.636h-4.928v-2.904h13.42v2.904h-4.928v12.496h-3.564v-12.496zm21.0401 12.76c-1.217 0-2.398-.1613-3.542-.484-1.129-.3373-2.039-.77-2.728-1.298l1.21-2.684c.66.484 1.445.8727 2.354 1.166.909.2933 1.819.44 2.728.44 1.012 0 1.76-.1467 2.244-.44.484-.308.726-.7113.726-1.21 0-.3667-.147-.6673-.44-.902-.279-.2493-.645-.4473-1.1-.594-.44-.1467-1.041-.308-1.804-.484-1.173-.2787-2.134-.5573-2.882-.836-.748-.2787-1.393-.726-1.936-1.342-.528-.616-.792-1.4373-.792-2.464 0-.8947.242-1.7013.726-2.42.484-.7333 1.21-1.3127 2.178-1.738.983-.4253 2.178-.638 3.586-.638.983 0 1.943.1173 2.882.352.939.2347 1.76.572 2.464 1.012l-1.1 2.706c-1.423-.8067-2.845-1.21-4.268-1.21-.997 0-1.738.1613-2.222.484-.469.3227-.704.748-.704 1.276s.271.924.814 1.188c.557.2493 1.401.4987 2.53.748 1.173.2787 2.134.5573 2.882.836.748.2787 1.386.7187 1.914 1.32.543.6013.814 1.4153.814 2.442 0 .88-.249 1.6867-.748 2.42-.484.7187-1.217 1.2907-2.2 1.716-.983.4253-2.178.638-3.586.638zm11.614-12.76h-4.928v-2.904h13.42v2.904h-4.928v12.496h-3.564v-12.496zm19.449 9.196h-7.15l-1.364 3.3h-3.652l6.864-15.4h3.52l6.886 15.4h-3.74l-1.364-3.3zm-1.122-2.706l-2.442-5.896-2.442 5.896h4.884zm17.305 6.006l-2.97-4.29h-3.278v4.29h-3.564v-15.4h6.666c1.364 0 2.545.2273 3.542.682 1.012.4547 1.79 1.1 2.332 1.936.543.836.814 1.826.814 2.97 0 1.144-.278 2.134-.836 2.97-.542.8213-1.32 1.452-2.332 1.892l3.454 4.95h-3.828zm-.066-9.812c0-.8653-.278-1.5253-.836-1.98-.557-.4693-1.371-.704-2.442-.704h-2.904v5.368h2.904c1.071 0 1.885-.2347 2.442-.704.558-.4693.836-1.1293.836-1.98zm9.077-2.684h-4.928v-2.904h13.42v2.904h-4.928v12.496h-3.564v-12.496zm22.004 9.636v2.86h-11.924v-15.4h11.638v2.86h-8.096v3.344h7.15v2.772h-7.15v3.564h8.382zm2.506-12.54h6.996c1.672 0 3.146.3227 4.422.968 1.29.6307 2.288 1.5253 2.992 2.684.718 1.1587 1.078 2.508 1.078 4.048s-.36 2.8893-1.078 4.048c-.704 1.1587-1.702 2.0607-2.992 2.706-1.276.6307-2.75.946-4.422.946h-6.996v-15.4zm6.82 12.474c1.54 0 2.764-.4253 3.674-1.276.924-.8653 1.386-2.0313 1.386-3.498 0-1.4667-.462-2.6253-1.386-3.476-.91-.8653-2.134-1.298-3.674-1.298h-3.256v9.548h3.256z" fill="#F2F2F2"/></svg>