<svg width="679" height="74" viewBox="0 0 679 74" fill="none" xmlns="http://www.w3.org/2000/svg"><path d="M44.634 24.8V50h-5.832V39.668H27.354V50h-5.832V24.8h5.832v9.936h11.448V24.8h5.832zm23.9982 15.588c0 .072-.036.576-.108 1.512h-14.652c.264 1.2.888 2.148 1.872 2.844.984.696 2.208 1.044 3.672 1.044 1.008 0 1.896-.144 2.664-.432.792-.312 1.524-.792 2.196-1.44l2.988 3.24c-1.824 2.088-4.488 3.132-7.992 3.132-2.184 0-4.116-.42-5.796-1.26-1.68-.864-2.976-2.052-3.888-3.564-.912-1.512-1.368-3.228-1.368-5.148 0-1.896.444-3.6 1.332-5.112.912-1.536 2.148-2.724 3.708-3.564 1.584-.864 3.348-1.296 5.292-1.296 1.896 0 3.612.408 5.148 1.224 1.536.816 2.736 1.992 3.6 3.528.888 1.512 1.332 3.276 1.332 5.292zm-10.044-5.796c-1.272 0-2.34.36-3.204 1.08-.864.72-1.392 1.704-1.584 2.952h9.54c-.192-1.224-.72-2.196-1.584-2.916-.864-.744-1.92-1.116-3.168-1.116zm13.243-11.304h5.616V50h-5.616V23.288zm21.7361 7.056c1.8 0 3.432.42 4.896 1.26 1.488.816 2.6517 1.98 3.4917 3.492.84 1.488 1.26 3.228 1.26 5.22 0 1.992-.42 3.744-1.26 5.256-.84 1.488-2.0037 2.652-3.4917 3.492-1.464.816-3.096 1.224-4.896 1.224-2.472 0-4.416-.78-5.832-2.34v9.036h-5.616V30.632h5.364v2.232c1.392-1.68 3.42-2.52 6.084-2.52zm-.972 15.336c1.44 0 2.616-.48 3.528-1.44.936-.984 1.404-2.292 1.404-3.924 0-1.632-.468-2.928-1.404-3.888-.912-.984-2.088-1.476-3.528-1.476s-2.628.492-3.564 1.476c-.912.96-1.368 2.256-1.368 3.888 0 1.632.456 2.94 1.368 3.924.936.96 2.124 1.44 3.564 1.44zm13.8397-15.048h5.616V50h-5.616V30.632zm2.808-2.7c-1.032 0-1.872-.3-2.52-.9-.648-.6-.972-1.344-.972-2.232 0-.888.324-1.632.972-2.232.648-.6 1.488-.9 2.52-.9s1.872.288 2.52.864c.648.576.972 1.296.972 2.16 0 .936-.324 1.716-.972 2.34-.648.6-1.488.9-2.52.9zm19.252 2.412c2.4 0 4.332.72 5.796 2.16 1.488 1.44 2.232 3.576 2.232 6.408V50h-5.616V39.776c0-1.536-.336-2.676-1.008-3.42-.672-.768-1.644-1.152-2.916-1.152-1.416 0-2.544.444-3.384 1.332-.84.864-1.26 2.16-1.26 3.888V50h-5.616V30.632h5.364V32.9c.744-.816 1.668-1.44 2.772-1.872 1.104-.456 2.316-.684 3.636-.684zm32.769.288V46.76c0 3.552-.924 6.192-2.772 7.92-1.848 1.728-4.548 2.592-8.1 2.592-1.872 0-3.648-.228-5.328-.684-1.68-.456-3.072-1.116-4.176-1.98l2.232-4.032c.816.672 1.848 1.2 3.096 1.584 1.248.408 2.496.612 3.744.612 1.944 0 3.372-.444 4.284-1.332.936-.864 1.404-2.184 1.404-3.96v-.828c-1.464 1.608-3.504 2.412-6.12 2.412-1.776 0-3.408-.384-4.896-1.152-1.464-.792-2.628-1.896-3.492-3.312-.864-1.416-1.296-3.048-1.296-4.896 0-1.848.432-3.48 1.296-4.896.864-1.416 2.028-2.508 3.492-3.276 1.488-.792 3.12-1.188 4.896-1.188 2.808 0 4.944.924 6.408 2.772v-2.484h5.328zm-10.62 13.824c1.488 0 2.7-.432 3.636-1.296.96-.888 1.44-2.04 1.44-3.456s-.48-2.556-1.44-3.42c-.936-.888-2.148-1.332-3.636-1.332s-2.712.444-3.672 1.332c-.96.864-1.44 2.004-1.44 3.42s.48 2.568 1.44 3.456c.96.864 2.184 1.296 3.672 1.296zm24.963-21.168h5.616V50h-5.616V23.288zm10.288 7.344h5.616V50h-5.616V30.632zm2.808-2.7c-1.032 0-1.872-.3-2.52-.9-.648-.6-.972-1.344-.972-2.232 0-.888.324-1.632.972-2.232.648-.6 1.488-.9 2.52-.9s1.872.288 2.52.864c.648.576.972 1.296.972 2.16 0 .936-.324 1.716-.972 2.34-.648.6-1.488.9-2.52.9zm19.972 21.132c-.552.408-1.236.72-2.052.936-.792.192-1.632.288-2.52.288-2.304 0-4.092-.588-5.364-1.764-1.248-1.176-1.872-2.904-1.872-5.184v-7.956h-2.988v-4.32h2.988v-4.716h5.616v4.716h4.824v4.32h-4.824v7.884c0 .816.204 1.452.612 1.908.432.432 1.032.648 1.8.648.888 0 1.644-.24 2.268-.72l1.512 3.96zm14.683 0c-.552.408-1.236.72-2.052.936-.792.192-1.632.288-2.52.288-2.304 0-4.092-.588-5.364-1.764-1.248-1.176-1.872-2.904-1.872-5.184v-7.956h-2.988v-4.32h2.988v-4.716h5.616v4.716h4.824v4.32h-4.824v7.884c0 .816.204 1.452.612 1.908.432.432 1.032.648 1.8.648.888 0 1.644-.24 2.268-.72l1.512 3.96zm2.612-25.776h5.616V50h-5.616V23.288zm29.26 17.1c0 .072-.036.576-.108 1.512H240.47c.264 1.2.888 2.148 1.872 2.844.984.696 2.208 1.044 3.672 1.044 1.008 0 1.896-.144 2.664-.432.792-.312 1.524-.792 2.196-1.44l2.988 3.24c-1.824 2.088-4.488 3.132-7.992 3.132-2.184 0-4.116-.42-5.796-1.26-1.68-.864-2.976-2.052-3.888-3.564-.912-1.512-1.368-3.228-1.368-5.148 0-1.896.444-3.6 1.332-5.112.912-1.536 2.148-2.724 3.708-3.564 1.584-.864 3.348-1.296 5.292-1.296 1.896 0 3.612.408 5.148 1.224 1.536.816 2.736 1.992 3.6 3.528.888 1.512 1.332 3.276 1.332 5.292zm-10.044-5.796c-1.272 0-2.34.36-3.204 1.08-.864.72-1.392 1.704-1.584 2.952h9.54c-.192-1.224-.72-2.196-1.584-2.916-.864-.744-1.92-1.116-3.168-1.116zm32.115 15.696c-2.04 0-3.876-.42-5.508-1.26-1.608-.864-2.868-2.052-3.78-3.564-.912-1.512-1.368-3.228-1.368-5.148 0-1.92.456-3.636 1.368-5.148.912-1.512 2.172-2.688 3.78-3.528 1.632-.864 3.468-1.296 5.508-1.296s3.864.432 5.472 1.296c1.608.84 2.868 2.016 3.78 3.528.912 1.512 1.368 3.228 1.368 5.148 0 1.92-.456 3.636-1.368 5.148-.912 1.512-2.172 2.7-3.78 3.564-1.608.84-3.432 1.26-5.472 1.26zm0-4.608c1.44 0 2.616-.48 3.528-1.44.936-.984 1.404-2.292 1.404-3.924 0-1.632-.468-2.928-1.404-3.888-.912-.984-2.088-1.476-3.528-1.476s-2.628.492-3.564 1.476c-.936.96-1.404 2.256-1.404 3.888 0 1.632.468 2.94 1.404 3.924.936.96 2.124 1.44 3.564 1.44zm25.605-15.336c2.4 0 4.332.72 5.796 2.16 1.488 1.44 2.232 3.576 2.232 6.408V50h-5.616V39.776c0-1.536-.336-2.676-1.008-3.42-.672-.768-1.644-1.152-2.916-1.152-1.416 0-2.544.444-3.384 1.332-.84.864-1.26 2.16-1.26 3.888V50h-5.616V30.632h5.364V32.9c.744-.816 1.668-1.44 2.772-1.872 1.104-.456 2.316-.684 3.636-.684zm31.762 10.044c0 .072-.036.576-.108 1.512h-14.652c.264 1.2.888 2.148 1.872 2.844.984.696 2.208 1.044 3.672 1.044 1.008 0 1.896-.144 2.664-.432.792-.312 1.524-.792 2.196-1.44l2.988 3.24c-1.824 2.088-4.488 3.132-7.992 3.132-2.184 0-4.116-.42-5.796-1.26-1.68-.864-2.976-2.052-3.888-3.564-.912-1.512-1.368-3.228-1.368-5.148 0-1.896.444-3.6 1.332-5.112.912-1.536 2.148-2.724 3.708-3.564 1.584-.864 3.348-1.296 5.292-1.296 1.896 0 3.612.408 5.148 1.224 1.536.816 2.736 1.992 3.6 3.528.888 1.512 1.332 3.276 1.332 5.292zm-10.044-5.796c-1.272 0-2.34.36-3.204 1.08-.864.72-1.392 1.704-1.584 2.952h9.54c-.192-1.224-.72-2.196-1.584-2.916-.864-.744-1.92-1.116-3.168-1.116zm19.759 15.696c-1.608 0-3.18-.192-4.716-.576-1.536-.408-2.76-.912-3.672-1.512l1.872-4.032c.864.552 1.908 1.008 3.132 1.368 1.224.336 2.424.504 3.6.504 2.376 0 3.564-.588 3.564-1.764 0-.552-.324-.948-.972-1.188-.648-.24-1.644-.444-2.988-.612-1.584-.24-2.892-.516-3.924-.828-1.032-.312-1.932-.864-2.7-1.656-.744-.792-1.116-1.92-1.116-3.384 0-1.224.348-2.304 1.044-3.24.72-.96 1.752-1.704 3.096-2.232 1.368-.528 2.976-.792 4.824-.792 1.368 0 2.724.156 4.068.468 1.368.288 2.496.696 3.384 1.224l-1.872 3.996c-1.704-.96-3.564-1.44-5.58-1.44-1.2 0-2.1.168-2.7.504-.6.336-.9.768-.9 1.296 0 .6.324 1.02.972 1.26.648.24 1.68.468 3.096.684 1.584.264 2.88.552 3.888.864 1.008.288 1.884.828 2.628 1.62.744.792 1.116 1.896 1.116 3.312 0 1.2-.36 2.268-1.08 3.204-.72.936-1.776 1.668-3.168 2.196-1.368.504-3 .756-4.896.756zm41.704-19.656V46.76c0 3.552-.924 6.192-2.772 7.92-1.848 1.728-4.548 2.592-8.1 2.592-1.872 0-3.648-.228-5.328-.684-1.68-.456-3.072-1.116-4.176-1.98l2.232-4.032c.816.672 1.848 1.2 3.096 1.584 1.248.408 2.496.612 3.744.612 1.944 0 3.372-.444 4.284-1.332.936-.864 1.404-2.184 1.404-3.96v-.828c-1.464 1.608-3.504 2.412-6.12 2.412-1.776 0-3.408-.384-4.896-1.152-1.464-.792-2.628-1.896-3.492-3.312-.864-1.416-1.296-3.048-1.296-4.896 0-1.848.432-3.48 1.296-4.896.864-1.416 2.028-2.508 3.492-3.276 1.488-.792 3.12-1.188 4.896-1.188 2.808 0 4.944.924 6.408 2.772v-2.484h5.328zm-10.62 13.824c1.488 0 2.7-.432 3.636-1.296.96-.888 1.44-2.04 1.44-3.456s-.48-2.556-1.44-3.42c-.936-.888-2.148-1.332-3.636-1.332s-2.712.444-3.672 1.332c-.96.864-1.44 2.004-1.44 3.42s.48 2.568 1.44 3.456c.96.864 2.184 1.296 3.672 1.296zm20.671-11.268c.672-.936 1.572-1.644 2.7-2.124 1.152-.48 2.472-.72 3.96-.72v5.184c-.624-.048-1.044-.072-1.26-.072-1.608 0-2.868.456-3.78 1.368-.912.888-1.368 2.232-1.368 4.032V50h-5.616V30.632h5.364v2.556zm18.5 17.1c-2.04 0-3.876-.42-5.508-1.26-1.608-.864-2.868-2.052-3.78-3.564-.912-1.512-1.368-3.228-1.368-5.148 0-1.92.456-3.636 1.368-5.148.912-1.512 2.172-2.688 3.78-3.528 1.632-.864 3.468-1.296 5.508-1.296s3.864.432 5.472 1.296c1.608.84 2.868 2.016 3.78 3.528.912 1.512 1.368 3.228 1.368 5.148 0 1.92-.456 3.636-1.368 5.148-.912 1.512-2.172 2.7-3.78 3.564-1.608.84-3.432 1.26-5.472 1.26zm0-4.608c1.44 0 2.616-.48 3.528-1.44.936-.984 1.404-2.292 1.404-3.924 0-1.632-.468-2.928-1.404-3.888-.912-.984-2.088-1.476-3.528-1.476s-2.628.492-3.564 1.476c-.936.96-1.404 2.256-1.404 3.888 0 1.632.468 2.94 1.404 3.924.936.96 2.124 1.44 3.564 1.44zm44.41-15.048L452.028 50h-5.4l-4.356-12.024-4.5 12.024h-5.4l-6.984-19.368h5.292l4.572 13.104 4.752-13.104h4.752l4.608 13.104 4.716-13.104h4.968zm23.174-.288c1.8 0 3.432.42 4.896 1.26 1.488.816 2.652 1.98 3.492 3.492.84 1.488 1.26 3.228 1.26 5.22 0 1.992-.42 3.744-1.26 5.256-.84 1.488-2.004 2.652-3.492 3.492-1.464.816-3.096 1.224-4.896 1.224-2.664 0-4.692-.84-6.084-2.52V50h-5.364V23.288h5.616v9.396c1.416-1.56 3.36-2.34 5.832-2.34zm-.972 15.336c1.44 0 2.616-.48 3.528-1.44.936-.984 1.404-2.292 1.404-3.924 0-1.632-.468-2.928-1.404-3.888-.912-.984-2.088-1.476-3.528-1.476s-2.628.492-3.564 1.476c-.912.96-1.368 2.256-1.368 3.888 0 1.632.456 2.94 1.368 3.924.936.96 2.124 1.44 3.564 1.44zm13.84-15.048h5.616V50h-5.616V30.632zm2.808-2.7c-1.032 0-1.872-.3-2.52-.9-.648-.6-.972-1.344-.972-2.232 0-.888.324-1.632.972-2.232.648-.6 1.488-.9 2.52-.9s1.872.288 2.52.864c.648.576.972 1.296.972 2.16 0 .936-.324 1.716-.972 2.34-.648.6-1.488.9-2.52.9zm27.46 2.7V46.76c0 3.552-.924 6.192-2.772 7.92-1.848 1.728-4.548 2.592-8.1 2.592-1.872 0-3.648-.228-5.328-.684-1.68-.456-3.072-1.116-4.176-1.98l2.232-4.032c.816.672 1.848 1.2 3.096 1.584 1.248.408 2.496.612 3.744.612 1.944 0 3.372-.444 4.284-1.332.936-.864 1.404-2.184 1.404-3.96v-.828c-1.464 1.608-3.504 2.412-6.12 2.412-1.776 0-3.408-.384-4.896-1.152-1.464-.792-2.628-1.896-3.492-3.312-.864-1.416-1.296-3.048-1.296-4.896 0-1.848.432-3.48 1.296-4.896.864-1.416 2.028-2.508 3.492-3.276 1.488-.792 3.12-1.188 4.896-1.188 2.808 0 4.944.924 6.408 2.772v-2.484h5.328zm-10.62 13.824c1.488 0 2.7-.432 3.636-1.296.96-.888 1.44-2.04 1.44-3.456s-.48-2.556-1.44-3.42c-.936-.888-2.148-1.332-3.636-1.332s-2.712.444-3.672 1.332c-.96.864-1.44 2.004-1.44 3.42s.48 2.568 1.44 3.456c.96.864 2.184 1.296 3.672 1.296zm36.41-14.112c1.8 0 3.432.42 4.896 1.26 1.488.816 2.652 1.98 3.492 3.492.84 1.488 1.26 3.228 1.26 5.22 0 1.992-.42 3.744-1.26 5.256-.84 1.488-2.004 2.652-3.492 3.492-1.464.816-3.096 1.224-4.896 1.224-2.664 0-4.692-.84-6.084-2.52V50H539.7V23.288h5.616v9.396c1.416-1.56 3.36-2.34 5.832-2.34zm-.972 15.336c1.44 0 2.616-.48 3.528-1.44.936-.984 1.404-2.292 1.404-3.924 0-1.632-.468-2.928-1.404-3.888-.912-.984-2.088-1.476-3.528-1.476s-2.628.492-3.564 1.476c-.912.96-1.368 2.256-1.368 3.888 0 1.632.456 2.94 1.368 3.924.936.96 2.124 1.44 3.564 1.44zm19.204-12.492c.672-.936 1.572-1.644 2.7-2.124 1.152-.48 2.472-.72 3.96-.72v5.184c-.624-.048-1.044-.072-1.26-.072-1.608 0-2.868.456-3.78 1.368-.912.888-1.368 2.232-1.368 4.032V50h-5.616V30.632h5.364v2.556zm17.166-2.844c3 0 5.304.72 6.912 2.16 1.608 1.416 2.412 3.564 2.412 6.444V50h-5.256v-2.412c-1.056 1.8-3.024 2.7-5.904 2.7-1.488 0-2.784-.252-3.888-.756-1.08-.504-1.908-1.2-2.484-2.088-.576-.888-.864-1.896-.864-3.024 0-1.8.672-3.216 2.016-4.248 1.368-1.032 3.468-1.548 6.3-1.548h4.464c0-1.224-.372-2.16-1.116-2.808-.744-.672-1.86-1.008-3.348-1.008-1.032 0-2.052.168-3.06.504-.984.312-1.824.744-2.52 1.296l-2.016-3.924c1.056-.744 2.316-1.32 3.78-1.728 1.488-.408 3.012-.612 4.572-.612zm-.432 16.164c.96 0 1.812-.216 2.556-.648.744-.456 1.272-1.116 1.584-1.98V41.9h-3.852c-2.304 0-3.456.756-3.456 2.268 0 .72.276 1.296.828 1.728.576.408 1.356.612 2.34.612zm14.298-15.876h5.616V50h-5.616V30.632zm2.808-2.7c-1.032 0-1.872-.3-2.52-.9-.648-.6-.972-1.344-.972-2.232 0-.888.324-1.632.972-2.232.648-.6 1.488-.9 2.52-.9s1.872.288 2.52.864c.648.576.972 1.296.972 2.16 0 .936-.324 1.716-.972 2.34-.648.6-1.488.9-2.52.9zm19.253 2.412c2.4 0 4.332.72 5.796 2.16 1.488 1.44 2.232 3.576 2.232 6.408V50h-5.616V39.776c0-1.536-.336-2.676-1.008-3.42-.672-.768-1.644-1.152-2.916-1.152-1.416 0-2.544.444-3.384 1.332-.84.864-1.26 2.16-1.26 3.888V50h-5.616V30.632h5.364V32.9c.744-.816 1.668-1.44 2.772-1.872 1.104-.456 2.316-.684 3.636-.684zm19.094 19.944c-1.608 0-3.18-.192-4.716-.576-1.536-.408-2.76-.912-3.672-1.512l1.872-4.032c.864.552 1.908 1.008 3.132 1.368 1.224.336 2.424.504 3.6.504 2.376 0 3.564-.588 3.564-1.764 0-.552-.324-.948-.972-1.188-.648-.24-1.644-.444-2.988-.612-1.584-.24-2.892-.516-3.924-.828-1.032-.312-1.932-.864-2.7-1.656-.744-.792-1.116-1.92-1.116-3.384 0-1.224.348-2.304 1.044-3.24.72-.96 1.752-1.704 3.096-2.232 1.368-.528 2.976-.792 4.824-.792 1.368 0 2.724.156 4.068.468 1.368.288 2.496.696 3.384 1.224l-1.872 3.996c-1.704-.96-3.564-1.44-5.58-1.44-1.2 0-2.1.168-2.7.504-.6.336-.9.768-.9 1.296 0 .6.324 1.02.972 1.26.648.24 1.68.468 3.096.684 1.584.264 2.88.552 3.888.864 1.008.288 1.884.828 2.628 1.62.744.792 1.116 1.896 1.116 3.312 0 1.2-.36 2.268-1.08 3.204-.72.936-1.776 1.668-3.168 2.196-1.368.504-3 .756-4.896.756zm14.193 0c-.984 0-1.812-.336-2.484-1.008-.672-.672-1.008-1.512-1.008-2.52 0-1.032.336-1.86 1.008-2.484.672-.648 1.5-.972 2.484-.972s1.812.324 2.484.972c.672.624 1.008 1.452 1.008 2.484 0 1.008-.336 1.848-1.008 2.52-.672.672-1.5 1.008-2.484 1.008z" fill="#fff"/></svg>