<svg width="52" height="23" viewBox="0 0 52 23" fill="none" xmlns="http://www.w3.org/2000/svg"><path d="M1.50861 4.70005h2.916V14.924h6.31799V17.3H1.50861V4.70005zM16.4416 17.444c-1.02 0-1.938-.21-2.754-.63-.804-.432-1.434-1.026-1.89-1.782-.456-.756-.684-1.614-.684-2.574 0-.96.228-1.818.684-2.57395.456-.756 1.086-1.344 1.89-1.764.816-.432 1.734-.648 2.754-.648s1.932.216 2.736.648c.804.42 1.434 1.008 1.89 1.764.456.75595.684 1.61395.684 2.57395s-.228 1.818-.684 2.574c-.456.756-1.086 1.35-1.89 1.782-.804.42-1.716.63-2.736.63zm0-2.304c.72 0 1.308-.24 1.764-.72.468-.492.702-1.146.702-1.962 0-.816-.234-1.464-.702-1.944-.456-.492-1.044-.73795-1.764-.73795s-1.314.24595-1.782.73795c-.468.48-.702 1.128-.702 1.944 0 .816.234 1.47.702 1.962.468.48 1.062.72 1.782.72zm16.9069-7.52395V15.68c0 1.776-.462 3.096-1.386 3.96-.924.864-2.274 1.296-4.05 1.296-.936 0-1.824-.114-2.664-.342-.84-.228-1.536-.558-2.088-.99l1.116-2.016c.408.336.924.6 1.548.792.624.204 1.248.306 1.872.306.972 0 1.686-.222 2.142-.666.468-.432.702-1.092.702-1.98v-.414c-.732.804-1.752 1.206-3.06 1.206-.888 0-1.704-.192-2.448-.576-.732-.396-1.314-.948-1.746-1.656-.432-.708-.648-1.524-.648-2.448 0-.924.216-1.74.648-2.44795.432-.708 1.014-1.254 1.746-1.638.744-.396 1.56-.594 2.448-.594 1.404 0 2.472.462 3.204 1.386v-1.242h2.664zm-5.31 6.91195c.744 0 1.35-.216 1.818-.648.48-.444.72-1.02.72-1.728s-.24-1.278-.72-1.71c-.468-.44395-1.074-.66595-1.818-.66595s-1.356.222-1.836.66595c-.48.432-.72 1.002-.72 1.71s.24 1.284.72 1.728c.48.432 1.092.648 1.836.648zm7.6535-6.91195H38.5V17.3h-2.808V7.61605zm1.404-1.35c-.516 0-.936-.15-1.26-.45-.324-.3-.486-.672-.486-1.116 0-.444.162-.816.486-1.116.324-.3.744-.45 1.26-.45s.936.144 1.26.432c.324.288.486.648.486 1.08 0 .468-.162.858-.486 1.17-.324.3-.744.45-1.26.45zm9.6261 1.206c1.2 0 2.166.36 2.898 1.08.744.72 1.116 1.78795 1.116 3.20395V17.3h-2.808v-5.112c0-.768-.168-1.338-.504-1.71-.336-.384-.822-.57595-1.458-.57595-.708 0-1.272.22195-1.692.66595-.42.432-.63 1.08-.63 1.944V17.3h-2.808V7.61605h2.682v1.134c.372-.408.834-.72 1.386-.936.552-.228 1.158-.342 1.818-.342z" fill="#1D2557"/></svg>