<svg width="192" height="52" viewBox="0 0 192 52" fill="none" xmlns="http://www.w3.org/2000/svg"><rect x=".5" y=".5" width="191" height="51" rx="25.5" fill="#1D2557" stroke="#1D2557"/><path d="M50.5855 20.05v4.625h8.1v3.25h-8.1V34.3h-4.05V16.8h13.225v3.25h-9.175zm11.0227.8h3.9V34.3h-3.9V20.85zm1.95-1.875c-.7167 0-1.3-.2083-1.75-.625-.45-.4167-.675-.9333-.675-1.55s.225-1.1333.675-1.55c.45-.4167 1.0333-.625 1.75-.625.7166 0 1.3.2 1.75.6.45.4.675.9.675 1.5 0 .65-.225 1.1917-.675 1.625-.45.4167-1.0334.625-1.75.625zm13.3695 1.675c1.6667 0 3.0083.5 4.025 1.5 1.0333 1 1.55 2.4833 1.55 4.45v7.7h-3.9v-7.1c0-1.0667-.2333-1.8583-.7-2.375-.4667-.5333-1.1417-.8-2.025-.8-.9833 0-1.7667.3083-2.35.925-.5833.6-.875 1.5-.875 2.7v6.65h-3.9V20.85h3.725v1.575c.5167-.5667 1.1583-1 1.925-1.3.7667-.3167 1.6083-.475 2.525-.475zm14.1602 0c2.0833 0 3.6833.5 4.8 1.5 1.1166.9833 1.675 2.475 1.675 4.475V34.3h-3.65v-1.675c-.7334 1.25-2.1 1.875-4.1 1.875-1.0334 0-1.9334-.175-2.7-.525-.75-.35-1.325-.8333-1.725-1.45-.4-.6167-.6-1.3167-.6-2.1 0-1.25.4666-2.2333 1.4-2.95.95-.7167 2.4083-1.075 4.375-1.075h3.1c0-.85-.2584-1.5-.775-1.95-.5167-.4667-1.2917-.7-2.325-.7-.7167 0-1.425.1167-2.125.35-.6834.2167-1.2667.5167-1.75.9l-1.4-2.725c.7333-.5167 1.6083-.9167 2.625-1.2 1.0333-.2833 2.0916-.425 3.175-.425zm-.3 11.225c.6666 0 1.2583-.15 1.775-.45.5166-.3167.8833-.775 1.1-1.375v-1.375h-2.675c-1.6 0-2.4.525-2.4 1.575 0 .5.1916.9.575 1.2.4.2833.9416.425 1.625.425zM108.893 20.65c1.666 0 3.008.5 4.025 1.5 1.033 1 1.55 2.4833 1.55 4.45v7.7h-3.9v-7.1c0-1.0667-.234-1.8583-.7-2.375-.467-.5333-1.142-.8-2.025-.8-.984 0-1.767.3083-2.35.925-.584.6-.875 1.5-.875 2.7v6.65h-3.9V20.85h3.725v1.575c.516-.5667 1.158-1 1.925-1.3.766-.3167 1.608-.475 2.525-.475zm15.381 13.85c-1.433 0-2.725-.2917-3.875-.875-1.133-.6-2.025-1.425-2.675-2.475-.633-1.05-.95-2.2417-.95-3.575 0-1.3333.317-2.525.95-3.575.65-1.05 1.542-1.8667 2.675-2.45 1.15-.6 2.442-.9 3.875-.9 1.417 0 2.65.3 3.7.9 1.067.5833 1.842 1.425 2.325 2.525l-3.025 1.625c-.7-1.2333-1.708-1.85-3.025-1.85-1.016 0-1.858.3333-2.525 1-.666.6667-1 1.575-1 2.725 0 1.15.334 2.0583 1 2.725.667.6667 1.509 1 2.525 1 1.334 0 2.342-.6167 3.025-1.85l3.025 1.65c-.483 1.0667-1.258 1.9-2.325 2.5-1.05.6-2.283.9-3.7.9zm20.9-6.875c0 .05-.025.4-.075 1.05h-10.175c.183.8333.616 1.4917 1.3 1.975.683.4833 1.533.725 2.55.725.7 0 1.316-.1 1.85-.3.55-.2167 1.058-.55 1.525-1l2.075 2.25c-1.267 1.45-3.117 2.175-5.55 2.175-1.517 0-2.859-.2917-4.025-.875-1.167-.6-2.067-1.425-2.7-2.475-.634-1.05-.95-2.2417-.95-3.575 0-1.3167.308-2.5.925-3.55.633-1.0667 1.491-1.8917 2.575-2.475 1.1-.6 2.325-.9 3.675-.9 1.316 0 2.508.2833 3.575.85 1.066.5667 1.9 1.3833 2.5 2.45.616 1.05.925 2.275.925 3.675zm-6.975-4.025c-.884 0-1.625.25-2.225.75-.6.5-.967 1.1833-1.1 2.05h6.625c-.134-.85-.5-1.525-1.1-2.025-.6-.5167-1.334-.775-2.2-.775z" fill="#F2F2F2"/></svg>