<svg width="192" height="52" viewBox="0 0 192 52" fill="none" xmlns="http://www.w3.org/2000/svg"><rect x=".5" y=".5" width="191" height="51" rx="25.5" fill="#1D2557" stroke="#1D2557"/><path d="M70.4424 16.8v17.5h-4.05v-7.175h-7.95V34.3h-4.05V16.8h4.05v6.9h7.95v-6.9h4.05zm16.6655 10.825c0 .05-.025.4-.075 1.05h-10.175c.1833.8333.6166 1.4917 1.3 1.975.6833.4833 1.5333.725 2.55.725.7 0 1.3166-.1 1.85-.3.55-.2167 1.0583-.55 1.525-1l2.075 2.25c-1.2667 1.45-3.1167 2.175-5.55 2.175-1.5167 0-2.8584-.2917-4.025-.875-1.1667-.6-2.0667-1.425-2.7-2.475-.6334-1.05-.95-2.2417-.95-3.575 0-1.3167.3083-2.5.925-3.55.6333-1.0667 1.4916-1.8917 2.575-2.475 1.1-.6 2.325-.9 3.675-.9 1.3166 0 2.5083.2833 3.575.85 1.0666.5667 1.9 1.3833 2.5 2.45.6166 1.05.925 2.275.925 3.675zm-6.975-4.025c-.8834 0-1.625.25-2.225.75-.6.5-.9667 1.1833-1.1 2.05h6.625c-.1334-.85-.5-1.525-1.1-2.025-.6-.5167-1.3334-.775-2.2-.775zm14.2552-2.95c2.0834 0 3.6834.5 4.8 1.5 1.1169.9833 1.6749 2.475 1.6749 4.475V34.3h-3.6499v-1.675c-.7333 1.25-2.1 1.875-4.1 1.875-1.0333 0-1.9333-.175-2.7-.525-.75-.35-1.325-.8333-1.725-1.45-.4-.6167-.6-1.3167-.6-2.1 0-1.25.4667-2.2333 1.4-2.95.95-.7167 2.4084-1.075 4.375-1.075h3.1c0-.85-.2583-1.5-.775-1.95-.5166-.4667-1.2916-.7-2.325-.7-.7166 0-1.425.1167-2.125.35-.6833.2167-1.2666.5167-1.75.9l-1.4-2.725c.7334-.5167 1.6084-.9167 2.625-1.2 1.0334-.2833 2.0917-.425 3.175-.425zm-.3 11.225c.6667 0 1.2584-.15 1.775-.45.5167-.3167.8834-.775 1.1-1.375v-1.375h-2.675c-1.6 0-2.4.525-2.4 1.575 0 .5.1917.9.575 1.2.4.2833.9417.425 1.625.425zm9.9299-16.125h3.9V34.3h-3.9V15.75zm16.796 17.9c-.383.2833-.858.5-1.425.65-.55.1333-1.133.2-1.75.2-1.6 0-2.842-.4083-3.725-1.225-.867-.8167-1.3-2.0167-1.3-3.6V24.15h-2.075v-3h2.075v-3.275h3.9v3.275h3.35v3h-3.35v5.475c0 .5667.142 1.0083.425 1.325.3.3.717.45 1.25.45.617 0 1.142-.1667 1.575-.5l1.05 2.75zm9.989-13c1.667 0 3.009.5 4.025 1.5 1.034 1 1.55 2.4833 1.55 4.45v7.7h-3.9v-7.1c0-1.0667-.233-1.8583-.7-2.375-.466-.5333-1.141-.8-2.025-.8-.983 0-1.766.3083-2.35.925-.583.6-.875 1.5-.875 2.7v6.65h-3.9V15.75h3.9v6.5c.517-.5167 1.142-.9083 1.875-1.175.734-.2833 1.534-.425 2.4-.425z" fill="#F2F2F2"/></svg>