<svg width="192" height="52" viewBox="0 0 192 52" fill="none" xmlns="http://www.w3.org/2000/svg"><rect x=".5" y=".5" width="191" height="51" rx="25.5" fill="#1D2557" stroke="#1D2557"/><path d="M27.3272 31.05v3.25h-13.55V16.8h13.225v3.25h-9.2v3.8h8.125V27h-8.125v4.05h9.525zm10.7475-10.4c1.6666 0 3.0083.5 4.025 1.5 1.0333 1 1.55 2.4833 1.55 4.45v7.7h-3.9v-7.1c0-1.0667-.2334-1.8583-.7-2.375-.4667-.5333-1.1417-.8-2.025-.8-.9834 0-1.7667.3083-2.35.925-.5834.6-.875 1.5-.875 2.7v6.65h-3.9V20.85h3.725v1.575c.5166-.5667 1.1583-1 1.925-1.3.7666-.3167 1.6083-.475 2.525-.475zm21.841.2l-5.675 13.45h-4.025l-5.65-13.45h4.025l3.725 9.15 3.85-9.15h3.75zm1.2164 0h3.9V34.3h-3.9V20.85zm1.95-1.875c-.7167 0-1.3-.2083-1.75-.625-.45-.4167-.675-.9333-.675-1.55s.225-1.1333.675-1.55c.45-.4167 1.0333-.625 1.75-.625.7167 0 1.3.2 1.75.6.45.4.675.9.675 1.5 0 .65-.225 1.1917-.675 1.625-.45.4167-1.0333.625-1.75.625zm8.9195 3.65c.4667-.65 1.0917-1.1417 1.875-1.475.8-.3333 1.7167-.5 2.75-.5v3.6c-.4333-.0333-.725-.05-.875-.05-1.1166 0-1.9916.3167-2.625.95-.6333.6167-.95 1.55-.95 2.8v6.35h-3.9V20.85h3.725v1.775zM84.8485 34.5c-1.4167 0-2.6917-.2917-3.825-.875-1.1167-.6-1.9917-1.425-2.625-2.475s-.95-2.2417-.95-3.575c0-1.3333.3167-2.525.95-3.575.6333-1.05 1.5083-1.8667 2.625-2.45 1.1333-.6 2.4083-.9 3.825-.9s2.6833.3 3.8.9c1.1167.5833 1.9917 1.4 2.625 2.45.6333 1.05.95 2.2417.95 3.575 0 1.3333-.3167 2.525-.95 3.575-.6333 1.05-1.5083 1.875-2.625 2.475-1.1167.5833-2.3833.875-3.8.875zm0-3.2c1 0 1.8167-.3333 2.45-1 .65-.6833.975-1.5917.975-2.725 0-1.1333-.325-2.0333-.975-2.7-.6333-.6833-1.45-1.025-2.45-1.025-1 0-1.825.3417-2.475 1.025-.65.6667-.975 1.5667-.975 2.7 0 1.1333.325 2.0417.975 2.725.65.6667 1.475 1 2.475 1zM102.63 20.65c1.667 0 3.009.5 4.025 1.5 1.034 1 1.55 2.4833 1.55 4.45v7.7h-3.9v-7.1c0-1.0667-.233-1.8583-.7-2.375-.466-.5333-1.141-.8-2.025-.8-.983 0-1.7663.3083-2.3497.925-.5833.6-.875 1.5-.875 2.7v6.65h-3.9V20.85h3.725v1.575c.5167-.5667 1.1584-1 1.9247-1.3.767-.3167 1.609-.475 2.525-.475zm25.96 0c1.684 0 3.017.5 4 1.5 1 .9833 1.5 2.4667 1.5 4.45v7.7h-3.9v-7.1c0-1.0667-.225-1.8583-.675-2.375-.433-.5333-1.058-.8-1.875-.8-.916 0-1.641.3-2.175.9-.533.5833-.8 1.4583-.8 2.625v6.75h-3.9v-7.1c0-2.1167-.85-3.175-2.55-3.175-.9 0-1.616.3-2.15.9-.533.5833-.8 1.4583-.8 2.625v6.75h-3.9V20.85h3.725v1.55c.5-.5667 1.109-1 1.825-1.3.734-.3 1.534-.45 2.4-.45.95 0 1.809.1917 2.575.575.767.3667 1.384.9083 1.85 1.625.55-.7 1.242-1.2417 2.075-1.625.85-.3833 1.775-.575 2.775-.575zm21.943 6.975c0 .05-.025.4-.075 1.05h-10.175c.183.8333.616 1.4917 1.3 1.975.683.4833 1.533.725 2.55.725.7 0 1.316-.1 1.85-.3.55-.2167 1.058-.55 1.525-1l2.075 2.25c-1.267 1.45-3.117 2.175-5.55 2.175-1.517 0-2.859-.2917-4.025-.875-1.167-.6-2.067-1.425-2.7-2.475-.634-1.05-.95-2.2417-.95-3.575 0-1.3167.308-2.5.925-3.55.633-1.0667 1.491-1.8917 2.575-2.475 1.1-.6 2.325-.9 3.675-.9 1.316 0 2.508.2833 3.575.85 1.066.5667 1.9 1.3833 2.5 2.45.616 1.05.925 2.275.925 3.675zm-6.975-4.025c-.884 0-1.625.25-2.225.75-.6.5-.967 1.1833-1.1 2.05h6.625c-.134-.85-.5-1.525-1.1-2.025-.6-.5167-1.334-.775-2.2-.775zm17.371-2.95c1.667 0 3.008.5 4.025 1.5 1.033 1 1.55 2.4833 1.55 4.45v7.7h-3.9v-7.1c0-1.0667-.233-1.8583-.7-2.375-.467-.5333-1.142-.8-2.025-.8-.983 0-1.767.3083-2.35.925-.583.6-.875 1.5-.875 2.7v6.65h-3.9V20.85h3.725v1.575c.517-.5667 1.158-1 1.925-1.3.767-.3167 1.608-.475 2.525-.475zm17.41 13c-.383.2833-.858.5-1.425.65-.55.1333-1.133.2-1.75.2-1.6 0-2.841-.4083-3.725-1.225-.866-.8167-1.3-2.0167-1.3-3.6V24.15h-2.075v-3h2.075v-3.275h3.9v3.275h3.35v3h-3.35v5.475c0 .5667.142 1.0083.425 1.325.3.3.717.45 1.25.45.617 0 1.142-.1667 1.575-.5l1.05 2.75z" fill="#F2F2F2"/></svg>