<svg width="192" height="52" viewBox="0 0 192 52" fill="none" xmlns="http://www.w3.org/2000/svg"><rect x=".5" y=".5" width="191" height="51" rx="25.5" fill="#1D2557" stroke="#1D2557"/><path d="M27.1141 20.1h-5.6v-3.3h15.25v3.3h-5.6v14.2h-4.05V20.1zm22.9869 7.525c0 .05-.025.4-.075 1.05H39.851c.1834.8333.6167 1.4917 1.3 1.975.6834.4833 1.5334.725 2.55.725.7 0 1.3167-.1 1.85-.3.55-.2167 1.0584-.55 1.525-1l2.075 2.25c-1.2666 1.45-3.1166 2.175-5.55 2.175-1.5166 0-2.8583-.2917-4.025-.875-1.1666-.6-2.0666-1.425-2.7-2.475-.6333-1.05-.95-2.2417-.95-3.575 0-1.3167.3084-2.5.925-3.55.6334-1.0667 1.4917-1.8917 2.575-2.475 1.1-.6 2.325-.9 3.675-.9 1.3167 0 2.5084.2833 3.575.85 1.0667.5667 1.9 1.3833 2.5 2.45.6167 1.05.925 2.275.925 3.675zM43.126 23.6c-.8833 0-1.625.25-2.225.75-.6.5-.9666 1.1833-1.1 2.05h6.625c-.1333-.85-.5-1.525-1.1-2.025-.6-.5167-1.3333-.775-2.2-.775zm15.6965 10.9c-1.4333 0-2.725-.2917-3.875-.875-1.1333-.6-2.025-1.425-2.675-2.475-.6333-1.05-.95-2.2417-.95-3.575 0-1.3333.3167-2.525.95-3.575.65-1.05 1.5417-1.8667 2.675-2.45 1.15-.6 2.4417-.9 3.875-.9 1.4167 0 2.65.3 3.7.9 1.0667.5833 1.8417 1.425 2.325 2.525l-3.025 1.625c-.7-1.2333-1.7083-1.85-3.025-1.85-1.0166 0-1.8583.3333-2.525 1-.6666.6667-1 1.575-1 2.725 0 1.15.3334 2.0583 1 2.725.6667.6667 1.5084 1 2.525 1 1.3334 0 2.3417-.6167 3.025-1.85l3.025 1.65c-.4833 1.0667-1.2583 1.9-2.325 2.5-1.05.6-2.2833.9-3.7.9zm15.9729-13.85c1.6666 0 3.0083.5 4.025 1.5 1.0333 1 1.55 2.4833 1.55 4.45v7.7h-3.9v-7.1c0-1.0667-.2334-1.8583-.7-2.375-.4667-.5333-1.1417-.8-2.025-.8-.9834 0-1.7667.3083-2.35.925-.5834.6-.875 1.5-.875 2.7v6.65h-3.9V15.75h3.9v6.5c.5166-.5167 1.1416-.9083 1.875-1.175.7333-.2833 1.5333-.425 2.4-.425zm16.9101 0c1.6667 0 3.0084.5 4.025 1.5 1.0334 1 1.55 2.4833 1.55 4.45v7.7h-3.9v-7.1c0-1.0667-.2333-1.8583-.7-2.375-.4666-.5333-1.1416-.8-2.025-.8-.9833 0-1.7666.3083-2.35.925-.5833.6-.875 1.5-.875 2.7v6.65h-3.9V20.85h3.725v1.575c.5167-.5667 1.1584-1 1.925-1.3.7667-.3167 1.6084-.475 2.525-.475zM106.987 34.5c-1.416 0-2.691-.2917-3.825-.875-1.116-.6-1.991-1.425-2.625-2.475-.6332-1.05-.9498-2.2417-.9498-3.575 0-1.3333.3166-2.525.9498-3.575.634-1.05 1.509-1.8667 2.625-2.45 1.134-.6 2.409-.9 3.825-.9 1.417 0 2.684.3 3.8.9 1.117.5833 1.992 1.4 2.625 2.45.634 1.05.95 2.2417.95 3.575 0 1.3333-.316 2.525-.95 3.575-.633 1.05-1.508 1.875-2.625 2.475-1.116.5833-2.383.875-3.8.875zm0-3.2c1 0 1.817-.3333 2.45-1 .65-.6833.975-1.5917.975-2.725 0-1.1333-.325-2.0333-.975-2.7-.633-.6833-1.45-1.025-2.45-1.025-1 0-1.825.3417-2.475 1.025-.65.6667-.975 1.5667-.975 2.7 0 1.1333.325 2.0417.975 2.725.65.6667 1.475 1 2.475 1zm9.607-15.55h3.9V34.3h-3.9V15.75zm13.545 18.75c-1.417 0-2.692-.2917-3.825-.875-1.117-.6-1.992-1.425-2.625-2.475-.634-1.05-.95-2.2417-.95-3.575 0-1.3333.316-2.525.95-3.575.633-1.05 1.508-1.8667 2.625-2.45 1.133-.6 2.408-.9 3.825-.9 1.416 0 2.683.3 3.8.9 1.116.5833 1.991 1.4 2.625 2.45.633 1.05.95 2.2417.95 3.575 0 1.3333-.317 2.525-.95 3.575-.634 1.05-1.509 1.875-2.625 2.475-1.117.5833-2.384.875-3.8.875zm0-3.2c1 0 1.816-.3333 2.45-1 .65-.6833.975-1.5917.975-2.725 0-1.1333-.325-2.0333-.975-2.7-.634-.6833-1.45-1.025-2.45-1.025-1 0-1.825.3417-2.475 1.025-.65.6667-.975 1.5667-.975 2.7 0 1.1333.325 2.0417.975 2.725.65.6667 1.475 1 2.475 1zm23.481-10.45v11.2c0 2.4667-.641 4.3-1.925 5.5-1.283 1.2-3.158 1.8-5.625 1.8-1.3 0-2.533-.1583-3.7-.475-1.166-.3167-2.133-.775-2.9-1.375l1.55-2.8c.567.4667 1.284.8333 2.15 1.1.867.2833 1.734.425 2.6.425 1.35 0 2.342-.3083 2.975-.925.65-.6.975-1.5167.975-2.75v-.575c-1.016 1.1167-2.433 1.675-4.25 1.675-1.233 0-2.366-.2667-3.4-.8-1.016-.55-1.825-1.3167-2.425-2.3-.6-.9833-.9-2.1167-.9-3.4s.3-2.4167.9-3.4c.6-.9833 1.409-1.7417 2.425-2.275 1.034-.55 2.167-.825 3.4-.825 1.95 0 3.434.6417 4.45 1.925V20.85h3.7zm-7.375 9.6c1.034 0 1.875-.3 2.525-.9.667-.6167 1-1.4167 1-2.4 0-.9833-.333-1.775-1-2.375-.65-.6167-1.491-.925-2.525-.925-1.033 0-1.883.3083-2.55.925-.666.6-1 1.3917-1 2.375 0 .9833.334 1.7833 1 2.4.667.6 1.517.9 2.55.9zm23.98-9.6l-6.075 14.275c-.616 1.55-1.383 2.6417-2.3 3.275-.9.6333-1.991.95-3.275.95-.7 0-1.391-.1083-2.075-.325-.683-.2167-1.241-.5167-1.675-.9l1.425-2.775c.3.2667.642.475 1.025.625.4.15.792.225 1.175.225.534 0 .967-.1333 1.3-.4.334-.25.634-.675.9-1.275l.05-.125-5.825-13.55h4.025l3.775 9.125 3.8-9.125h3.75z" fill="#F2F2F2"/></svg>