<svg width="173" height="37" viewBox="0 0 173 37" fill="none" xmlns="http://www.w3.org/2000/svg"><path d="M12.57 29.42c-2.2 0-4.18-.46-5.94-1.38-1.74-.94-3.11-2.24-4.11-3.9-1-1.66-1.5-3.54-1.5-5.64 0-2.1.5-3.98 1.5-5.64 1-1.66 2.37-2.95 4.11-3.87 1.76-.94 3.74-1.41 5.94-1.41 1.92 0 3.65.34 5.19 1.02 1.54.68 2.82 1.66 3.84 2.94l-3.78 3.42c-1.36-1.64-3.01-2.46-4.95-2.46-1.14 0-2.16.25-3.06.75-.88.5-1.57 1.21-2.07 2.13-.48.9-.72 1.94-.72 3.12 0 1.18.24 2.23.72 3.15.5.9 1.19 1.6 2.07 2.1.9.5 1.92.75 3.06.75 1.94 0 3.59-.82 4.95-2.46l3.78 3.42c-1.02 1.28-2.3 2.26-3.84 2.94-1.54.68-3.27 1.02-5.19 1.02zm18.2798-16.95c2.7 0 4.76.62 6.18 1.86 1.42 1.22 2.13 3.1 2.13 5.64V29h-5.31v-2.1c-.82 1.58-2.42 2.37-4.8 2.37-1.26 0-2.35-.22-3.27-.66-.92-.44-1.62-1.03-2.1-1.77-.46-.76-.69-1.62-.69-2.58 0-1.54.59-2.73 1.77-3.57 1.18-.86 3-1.29 5.46-1.29h3.24c-.1-1.72-1.25-2.58-3.45-2.58-.78 0-1.57.13-2.37.39-.8.24-1.48.58-2.04 1.02l-1.92-3.87c.9-.6 1.99-1.06 3.27-1.38 1.3-.34 2.6-.51 3.9-.51zm-.21 13.2c.66 0 1.24-.16 1.74-.48.5-.32.86-.79 1.08-1.41v-1.41h-2.46c-1.66 0-2.49.55-2.49 1.65 0 .5.19.9.57 1.2.38.3.9.45 1.56.45zm23.3379 2.67c-.48.3-1.07.53-1.77.69-.68.16-1.41.24-2.19.24-2.12 0-3.75-.52-4.89-1.56-1.14-1.04-1.71-2.59-1.71-4.65V17.6h-2.37v-4.26h2.37V9.11h5.7v4.23h3.72v4.26h-3.72V23c0 .58.15 1.04.45 1.38.32.32.74.48 1.26.48.66 0 1.24-.17 1.74-.51l1.41 3.99zM72.327 20.9c0 .04-.03.51-.09 1.41h-11.82c.24.84.7 1.49 1.38 1.95.7.44 1.57.66 2.61.66.78 0 1.45-.11 2.01-.33.58-.22 1.16-.58 1.74-1.08l3 3.12c-1.58 1.76-3.89 2.64-6.93 2.64-1.9 0-3.57-.36-5.01-1.08-1.44-.72-2.56-1.72-3.36-3-.78-1.28-1.17-2.73-1.17-4.35 0-1.6.38-3.03 1.14-4.29.78-1.28 1.85-2.28 3.21-3 1.36-.72 2.89-1.08 4.59-1.08 1.62 0 3.09.34 4.41 1.02 1.32.66 2.36 1.63 3.12 2.91.78 1.26 1.17 2.76 1.17 4.5zm-8.67-4.38c-.88 0-1.62.25-2.22.75-.58.5-.95 1.18-1.11 2.04h6.66c-.16-.86-.54-1.54-1.14-2.04-.58-.5-1.31-.75-2.19-.75zm28.788-3.78v13.29c0 3.02-.82 5.28-2.46 6.78-1.64 1.52-4 2.28-7.08 2.28-1.6 0-3.1-.18-4.5-.54-1.4-.36-2.59-.89-3.57-1.59l2.07-3.99c.66.54 1.49.96 2.49 1.26 1.02.32 2.02.48 3 .48 1.5 0 2.6-.33 3.3-.99.7-.66 1.05-1.64 1.05-2.94v-.54c-1.1 1.28-2.71 1.92-4.83 1.92-1.44 0-2.77-.32-3.99-.96-1.22-.66-2.19-1.58-2.91-2.76-.72-1.2-1.08-2.58-1.08-4.14 0-1.54.36-2.9 1.08-4.08.72-1.2 1.69-2.12 2.91-2.76 1.22-.66 2.55-.99 3.99-.99 2.32 0 4.02.75 5.1 2.25v-1.98h5.43zm-9.18 10.89c1.02 0 1.86-.31 2.52-.93.68-.62 1.02-1.42 1.02-2.4s-.33-1.77-.99-2.37c-.66-.62-1.51-.93-2.55-.93-1.04 0-1.9.31-2.58.93-.66.6-.99 1.39-.99 2.37 0 .98.34 1.78 1.02 2.4.68.62 1.53.93 2.55.93zm21.002 5.64c-1.74 0-3.31-.36-4.7097-1.08-1.4-.72-2.5-1.72-3.3-3-.78-1.28-1.17-2.73-1.17-4.35 0-1.6.39-3.04 1.17-4.32.8-1.28 1.89-2.27 3.27-2.97 1.3997-.72 2.9797-1.08 4.7397-1.08 1.76 0 3.34.36 4.74 1.08 1.4.7 2.49 1.69 3.27 2.97.78 1.26 1.17 2.7 1.17 4.32s-.39 3.07-1.17 4.35c-.78 1.28-1.87 2.28-3.27 3-1.4.72-2.98 1.08-4.74 1.08zm0-4.53c1 0 1.82-.34 2.46-1.02.64-.7.96-1.66.96-2.88 0-1.2-.32-2.14-.96-2.82-.64-.68-1.46-1.02-2.46-1.02s-1.82.34-2.46 1.02c-.64.68-.96 1.62-.96 2.82 0 1.22.32 2.18.96 2.88.64.68 1.46 1.02 2.46 1.02zm17.251-10.05c.58-.74 1.33-1.29 2.25-1.65.94-.38 2.01-.57 3.21-.57v5.13c-.52-.06-.95-.09-1.29-.09-1.22 0-2.18.33-2.88.99-.68.66-1.02 1.67-1.02 3.03V29h-5.7V12.74h5.43v1.95zm7.812-1.95h5.7V29h-5.7V12.74zm2.85-1.8c-1.04 0-1.88-.29-2.52-.87-.64-.58-.96-1.3-.96-2.16 0-.86.32-1.58.96-2.16.64-.58 1.48-.87 2.52-.87s1.88.28 2.52.84c.64.54.96 1.24.96 2.1 0 .9-.32 1.65-.96 2.25-.64.58-1.48.87-2.52.87zm23.174 9.96c0 .04-.03.51-.09 1.41h-11.82c.24.84.7 1.49 1.38 1.95.7.44 1.57.66 2.61.66.78 0 1.45-.11 2.01-.33.58-.22 1.16-.58 1.74-1.08l3 3.12c-1.58 1.76-3.89 2.64-6.93 2.64-1.9 0-3.57-.36-5.01-1.08-1.44-.72-2.56-1.72-3.36-3-.78-1.28-1.17-2.73-1.17-4.35 0-1.6.38-3.03 1.14-4.29.78-1.28 1.85-2.28 3.21-3 1.36-.72 2.89-1.08 4.59-1.08 1.62 0 3.09.34 4.41 1.02 1.32.66 2.36 1.63 3.12 2.91.78 1.26 1.17 2.76 1.17 4.5zm-8.67-4.38c-.88 0-1.62.25-2.22.75-.58.5-.95 1.18-1.11 2.04h6.66c-.16-.86-.54-1.54-1.14-2.04-.58-.5-1.31-.75-2.19-.75zm17.208 12.75c-1.36 0-2.7-.15-4.02-.45-1.32-.32-2.38-.73-3.18-1.23l1.71-3.9c.74.46 1.62.83 2.64 1.11 1.02.26 2.03.39 3.03.39.92 0 1.57-.09 1.95-.27.4-.2.6-.48.6-.84s-.24-.61-.72-.75c-.46-.16-1.2-.31-2.22-.45-1.3-.16-2.41-.37-3.33-.63-.9-.26-1.68-.74-2.34-1.44-.66-.7-.99-1.68-.99-2.94 0-1.04.31-1.96.93-2.76.62-.82 1.52-1.46 2.7-1.92 1.2-.48 2.63-.72 4.29-.72 1.18 0 2.35.12 3.51.36 1.16.24 2.13.58 2.91 1.02l-1.71 3.87c-1.44-.8-3-1.2-4.68-1.2-.9 0-1.56.11-1.98.33-.42.2-.63.47-.63.81 0 .38.23.65.69.81.46.14 1.22.29 2.28.45 1.34.2 2.45.43 3.33.69.88.26 1.64.74 2.28 1.44.66.68.99 1.64.99 2.88 0 1.02-.31 1.94-.93 2.76-.62.8-1.54 1.43-2.76 1.89-1.2.46-2.65.69-4.35.69z" fill="#1D2557"/></svg>