<svg width="142" height="43" viewBox="0 0 142 43" fill="none" xmlns="http://www.w3.org/2000/svg"><path d="M7.175 12.545v8.54H19.46v3.01H7.175V34h-3.5V9.5h17.29v3.045H7.175zM25.06 15.45h3.36V34h-3.36V15.45zm1.68-3.57c-.6533 0-1.2017-.21-1.645-.63-.42-.42-.63-.9333-.63-1.54 0-.60667.21-1.12.63-1.54.4433-.44333.9917-.665 1.645-.665s1.19.21 1.61.63c.4433.39666.665.89833.665 1.505 0 .63-.2217 1.1667-.665 1.61-.42.42-.9567.63-1.61.63zm18.0004 3.395c2.3567 0 4.2233.6883 5.6 2.065 1.4 1.3533 2.1 3.3483 2.1 5.985V34h-3.36V23.71c0-1.7967-.4317-3.15-1.295-4.06-.8633-.91-2.1-1.365-3.71-1.365-1.82 0-3.255.5367-4.305 1.61-1.05 1.05-1.575 2.5667-1.575 4.55V34h-3.36V15.45h3.22v2.8c.6767-.9567 1.5867-1.6917 2.73-2.205 1.1667-.5133 2.485-.77 3.955-.77zm20.6732 0c2.5667 0 4.5267.63 5.88 1.89 1.3767 1.26 2.065 3.1383 2.065 5.635V34h-3.185v-2.45c-.56.8633-1.365 1.5283-2.415 1.995-1.0266.4433-2.2516.665-3.675.665-2.0766 0-3.745-.5017-5.005-1.505-1.2366-1.0033-1.855-2.3217-1.855-3.955 0-1.6333.595-2.94 1.785-3.92 1.19-1.0033 3.08-1.505 5.67-1.505h5.32v-.665c0-1.4467-.42-2.555-1.26-3.325-.84-.77-2.0766-1.155-3.71-1.155-1.0966 0-2.17.1867-3.22.56-1.05.35-1.9366.8283-2.66 1.435l-1.4-2.52c.9567-.77 2.1-1.3533 3.43-1.75 1.33-.42 2.7417-.63 4.235-.63zm-.77 16.345c1.2834 0 2.3917-.28 3.325-.84.9334-.5833 1.61-1.4 2.03-2.45v-2.59h-5.18c-2.8466 0-4.27.9567-4.27 2.87 0 .9333.3617 1.6683 1.085 2.205.7234.5367 1.7267.805 3.01.805zm24.838-16.345c2.3567 0 4.2233.6883 5.6 2.065 1.4 1.3533 2.1 3.3483 2.1 5.985V34h-3.36V23.71c0-1.7967-.4317-3.15-1.295-4.06-.8633-.91-2.1-1.365-3.71-1.365-1.82 0-3.255.5367-4.305 1.61-1.05 1.05-1.575 2.5667-1.575 4.55V34h-3.36V15.45h3.22v2.8c.6767-.9567 1.5867-1.6917 2.73-2.205 1.1667-.5133 2.485-.77 3.955-.77zM111.587 34.21c-1.89 0-3.581-.4083-5.075-1.225-1.47-.8167-2.625-1.9367-3.465-3.36-.84-1.4467-1.26-3.08-1.26-4.9 0-1.82.42-3.4417 1.26-4.865.84-1.4467 1.995-2.5667 3.465-3.36 1.494-.8167 3.185-1.225 5.075-1.225 1.68 0 3.174.3383 4.48 1.015 1.33.6767 2.357 1.6567 3.08 2.94l-2.555 1.645c-.583-.8867-1.306-1.5517-2.17-1.995-.863-.4433-1.82-.665-2.87-.665-1.213 0-2.31.2683-3.29.805-.956.5367-1.715 1.3067-2.275 2.31-.536.98-.805 2.1117-.805 3.395 0 1.3067.269 2.4617.805 3.465.56.98 1.319 1.7383 2.275 2.275.98.5367 2.077.805 3.29.805 1.05 0 2.007-.2217 2.87-.665.864-.4433 1.587-1.1083 2.17-1.995l2.555 1.61c-.723 1.2833-1.75 2.275-3.08 2.975-1.306.6767-2.8 1.015-4.48 1.015zm28.402-9.38c0 .2567-.023.595-.07 1.015h-15.05c.21 1.6333.922 2.9517 2.135 3.955 1.237.98 2.765 1.47 4.585 1.47 2.217 0 4.002-.7467 5.355-2.24l1.855 2.17c-.84.98-1.89 1.7267-3.15 2.24-1.237.5133-2.625.77-4.165.77-1.96 0-3.698-.3967-5.215-1.19-1.517-.8167-2.695-1.9483-3.535-3.395-.817-1.4467-1.225-3.08-1.225-4.9 0-1.7967.397-3.4183 1.19-4.865.817-1.4467 1.925-2.5667 3.325-3.36 1.423-.8167 3.022-1.225 4.795-1.225 1.773 0 3.348.4083 4.725 1.225 1.4.7933 2.485 1.9133 3.255 3.36.793 1.4467 1.19 3.1033 1.19 4.97zm-9.17-6.72c-1.61 0-2.963.49-4.06 1.47-1.073.98-1.703 2.2633-1.89 3.85h11.9c-.187-1.5633-.828-2.835-1.925-3.815-1.073-1.0033-2.415-1.505-4.025-1.505z" fill="#1D2557"/></svg>