<svg width="119" height="43" viewBox="0 0 119 43" fill="none" xmlns="http://www.w3.org/2000/svg"><path d="M24.745 9.5V34h-3.5V23.08H7.175V34h-3.5V9.5h3.5v10.535h14.07V9.5h3.5zm23.6083 15.33c0 .2567-.0233.595-.07 1.015h-15.05c.21 1.6333.9217 2.9517 2.135 3.955 1.2367.98 2.765 1.47 4.585 1.47 2.2167 0 4.0017-.7467 5.355-2.24l1.855 2.17c-.84.98-1.89 1.7267-3.15 2.24-1.2366.5133-2.625.77-4.165.77-1.96 0-3.6983-.3967-5.215-1.19-1.5166-.8167-2.695-1.9483-3.535-3.395-.8166-1.4467-1.225-3.08-1.225-4.9 0-1.7967.3967-3.4183 1.19-4.865.8167-1.4467 1.925-2.5667 3.325-3.36 1.4234-.8167 3.0217-1.225 4.795-1.225 1.7734 0 3.3484.4083 4.725 1.225 1.4.7933 2.485 1.9133 3.255 3.36.7934 1.4467 1.19 3.1033 1.19 4.97zm-9.17-6.72c-1.61 0-2.9633.49-4.06 1.47-1.0733.98-1.7033 2.2633-1.89 3.85h11.9c-.1866-1.5633-.8283-2.835-1.925-3.815-1.0733-1.0033-2.415-1.505-4.025-1.505zm20.078-2.835c2.5667 0 4.5267.63 5.88 1.89 1.3767 1.26 2.065 3.1383 2.065 5.635V34h-3.185v-2.45c-.56.8633-1.365 1.5283-2.415 1.995-1.0267.4433-2.2517.665-3.675.665-2.0767 0-3.745-.5017-5.005-1.505-1.2367-1.0033-1.855-2.3217-1.855-3.955 0-1.6333.595-2.94 1.785-3.92 1.19-1.0033 3.08-1.505 5.67-1.505h5.32v-.665c0-1.4467-.42-2.555-1.26-3.325-.84-.77-2.0767-1.155-3.71-1.155-1.0967 0-2.17.1867-3.22.56-1.05.35-1.9367.8283-2.66 1.435l-1.4-2.52c.9567-.77 2.1-1.3533 3.43-1.75 1.33-.42 2.7417-.63 4.235-.63zm-.77 16.345c1.2833 0 2.3917-.28 3.325-.84.9333-.5833 1.61-1.4 2.03-2.45v-2.59h-5.18c-2.8467 0-4.27.9567-4.27 2.87 0 .9333.3617 1.6683 1.085 2.205.7233.5367 1.7267.805 3.01.805zm14.933-23.59h3.36V34h-3.36V8.03zM94.074 32.915c-.49.42-1.0967.7467-1.82.98-.7233.21-1.47.315-2.24.315-1.8667 0-3.3133-.5017-4.34-1.505-1.0267-1.0033-1.54-2.4383-1.54-4.305V18.215h-3.15V15.45h3.15v-4.06h3.36v4.06h5.32v2.765h-5.32V28.26c0 1.0033.245 1.7733.735 2.31.5133.5367 1.2367.805 2.17.805 1.0267 0 1.9017-.2917 2.625-.875l1.05 2.415zm13.967-17.64c2.357 0 4.224.6883 5.6 2.065 1.4 1.3533 2.1 3.3483 2.1 5.985V34h-3.36V23.71c0-1.7967-.431-3.15-1.295-4.06-.863-.91-2.1-1.365-3.71-1.365-1.82 0-3.255.5367-4.305 1.61-1.05 1.05-1.575 2.5667-1.575 4.55V34h-3.3598V8.03h3.3598v10.045c.7-.8867 1.61-1.575 2.73-2.065 1.144-.49 2.415-.735 3.815-.735z" fill="#1D2557"/></svg>