<svg width="116" height="33" viewBox="0 0 116 33" fill="none" xmlns="http://www.w3.org/2000/svg"><path d="M18 0l4.0413 11.4012H35.119l-10.5801 7.0464 4.0412 11.4012L18 22.8024 7.41987 29.8488l4.04123-11.4012L.880983 11.4012H13.9587L18 0z" fill="#F5A11A"/><path d="M62.952 16.168c.88.4 1.552.944 2.016 1.632.48.672.72 1.464.72 2.376 0 1.024-.288 1.92-.864 2.688-.56.768-1.36 1.36-2.4 1.776-1.04.4-2.248.6-3.624.6s-2.584-.2-3.624-.6c-1.024-.416-1.816-1.008-2.376-1.776-.56-.768-.84-1.664-.84-2.688 0-.912.232-1.704.696-2.376.464-.688 1.128-1.232 1.992-1.632-.672-.368-1.192-.848-1.56-1.44-.352-.608-.528-1.304-.528-2.088 0-.944.256-1.768.768-2.472.528-.704 1.264-1.248 2.208-1.632.944-.384 2.032-.576 3.264-.576 1.248 0 2.344.192 3.288.576.944.384 1.68.928 2.208 1.632.528.704.792 1.528.792 2.472 0 .784-.184 1.472-.552 2.064-.368.592-.896 1.08-1.584 1.464zm-4.152-5.76c-.976 0-1.752.208-2.328.624-.56.416-.84 1-.84 1.752 0 .72.28 1.296.84 1.728.576.416 1.352.624 2.328.624.992 0 1.776-.208 2.352-.624.576-.432.864-1.008.864-1.728 0-.752-.296-1.336-.888-1.752-.576-.416-1.352-.624-2.328-.624zm0 12.384c1.152 0 2.064-.24 2.736-.72.672-.48 1.008-1.144 1.008-1.992 0-.832-.336-1.488-1.008-1.968-.672-.48-1.584-.72-2.736-.72-1.152 0-2.056.24-2.712.72-.656.48-.984 1.136-.984 1.968 0 .848.328 1.512.984 1.992.656.48 1.56.72 2.712.72zm15.9203 2.448c-1.344 0-2.544-.336-3.6-1.008-1.056-.688-1.888-1.68-2.496-2.976-.608-1.312-.912-2.864-.912-4.656 0-1.792.304-3.336.912-4.632.608-1.312 1.44-2.304 2.496-2.976 1.056-.688 2.256-1.032 3.6-1.032 1.344 0 2.544.344 3.6 1.032 1.072.672 1.912 1.664 2.52 2.976.608 1.296.912 2.84.912 4.632 0 1.792-.304 3.344-.912 4.656-.608 1.296-1.448 2.288-2.52 2.976-1.056.672-2.256 1.008-3.6 1.008zm0-2.712c1.2 0 2.144-.496 2.832-1.488.704-.992 1.056-2.472 1.056-4.44 0-1.968-.352-3.448-1.056-4.44-.688-.992-1.632-1.488-2.832-1.488-1.184 0-2.128.496-2.832 1.488-.688.992-1.032 2.472-1.032 4.44 0 1.968.344 3.448 1.032 4.44.704.992 1.648 1.488 2.832 1.488zm16.1484 2.712c-1.344 0-2.544-.336-3.6-1.008-1.056-.688-1.888-1.68-2.496-2.976-.608-1.312-.912-2.864-.912-4.656 0-1.792.304-3.336.912-4.632.608-1.312 1.44-2.304 2.496-2.976 1.056-.688 2.256-1.032 3.6-1.032 1.344 0 2.544.344 3.6 1.032 1.072.672 1.912 1.664 2.52 2.976.608 1.296.912 2.84.912 4.632 0 1.792-.304 3.344-.912 4.656-.608 1.296-1.448 2.288-2.52 2.976-1.056.672-2.256 1.008-3.6 1.008zm0-2.712c1.2 0 2.144-.496 2.832-1.488.704-.992 1.056-2.472 1.056-4.44 0-1.968-.352-3.448-1.056-4.44-.688-.992-1.632-1.488-2.832-1.488-1.184 0-2.128.496-2.832 1.488-.688.992-1.032 2.472-1.032 4.44 0 1.968.344 3.448 1.032 4.44.704.992 1.648 1.488 2.832 1.488zm16.1483 2.712c-1.344 0-2.544-.336-3.6-1.008-1.056-.688-1.888-1.68-2.496-2.976-.608-1.312-.912-2.864-.912-4.656 0-1.792.304-3.336.912-4.632.608-1.312 1.44-2.304 2.496-2.976 1.056-.688 2.256-1.032 3.6-1.032 1.344 0 2.544.344 3.6 1.032 1.072.672 1.912 1.664 2.52 2.976.608 1.296.912 2.84.912 4.632 0 1.792-.304 3.344-.912 4.656-.608 1.296-1.448 2.288-2.52 2.976-1.056.672-2.256 1.008-3.6 1.008zm0-2.712c1.2 0 2.144-.496 2.832-1.488.704-.992 1.056-2.472 1.056-4.44 0-1.968-.352-3.448-1.056-4.44-.688-.992-1.632-1.488-2.832-1.488-1.184 0-2.128.496-2.832 1.488-.688.992-1.032 2.472-1.032 4.44 0 1.968.344 3.448 1.032 4.44.704.992 1.648 1.488 2.832 1.488z" fill="#000"/></svg>