<svg width="161" height="40" viewBox="0 0 161 40" fill="none" xmlns="http://www.w3.org/2000/svg"><path d="M12.576 23L8.52 17.168 4.536 23H.072l6.216-8.544L.384 6.2H4.8l3.864 5.448L12.456 6.2h4.2L10.8 14.312 17.064 23h-4.488zM25.8578 6.2c1.488 0 2.776.248 3.864.744 1.104.496 1.952 1.2 2.544 2.112.592.912.888 1.992.888 3.24 0 1.232-.296 2.312-.888 3.24-.592.912-1.44 1.616-2.544 2.112-1.088.48-2.376.72-3.864.72h-3.384V23h-3.888V6.2h7.272zm-.216 9c1.168 0 2.056-.248 2.664-.744.608-.512.912-1.232.912-2.16 0-.944-.304-1.664-.912-2.16-.608-.512-1.496-.768-2.664-.768h-3.168V15.2h3.168zm24.591-9c1.488 0 2.776.248 3.864.744 1.104.496 1.952 1.2 2.544 2.112.592.912.888 1.992.888 3.24 0 1.232-.296 2.312-.888 3.24-.592.912-1.44 1.616-2.544 2.112-1.088.48-2.376.72-3.864.72h-3.384V23h-3.888V6.2h7.272zm-.216 9c1.168 0 2.056-.248 2.664-.744.608-.512.912-1.232.912-2.16 0-.944-.304-1.664-.912-2.16-.608-.512-1.496-.768-2.664-.768h-3.168V15.2h3.168zm13.5997-3.408c.448-.624 1.048-1.096 1.8-1.416.768-.32 1.648-.48 2.64-.48v3.456c-.416-.032-.696-.048-.84-.048-1.072 0-1.912.304-2.52.912-.608.592-.912 1.488-.912 2.688V23h-3.744V10.088h3.576v1.704zm12.693 11.4c-1.36 0-2.584-.28-3.672-.84-1.072-.576-1.912-1.368-2.52-2.376-.608-1.008-.912-2.152-.912-3.432 0-1.28.304-2.424.912-3.432.608-1.008 1.448-1.792 2.52-2.352 1.088-.576 2.312-.864 3.672-.864 1.36 0 2.576.288 3.648.864 1.072.56 1.912 1.344 2.52 2.352.608 1.008.912 2.152.912 3.432 0 1.28-.304 2.424-.912 3.432-.608 1.008-1.448 1.8-2.52 2.376-1.072.56-2.288.84-3.648.84zm0-3.072c.96 0 1.744-.32 2.352-.96.624-.656.936-1.528.936-2.616s-.312-1.952-.936-2.592c-.608-.656-1.392-.984-2.352-.984s-1.752.328-2.376.984c-.624.64-.936 1.504-.936 2.592s.312 1.96.936 2.616c.624.64 1.416.96 2.376.96zm22.9026-10.032V20.84c0 2.368-.616 4.128-1.848 5.28-1.232 1.152-3.032 1.728-5.4 1.728-1.248 0-2.432-.152-3.552-.456-1.12-.304-2.048-.744-2.784-1.32l1.488-2.688c.544.448 1.232.8 2.064 1.056.832.272 1.664.408 2.496.408 1.296 0 2.248-.296 2.856-.888.624-.576.936-1.456.936-2.64v-.552c-.976 1.072-2.336 1.608-4.08 1.608-1.184 0-2.272-.256-3.264-.768-.976-.528-1.752-1.264-2.328-2.208-.576-.944-.864-2.032-.864-3.264 0-1.232.288-2.32.864-3.264.576-.944 1.352-1.672 2.328-2.184.992-.528 2.08-.792 3.264-.792 1.872 0 3.296.616 4.272 1.848v-1.656h3.552zm-7.08 9.216c.992 0 1.8-.288 2.424-.864.64-.592.96-1.36.96-2.304 0-.944-.32-1.704-.96-2.28-.624-.592-1.432-.888-2.424-.888s-1.808.296-2.448.888c-.64.576-.96 1.336-.96 2.28 0 .944.32 1.712.96 2.304.64.576 1.456.864 2.448.864zm14.1409-7.512c.448-.624 1.048-1.096 1.8-1.416.768-.32 1.648-.48 2.64-.48v3.456c-.416-.032-.696-.048-.84-.048-1.072 0-1.912.304-2.52.912-.608.592-.912 1.488-.912 2.688V23h-3.744V10.088h3.576v1.704zm19.197 4.8c0 .048-.024.384-.072 1.008h-9.768c.176.8.592 1.432 1.248 1.896.656.464 1.472.696 2.448.696.672 0 1.264-.096 1.776-.288.528-.208 1.016-.528 1.464-.96l1.992 2.16c-1.216 1.392-2.992 2.088-5.328 2.088-1.456 0-2.744-.28-3.864-.84-1.12-.576-1.984-1.368-2.592-2.376-.608-1.008-.912-2.152-.912-3.432 0-1.264.296-2.4.888-3.408.608-1.024 1.432-1.816 2.472-2.376 1.056-.576 2.232-.864 3.528-.864 1.264 0 2.408.272 3.432.816 1.024.544 1.824 1.328 2.4 2.352.592 1.008.888 2.184.888 3.528zm-6.696-3.864c-.848 0-1.56.24-2.136.72-.576.48-.928 1.136-1.056 1.968h6.36c-.128-.816-.48-1.464-1.056-1.944-.576-.496-1.28-.744-2.112-.744zm13.532 10.464c-1.072 0-2.12-.128-3.144-.384-1.024-.272-1.84-.608-2.448-1.008l1.248-2.688c.576.368 1.272.672 2.088.912.816.224 1.616.336 2.4.336 1.584 0 2.376-.392 2.376-1.176 0-.368-.216-.632-.648-.792-.432-.16-1.096-.296-1.992-.408-1.056-.16-1.928-.344-2.616-.552-.688-.208-1.288-.576-1.8-1.104-.496-.528-.744-1.28-.744-2.256 0-.816.232-1.536.696-2.16.48-.64 1.168-1.136 2.064-1.488.912-.352 1.984-.528 3.216-.528.912 0 1.816.104 2.712.312.912.192 1.664.464 2.256.816l-1.248 2.664c-1.136-.64-2.376-.96-3.72-.96-.8 0-1.4.112-1.8.336-.4.224-.6.512-.6.864 0 .4.216.68.648.84.432.16 1.12.312 2.064.456 1.056.176 1.92.368 2.592.576.672.192 1.256.552 1.752 1.08s.744 1.264.744 2.208c0 .8-.24 1.512-.72 2.136-.48.624-1.184 1.112-2.112 1.464-.912.336-2 .504-3.264.504zm12.75 0c-1.072 0-2.12-.128-3.144-.384-1.024-.272-1.84-.608-2.448-1.008l1.248-2.688c.576.368 1.272.672 2.088.912.816.224 1.616.336 2.4.336 1.584 0 2.376-.392 2.376-1.176 0-.368-.216-.632-.648-.792-.432-.16-1.096-.296-1.992-.408-1.056-.16-1.928-.344-2.616-.552-.688-.208-1.288-.576-1.8-1.104-.496-.528-.744-1.28-.744-2.256 0-.816.232-1.536.696-2.16.48-.64 1.168-1.136 2.064-1.488.912-.352 1.984-.528 3.216-.528.912 0 1.816.104 2.712.312.912.192 1.664.464 2.256.816l-1.248 2.664c-1.136-.64-2.376-.96-3.72-.96-.8 0-1.4.112-1.8.336-.4.224-.6.512-.6.864 0 .4.216.68.648.84.432.16 1.12.312 2.064.456 1.056.176 1.92.368 2.592.576.672.192 1.256.552 1.752 1.08s.744 1.264.744 2.208c0 .8-.24 1.512-.72 2.136-.48.624-1.184 1.112-2.112 1.464-.912.336-2 .504-3.264.504z" fill="#1D2557"/></svg>