<svg width="147" height="72" viewBox="0 0 147 72" fill="none" xmlns="http://www.w3.org/2000/svg"><rect y="9.84058" width="147" height="49" rx="24.5" fill="#000" fill-opacity=".3"/><rect x=".5" y="7.5" width="146" height="48" rx="24" fill="#00CC6D" stroke="#00CC6D"/><path d="M57.5457 31.4094c.88.2786 1.5694.748 2.068 1.408.4987.6453.748 1.4446.748 2.398 0 1.3493-.528 2.3906-1.5839 3.124-1.0414.7186-2.5667 1.078-4.5761 1.078h-7.964v-15.4h7.524c1.8774 0 3.3147.3593 4.3121 1.078 1.012.7186 1.518 1.694 1.518 2.926 0 .748-.1834 1.4153-.5501 2.002-.352.5866-.8506 1.0486-1.496 1.386zm-7.766-4.708v3.63h3.542c.88 0 1.5474-.154 2.002-.462.4547-.308.682-.7627.682-1.364 0-.6014-.2273-1.0487-.682-1.342-.4546-.308-1.122-.462-2.002-.462h-3.542zm4.158 10.032c.9387 0 1.6427-.154 2.112-.462.484-.308.726-.7847.726-1.43 0-1.276-.946-1.914-2.838-1.914h-4.158v3.806h4.158zm13.3243-9.328c1.8333 0 3.2413.44 4.224 1.32.9827.8653 1.474 2.178 1.474 3.938v6.754h-3.212v-1.474c-.6453 1.1-1.848 1.65-3.608 1.65-.9093 0-1.7013-.154-2.376-.462-.66-.308-1.166-.7334-1.518-1.276-.352-.5427-.528-1.1587-.528-1.848 0-1.1.4107-1.9654 1.232-2.596.836-.6307 2.1193-.946 3.85-.946h2.728c0-.748-.2273-1.32-.682-1.716-.4547-.4107-1.1367-.616-2.046-.616-.6307 0-1.254.1026-1.87.308-.6013.1906-1.1147.4546-1.54.792l-1.232-2.398c.6453-.4547 1.4153-.8067 2.31-1.056.9093-.2494 1.8407-.374 2.794-.374zm-.264 9.878c.5867 0 1.1073-.132 1.562-.396.4547-.2787.7773-.682.968-1.21v-1.21h-2.354c-1.408 0-2.112.462-2.112 1.386 0 .44.1687.792.506 1.056.352.2493.8287.374 1.43.374zm14.587 2.31c-1.2613 0-2.398-.2567-3.41-.77-.9973-.528-1.782-1.254-2.354-2.178-.5573-.924-.836-1.9727-.836-3.146 0-1.1734.2787-2.222.836-3.146.572-.924 1.3567-1.6427 2.354-2.156 1.012-.528 2.1487-.792 3.41-.792 1.2467 0 2.332.264 3.256.792.9387.5133 1.6207 1.254 2.046 2.222l-2.662 1.43c-.616-1.0854-1.5033-1.628-2.662-1.628-.8946 0-1.6353.2933-2.222.88-.5866.5866-.88 1.386-.88 2.398 0 1.012.2934 1.8113.88 2.398.5867.5866 1.3274.88 2.222.88 1.1734 0 2.0607-.5427 2.662-1.628l2.662 1.452c-.4253.9386-1.1073 1.672-2.046 2.2-.924.528-2.0093.792-3.256.792zm11.9442-4.818l-1.65 1.628v3.014h-3.432v-16.324h3.432v9.24l5.016-4.752h4.0918l-4.9278 5.016 5.3678 6.82h-4.1578l-3.74-4.642z" fill="#F2F2F2"/></svg>