<svg width="1061" height="94" viewBox="0 0 1061 94" fill="none" xmlns="http://www.w3.org/2000/svg"><rect width="1061" height="94" rx="30" fill="#fff"/><path d="M31.6627 45.25c-1.7833 0-3.3917-.3833-4.825-1.15-1.4333-.7833-2.5583-1.8583-3.375-3.225-.8167-1.3833-1.225-2.925-1.225-4.625 0-1.7.4083-3.2333 1.225-4.6.8167-1.3833 1.9417-2.4583 3.375-3.225 1.4333-.7833 3.0417-1.175 4.825-1.175s3.3917.3917 4.825 1.175c1.4333.7667 2.5583 1.8333 3.375 3.2.8167 1.3667 1.225 2.9083 1.225 4.625s-.4083 3.2583-1.225 4.625c-.8167 1.3667-1.9417 2.4417-3.375 3.225-1.4333.7667-3.0417 1.15-4.825 1.15zm0-2.85c1.1667 0 2.2167-.2583 3.15-.775.9333-.5333 1.6667-1.2667 2.2-2.2.5333-.95.8-2.0083.8-3.175 0-1.1667-.2667-2.2167-.8-3.15-.5333-.95-1.2667-1.6833-2.2-2.2-.9333-.5333-1.9833-.8-3.15-.8-1.1667 0-2.2167.2667-3.15.8-.9333.5167-1.6667 1.25-2.2 2.2-.5333.9333-.8 1.9833-.8 3.15 0 1.1667.2667 2.225.8 3.175.5333.9333 1.2667 1.6667 2.2 2.2.9333.5167 1.9833.775 3.15.775zm20.1449-10.9c1.6834 0 3.0334.4917 4.05 1.475 1.0167.9833 1.525 2.4417 1.525 4.375V45h-3.125v-7.25c0-1.1667-.275-2.0417-.825-2.625-.55-.6-1.3333-.9-2.35-.9-1.15 0-2.0583.35-2.725 1.05-.6666.6833-1 1.675-1 2.975V45h-3.125V31.65h2.975v1.725c.5167-.6167 1.1667-1.0833 1.95-1.4.7834-.3167 1.6667-.475 2.65-.475zm9.5393-5.05h3.125V45h-3.125V26.45zm19.7265 5.2l-6.25 14.425c-.5833 1.45-1.2916 2.4667-2.125 3.05-.8333.6-1.8416.9-3.025.9-.6666 0-1.325-.1083-1.975-.325-.65-.2167-1.1833-.5167-1.6-.9l1.25-2.3c.3.2833.65.5083 1.05.675.4167.1667.8334.25 1.25.25.55 0 1-.1417 1.35-.425.3667-.2833.7-.7583 1-1.425l.225-.525-5.825-13.4h3.25l4.2 9.875 4.225-9.875h3zm16.2623-.15c1.3 0 2.4584.2833 3.4753.85 1.033.5667 1.841 1.3667 2.425 2.4.583 1.0333.875 2.225.875 3.575s-.292 2.55-.875 3.6c-.584 1.0333-1.392 1.8333-2.425 2.4-1.0169.5667-2.1753.85-3.4753.85-1.8 0-3.225-.6-4.275-1.8v6.475h-3.125v-18.2h2.975v1.75c.5167-.6333 1.15-1.1083 1.9-1.425.7667-.3167 1.6084-.475 2.525-.475zm-.35 11c1.15 0 2.0917-.3833 2.825-1.15.7503-.7667 1.1253-1.775 1.1253-3.025s-.375-2.2583-1.1253-3.025c-.7333-.7667-1.675-1.15-2.825-1.15-.75 0-1.425.175-2.025.525-.6.3333-1.075.8167-1.425 1.45-.35.6333-.525 1.3667-.525 2.2 0 .8333.175 1.5667.525 2.2.35.6333.825 1.125 1.425 1.475.6.3333 1.275.5 2.025.5zm10.0883-16.05h3.125V45h-3.125V26.45zm12.327 5.05c1.967 0 3.467.475 4.5 1.425 1.05.9333 1.575 2.35 1.575 4.25V45h-2.95v-1.625c-.383.5833-.933 1.0333-1.65 1.35-.7.3-1.55.45-2.55.45-1 0-1.875-.1667-2.625-.5-.75-.35-1.333-.825-1.75-1.425-.4-.6167-.6-1.3083-.6-2.075 0-1.2.442-2.1583 1.325-2.875.9-.7333 2.308-1.1 4.225-1.1h3.45V37c0-.9333-.283-1.65-.85-2.15-.55-.5-1.375-.75-2.475-.75-.75 0-1.492.1167-2.225.35-.717.2333-1.325.5583-1.825.975l-1.225-2.275c.7-.5333 1.542-.9417 2.525-1.225.983-.2833 2.025-.425 3.125-.425zm-.425 11.4c.783 0 1.475-.175 2.075-.525.617-.3667 1.05-.8833 1.3-1.55v-1.55h-3.225c-1.8 0-2.7.5917-2.7 1.775 0 .5667.225 1.0167.675 1.35.45.3333 1.075.5 1.875.5zm18.086-11.4c1.683 0 3.033.4917 4.05 1.475 1.016.9833 1.525 2.4417 1.525 4.375V45h-3.125v-7.25c0-1.1667-.275-2.0417-.825-2.625-.55-.6-1.334-.9-2.35-.9-1.15 0-2.059.35-2.725 1.05-.667.6833-1 1.675-1 2.975V45h-3.125V31.65h2.975v1.725c.516-.6167 1.166-1.0833 1.95-1.4.783-.3167 1.666-.475 2.65-.475zm17.564 12.775c-.367.3-.817.525-1.35.675-.517.15-1.067.225-1.65.225-1.467 0-2.6-.3833-3.4-1.15-.8-.7667-1.2-1.8833-1.2-3.35V34.25h-2.2v-2.5h2.2V28.7h3.125v3.05h3.575v2.5h-3.575v6.35c0 .65.158 1.15.475 1.5.316.3333.775.5 1.375.5.7 0 1.283-.1833 1.75-.55l.875 2.225zm16.88-12.775c1.3 0 2.458.2833 3.475.85 1.033.5667 1.841 1.3667 2.425 2.4.583 1.0333.875 2.225.875 3.575s-.292 2.55-.875 3.6c-.584 1.0333-1.392 1.8333-2.425 2.4-1.017.5667-2.175.85-3.475.85-.917 0-1.759-.1583-2.525-.475-.75-.3167-1.384-.7917-1.9-1.425V45h-2.975V26.45h3.125v6.825c.533-.5833 1.158-1.025 1.875-1.325.733-.3 1.533-.45 2.4-.45zm-.35 11c1.15 0 2.091-.3833 2.825-1.15.75-.7667 1.125-1.775 1.125-3.025s-.375-2.2583-1.125-3.025c-.734-.7667-1.675-1.15-2.825-1.15-.75 0-1.425.175-2.025.525-.6.3333-1.075.8167-1.425 1.45-.35.6333-.525 1.3667-.525 2.2 0 .8333.175 1.5667.525 2.2.35.6333.825 1.125 1.425 1.475.6.3333 1.275.5 2.025.5zm15.017-11c1.967 0 3.467.475 4.5 1.425 1.05.9333 1.575 2.35 1.575 4.25V45h-2.95v-1.625c-.383.5833-.933 1.0333-1.65 1.35-.7.3-1.55.45-2.55.45-1 0-1.875-.1667-2.625-.5-.75-.35-1.333-.825-1.75-1.425-.4-.6167-.6-1.3083-.6-2.075 0-1.2.442-2.1583 1.325-2.875.9-.7333 2.309-1.1 4.225-1.1h3.45V37c0-.9333-.283-1.65-.85-2.15-.55-.5-1.375-.75-2.475-.75-.75 0-1.491.1167-2.225.35-.716.2333-1.325.5583-1.825.975l-1.225-2.275c.7-.5333 1.542-.9417 2.525-1.225.984-.2833 2.025-.425 3.125-.425zm-.425 11.4c.784 0 1.475-.175 2.075-.525.617-.3667 1.05-.8833 1.3-1.55v-1.55h-3.225c-1.8 0-2.7.5917-2.7 1.775 0 .5667.225 1.0167.675 1.35.45.3333 1.075.5 1.875.5zm14.636 2.275c-1.083 0-2.142-.1417-3.175-.425s-1.858-.6417-2.475-1.075l1.2-2.375c.6.4 1.317.725 2.15.975.85.2333 1.683.35 2.5.35 1.867 0 2.8-.4917 2.8-1.475 0-.4667-.242-.7917-.725-.975-.467-.1833-1.225-.3583-2.275-.525-1.1-.1667-2-.3583-2.7-.575-.683-.2167-1.283-.5917-1.8-1.125-.5-.55-.75-1.3083-.75-2.275 0-1.2667.525-2.275 1.575-3.025 1.067-.7667 2.5-1.15 4.3-1.15.917 0 1.833.1083 2.75.325.917.2 1.667.475 2.25.825l-1.2 2.375c-1.133-.6667-2.408-1-3.825-1-.917 0-1.617.1417-2.1.425-.467.2667-.7.625-.7 1.075 0 .5.25.8583.75 1.075.517.2 1.308.3917 2.375.575 1.067.1667 1.942.3583 2.625.575.683.2167 1.267.5833 1.75 1.1.5.5167.75 1.25.75 2.2 0 1.25-.542 2.25-1.625 3s-2.558 1.125-4.425 1.125zm21.291-6.775c0 .2167-.016.525-.05.925H211.15c.184.9833.659 1.7667 1.425 2.35.784.5667 1.75.85 2.9.85 1.467 0 2.675-.4833 3.625-1.45L220.775 43c-.6.7167-1.358 1.2583-2.275 1.625-.916.3667-1.95.55-3.1.55-1.466 0-2.758-.2917-3.875-.875-1.116-.5833-1.983-1.3917-2.6-2.425-.6-1.05-.9-2.2333-.9-3.55 0-1.3.292-2.4667.875-3.5.6-1.05 1.425-1.8667 2.475-2.45 1.05-.5833 2.234-.875 3.55-.875 1.3 0 2.459.2917 3.475.875 1.034.5667 1.834 1.375 2.4 2.425.584 1.0333.875 2.2333.875 3.6zm-6.75-4.4c-1 0-1.85.3-2.55.9-.683.5833-1.1 1.3667-1.25 2.35h7.575c-.133-.9667-.541-1.75-1.225-2.35-.683-.6-1.533-.9-2.55-.9zm22.827-7.55V45h-3v-1.725c-.517.6333-1.158 1.1083-1.925 1.425-.75.3167-1.583.475-2.5.475-1.283 0-2.442-.2833-3.475-.85-1.017-.5667-1.817-1.3667-2.4-2.4-.583-1.05-.875-2.25-.875-3.6s.292-2.5417.875-3.575 1.383-1.8333 2.4-2.4c1.033-.5667 2.192-.85 3.475-.85.883 0 1.692.15 2.425.45.733.3 1.358.75 1.875 1.35v-6.85h3.125zm-7.05 16.05c.75 0 1.425-.1667 2.025-.5.6-.35 1.075-.8417 1.425-1.475.35-.6333.525-1.3667.525-2.2 0-.8333-.175-1.5667-.525-2.2-.35-.6333-.825-1.1167-1.425-1.45-.6-.35-1.275-.525-2.025-.525s-1.425.175-2.025.525c-.6.3333-1.075.8167-1.425 1.45-.35.6333-.525 1.3667-.525 2.2 0 .8333.175 1.5667.525 2.2.35.6333.825 1.125 1.425 1.475.6.3333 1.275.5 2.025.5zm34.897-11c1.684 0 3.017.4917 4 1.475.984.9667 1.475 2.425 1.475 4.375V45h-3.125v-7.25c0-1.1667-.258-2.0417-.775-2.625-.516-.6-1.258-.9-2.225-.9-1.05 0-1.891.35-2.525 1.05-.633.6833-.95 1.6667-.95 2.95V45h-3.125v-7.25c0-1.1667-.258-2.0417-.775-2.625-.516-.6-1.258-.9-2.225-.9-1.066 0-1.916.3417-2.55 1.025-.616.6833-.925 1.675-.925 2.975V45h-3.125V31.65h2.975v1.7c.5-.6 1.125-1.0583 1.875-1.375s1.584-.475 2.5-.475c1 0 1.884.1917 2.65.575.784.3667 1.4.9167 1.85 1.65.55-.7 1.259-1.2417 2.125-1.625.867-.4 1.825-.6 2.875-.6zm14.569 0c1.966 0 3.466.475 4.5 1.425 1.05.9333 1.575 2.35 1.575 4.25V45h-2.95v-1.625c-.384.5833-.934 1.0333-1.65 1.35-.7.3-1.55.45-2.55.45-1 0-1.875-.1667-2.625-.5-.75-.35-1.334-.825-1.75-1.425-.4-.6167-.6-1.3083-.6-2.075 0-1.2.441-2.1583 1.325-2.875.9-.7333 2.308-1.1 4.225-1.1h3.45V37c0-.9333-.284-1.65-.85-2.15-.55-.5-1.375-.75-2.475-.75-.75 0-1.492.1167-2.225.35-.717.2333-1.325.5583-1.825.975l-1.225-2.275c.7-.5333 1.541-.9417 2.525-1.225.983-.2833 2.025-.425 3.125-.425zm-.425 11.4c.783 0 1.475-.175 2.075-.525.616-.3667 1.05-.8833 1.3-1.55v-1.55h-3.225c-1.8 0-2.7.5917-2.7 1.775 0 .5667.225 1.0167.675 1.35.45.3333 1.075.5 1.875.5zm18.535 1.375c-.367.3-.817.525-1.35.675-.517.15-1.067.225-1.65.225-1.467 0-2.6-.3833-3.4-1.15-.8-.7667-1.2-1.8833-1.2-3.35V34.25h-2.2v-2.5h2.2V28.7h3.125v3.05h3.575v2.5h-3.575v6.35c0 .65.158 1.15.475 1.5.317.3333.775.5 1.375.5.7 0 1.283-.1833 1.75-.55l.875 2.225zm14.681-5.875c0 .2167-.016.525-.05.925h-10.475c.184.9833.659 1.7667 1.425 2.35.784.5667 1.75.85 2.9.85 1.467 0 2.675-.4833 3.625-1.45L312.059 43c-.6.7167-1.358 1.2583-2.275 1.625-.916.3667-1.95.55-3.1.55-1.466 0-2.758-.2917-3.875-.875-1.116-.5833-1.983-1.3917-2.6-2.425-.6-1.05-.9-2.2333-.9-3.55 0-1.3.292-2.4667.875-3.5.6-1.05 1.425-1.8667 2.475-2.45 1.05-.5833 2.234-.875 3.55-.875 1.3 0 2.459.2917 3.475.875 1.034.5667 1.834 1.375 2.4 2.425.584 1.0333.875 2.2333.875 3.6zm-6.75-4.4c-1 0-1.85.3-2.55.9-.683.5833-1.1 1.3667-1.25 2.35h7.575c-.133-.9667-.541-1.75-1.225-2.35-.683-.6-1.533-.9-2.55-.9zm12.727-.4c.9-1.4 2.483-2.1 4.75-2.1v2.975c-.267-.05-.508-.075-.725-.075-1.217 0-2.167.3583-2.85 1.075-.683.7-1.025 1.7167-1.025 3.05V45h-3.125V31.65h2.975v1.95zm7.401-1.95h3.125V45h-3.125V31.65zm1.575-2.2c-.567 0-1.042-.175-1.425-.525-.383-.3667-.575-.8167-.575-1.35 0-.5333.192-.975.575-1.325.383-.3667.858-.55 1.425-.55.567 0 1.042.175 1.425.525.383.3333.575.7583.575 1.275 0 .55-.192 1.0167-.575 1.4-.367.3667-.842.55-1.425.55zm10.752 2.05c1.966 0 3.466.475 4.5 1.425 1.05.9333 1.575 2.35 1.575 4.25V45h-2.95v-1.625c-.384.5833-.934 1.0333-1.65 1.35-.7.3-1.55.45-2.55.45-1 0-1.875-.1667-2.625-.5-.75-.35-1.334-.825-1.75-1.425-.4-.6167-.6-1.3083-.6-2.075 0-1.2.441-2.1583 1.325-2.875.9-.7333 2.308-1.1 4.225-1.1h3.45V37c0-.9333-.284-1.65-.85-2.15-.55-.5-1.375-.75-2.475-.75-.75 0-1.492.1167-2.225.35-.717.2333-1.325.5583-1.825.975l-1.225-2.275c.7-.5333 1.541-.9417 2.525-1.225.983-.2833 2.025-.425 3.125-.425zm-.425 11.4c.783 0 1.475-.175 2.075-.525.616-.3667 1.05-.8833 1.3-1.55v-1.55h-3.225c-1.8 0-2.7.5917-2.7 1.775 0 .5667.225 1.0167.675 1.35.45.3333 1.075.5 1.875.5zm10.51-16.45h3.125V45h-3.125V26.45zm14.136 5.2h3.125V45h-3.125V31.65zm1.575-2.2c-.567 0-1.042-.175-1.425-.525-.383-.3667-.575-.8167-.575-1.35 0-.5333.192-.975.575-1.325.383-.3667.858-.55 1.425-.55.567 0 1.042.175 1.425.525.383.3333.575.7583.575 1.275 0 .55-.192 1.0167-.575 1.4-.367.3667-.842.55-1.425.55zm9.777 15.725c-1.084 0-2.142-.1417-3.175-.425-1.034-.2833-1.859-.6417-2.475-1.075l1.2-2.375c.6.4 1.316.725 2.15.975.85.2333 1.683.35 2.5.35 1.866 0 2.8-.4917 2.8-1.475 0-.4667-.242-.7917-.725-.975-.467-.1833-1.225-.3583-2.275-.525-1.1-.1667-2-.3583-2.7-.575-.684-.2167-1.284-.5917-1.8-1.125-.5-.55-.75-1.3083-.75-2.275 0-1.2667.525-2.275 1.575-3.025 1.066-.7667 2.5-1.15 4.3-1.15.916 0 1.833.1083 2.75.325.916.2 1.666.475 2.25.825l-1.2 2.375c-1.134-.6667-2.409-1-3.825-1-.917 0-1.617.1417-2.1.425-.467.2667-.7.625-.7 1.075 0 .5.25.8583.75 1.075.516.2 1.308.3917 2.375.575 1.066.1667 1.941.3583 2.625.575.683.2167 1.266.5833 1.75 1.1.5.5167.75 1.25.75 2.2 0 1.25-.542 2.25-1.625 3-1.084.75-2.559 1.125-4.425 1.125zm21.775 0c-1.383 0-2.625-.2917-3.725-.875-1.1-.5833-1.958-1.3917-2.575-2.425-.617-1.05-.925-2.2333-.925-3.55s.308-2.4917.925-3.525 1.467-1.8417 2.55-2.425c1.1-.5833 2.35-.875 3.75-.875 1.317 0 2.467.2667 3.45.8 1 .5333 1.75 1.3 2.25 2.3l-2.4 1.4c-.383-.6167-.867-1.075-1.45-1.375-.567-.3167-1.192-.475-1.875-.475-1.167 0-2.133.3833-2.9 1.15-.767.75-1.15 1.7583-1.15 3.025s.375 2.2833 1.125 3.05c.767.75 1.742 1.125 2.925 1.125.683 0 1.308-.15 1.875-.45.583-.3167 1.067-.7833 1.45-1.4l2.4 1.4c-.517 1-1.275 1.775-2.275 2.325-.983.5333-2.125.8-3.425.8zm14.206 0c-1.35 0-2.567-.2917-3.65-.875-1.083-.5833-1.933-1.3917-2.55-2.425-.6-1.05-.9-2.2333-.9-3.55s.3-2.4917.9-3.525c.617-1.0333 1.467-1.8417 2.55-2.425 1.083-.5833 2.3-.875 3.65-.875 1.367 0 2.592.2917 3.675.875 1.083.5833 1.925 1.3917 2.525 2.425.617 1.0333.925 2.2083.925 3.525s-.308 2.5-.925 3.55c-.6 1.0333-1.442 1.8417-2.525 2.425-1.083.5833-2.308.875-3.675.875zm0-2.675c1.15 0 2.1-.3833 2.85-1.15.75-.7667 1.125-1.775 1.125-3.025s-.375-2.2583-1.125-3.025c-.75-.7667-1.7-1.15-2.85-1.15-1.15 0-2.1.3833-2.85 1.15-.733.7667-1.1 1.775-1.1 3.025s.367 2.2583 1.1 3.025c.75.7667 1.7 1.15 2.85 1.15zm26.963-11c1.684 0 3.017.4917 4 1.475.984.9667 1.475 2.425 1.475 4.375V45h-3.125v-7.25c0-1.1667-.258-2.0417-.775-2.625-.516-.6-1.258-.9-2.225-.9-1.05 0-1.891.35-2.525 1.05-.633.6833-.95 1.6667-.95 2.95V45h-3.125v-7.25c0-1.1667-.258-2.0417-.775-2.625-.516-.6-1.258-.9-2.225-.9-1.066 0-1.916.3417-2.55 1.025-.616.6833-.925 1.675-.925 2.975V45h-3.125V31.65h2.975v1.7c.5-.6 1.125-1.0583 1.875-1.375s1.584-.475 2.5-.475c1 0 1.884.1917 2.65.575.784.3667 1.4.9167 1.85 1.65.55-.7 1.259-1.2417 2.125-1.625.867-.4 1.825-.6 2.875-.6zm16.869 0c1.3 0 2.458.2833 3.475.85 1.033.5667 1.841 1.3667 2.425 2.4.583 1.0333.875 2.225.875 3.575s-.292 2.55-.875 3.6c-.584 1.0333-1.392 1.8333-2.425 2.4-1.017.5667-2.175.85-3.475.85-1.8 0-3.225-.6-4.275-1.8v6.475h-3.125v-18.2h2.975v1.75c.516-.6333 1.15-1.1083 1.9-1.425.766-.3167 1.608-.475 2.525-.475zm-.35 11c1.15 0 2.091-.3833 2.825-1.15.75-.7667 1.125-1.775 1.125-3.025s-.375-2.2583-1.125-3.025c-.734-.7667-1.675-1.15-2.825-1.15-.75 0-1.425.175-2.025.525-.6.3333-1.075.8167-1.425 1.45-.35.6333-.525 1.3667-.525 2.2 0 .8333.175 1.5667.525 2.2.35.6333.825 1.125 1.425 1.475.6.3333 1.275.5 2.025.5zm16.088 2.675c-1.35 0-2.566-.2917-3.65-.875-1.083-.5833-1.933-1.3917-2.55-2.425-.6-1.05-.9-2.2333-.9-3.55s.3-2.4917.9-3.525c.617-1.0333 1.467-1.8417 2.55-2.425 1.084-.5833 2.3-.875 3.65-.875 1.367 0 2.592.2917 3.675.875 1.084.5833 1.925 1.3917 2.525 2.425.617 1.0333.925 2.2083.925 3.525s-.308 2.5-.925 3.55c-.6 1.0333-1.441 1.8417-2.525 2.425-1.083.5833-2.308.875-3.675.875zm0-2.675c1.15 0 2.1-.3833 2.85-1.15.75-.7667 1.125-1.775 1.125-3.025s-.375-2.2583-1.125-3.025c-.75-.7667-1.7-1.15-2.85-1.15-1.15 0-2.1.3833-2.85 1.15-.733.7667-1.1 1.775-1.1 3.025s.367 2.2583 1.1 3.025c.75.7667 1.7 1.15 2.85 1.15zm14.239 2.675c-1.084 0-2.142-.1417-3.175-.425-1.034-.2833-1.859-.6417-2.475-1.075l1.2-2.375c.6.4 1.316.725 2.15.975.85.2333 1.683.35 2.5.35 1.866 0 2.8-.4917 2.8-1.475 0-.4667-.242-.7917-.725-.975-.467-.1833-1.225-.3583-2.275-.525-1.1-.1667-2-.3583-2.7-.575-.684-.2167-1.284-.5917-1.8-1.125-.5-.55-.75-1.3083-.75-2.275 0-1.2667.525-2.275 1.575-3.025 1.066-.7667 2.5-1.15 4.3-1.15.916 0 1.833.1083 2.75.325.916.2 1.666.475 2.25.825l-1.2 2.375c-1.134-.6667-2.409-1-3.825-1-.917 0-1.617.1417-2.1.425-.467.2667-.7.625-.7 1.075 0 .5.25.8583.75 1.075.516.2 1.308.3917 2.375.575 1.066.1667 1.941.3583 2.625.575.683.2167 1.266.5833 1.75 1.1.5.5167.75 1.25.75 2.2 0 1.25-.542 2.25-1.625 3-1.084.75-2.559 1.125-4.425 1.125zm16.766-.9c-.367.3-.817.525-1.35.675-.517.15-1.067.225-1.65.225-1.467 0-2.6-.3833-3.4-1.15-.8-.7667-1.2-1.8833-1.2-3.35V34.25h-2.2v-2.5h2.2V28.7h3.125v3.05h3.575v2.5h-3.575v6.35c0 .65.158 1.15.475 1.5.316.3333.775.5 1.375.5.7 0 1.283-.1833 1.75-.55l.875 2.225zm14.681-5.875c0 .2167-.017.525-.05.925h-10.475c.183.9833.658 1.7667 1.425 2.35.783.5667 1.75.85 2.9.85 1.467 0 2.675-.4833 3.625-1.45L514.574 43c-.6.7167-1.358 1.2583-2.275 1.625-.917.3667-1.95.55-3.1.55-1.467 0-2.758-.2917-3.875-.875-1.117-.5833-1.983-1.3917-2.6-2.425-.6-1.05-.9-2.2333-.9-3.55 0-1.3.292-2.4667.875-3.5.6-1.05 1.425-1.8667 2.475-2.45 1.05-.5833 2.233-.875 3.55-.875 1.3 0 2.458.2917 3.475.875 1.033.5667 1.833 1.375 2.4 2.425.583 1.0333.875 2.2333.875 3.6zm-6.75-4.4c-1 0-1.85.3-2.55.9-.683.5833-1.1 1.3667-1.25 2.35h7.575c-.133-.9667-.542-1.75-1.225-2.35-.683-.6-1.533-.9-2.55-.9zm22.827-7.55V45h-3v-1.725c-.517.6333-1.159 1.1083-1.925 1.425-.75.3167-1.584.475-2.5.475-1.284 0-2.442-.2833-3.475-.85-1.017-.5667-1.817-1.3667-2.4-2.4-.584-1.05-.875-2.25-.875-3.6s.291-2.5417.875-3.575c.583-1.0333 1.383-1.8333 2.4-2.4 1.033-.5667 2.191-.85 3.475-.85.883 0 1.691.15 2.425.45.733.3 1.358.75 1.875 1.35v-6.85h3.125zm-7.05 16.05c.75 0 1.425-.1667 2.025-.5.6-.35 1.075-.8417 1.425-1.475.35-.6333.525-1.3667.525-2.2 0-.8333-.175-1.5667-.525-2.2-.35-.6333-.825-1.1167-1.425-1.45-.6-.35-1.275-.525-2.025-.525s-1.425.175-2.025.525c-.6.3333-1.075.8167-1.425 1.45-.35.6333-.525 1.3667-.525 2.2 0 .8333.175 1.5667.525 2.2.35.6333.825 1.125 1.425 1.475.6.3333 1.275.5 2.025.5zm12.138 2.675c-.567 0-1.05-.1917-1.45-.575-.4-.4-.6-.9-.6-1.5 0-.6167.192-1.1167.575-1.5.4-.3833.892-.575 1.475-.575.583 0 1.067.1917 1.45.575.4.3833.6.8833.6 1.5 0 .6-.2 1.1-.6 1.5-.4.3833-.883.575-1.45.575zM565.027 45l-.025-11.6-5.75 9.6h-1.45l-5.75-9.45V45h-3.1V27.5h2.675l6.95 11.6 6.825-11.6h2.675l.025 17.5h-3.075zm20.052-6.6c0 .2167-.017.525-.05.925h-10.475c.183.9833.658 1.7667 1.425 2.35.783.5667 1.75.85 2.9.85 1.466 0 2.675-.4833 3.625-1.45L584.179 43c-.6.7167-1.359 1.2583-2.275 1.625-.917.3667-1.95.55-3.1.55-1.467 0-2.759-.2917-3.875-.875-1.117-.5833-1.984-1.3917-2.6-2.425-.6-1.05-.9-2.2333-.9-3.55 0-1.3.291-2.4667.875-3.5.6-1.05 1.425-1.8667 2.475-2.45 1.05-.5833 2.233-.875 3.55-.875 1.3 0 2.458.2917 3.475.875 1.033.5667 1.833 1.375 2.4 2.425.583 1.0333.875 2.2333.875 3.6zm-6.75-4.4c-1 0-1.85.3-2.55.9-.684.5833-1.1 1.3667-1.25 2.35h7.575c-.134-.9667-.542-1.75-1.225-2.35-.684-.6-1.534-.9-2.55-.9zm14.485-2.5c1.967 0 3.467.475 4.5 1.425 1.05.9333 1.575 2.35 1.575 4.25V45h-2.95v-1.625c-.383.5833-.933 1.0333-1.65 1.35-.7.3-1.55.45-2.55.45-1 0-1.875-.1667-2.625-.5-.75-.35-1.333-.825-1.75-1.425-.4-.6167-.6-1.3083-.6-2.075 0-1.2.442-2.1583 1.325-2.875.9-.7333 2.308-1.1 4.225-1.1h3.45V37c0-.9333-.283-1.65-.85-2.15-.55-.5-1.375-.75-2.475-.75-.75 0-1.492.1167-2.225.35-.717.2333-1.325.5583-1.825.975l-1.225-2.275c.7-.5333 1.542-.9417 2.525-1.225.983-.2833 2.025-.425 3.125-.425zm-.425 11.4c.783 0 1.475-.175 2.075-.525.617-.3667 1.05-.8833 1.3-1.55v-1.55h-3.225c-1.8 0-2.7.5917-2.7 1.775 0 .5667.225 1.0167.675 1.35.45.3333 1.075.5 1.875.5zm18.536 1.375c-.367.3-.817.525-1.35.675-.517.15-1.067.225-1.65.225-1.467 0-2.6-.3833-3.4-1.15-.8-.7667-1.2-1.8833-1.2-3.35V34.25h-2.2v-2.5h2.2V28.7h3.125v3.05h3.575v2.5h-3.575v6.35c0 .65.158 1.15.475 1.5.316.3333.775.5 1.375.5.7 0 1.283-.1833 1.75-.55l.875 2.225zM625.504 31.5c1.967 0 3.467.475 4.5 1.425 1.05.9333 1.575 2.35 1.575 4.25V45h-2.95v-1.625c-.383.5833-.933 1.0333-1.65 1.35-.7.3-1.55.45-2.55.45-1 0-1.875-.1667-2.625-.5-.75-.35-1.333-.825-1.75-1.425-.4-.6167-.6-1.3083-.6-2.075 0-1.2.442-2.1583 1.325-2.875.9-.7333 2.309-1.1 4.225-1.1h3.45V37c0-.9333-.283-1.65-.85-2.15-.55-.5-1.375-.75-2.475-.75-.75 0-1.491.1167-2.225.35-.716.2333-1.325.5583-1.825.975l-1.225-2.275c.7-.5333 1.542-.9417 2.525-1.225.984-.2833 2.025-.425 3.125-.425zm-.425 11.4c.784 0 1.475-.175 2.075-.525.617-.3667 1.05-.8833 1.3-1.55v-1.55h-3.225c-1.8 0-2.7.5917-2.7 1.775 0 .5667.225 1.0167.675 1.35.45.3333 1.075.5 1.875.5zm18.086-11.4c1.683 0 3.033.4917 4.05 1.475 1.017.9833 1.525 2.4417 1.525 4.375V45h-3.125v-7.25c0-1.1667-.275-2.0417-.825-2.625-.55-.6-1.333-.9-2.35-.9-1.15 0-2.058.35-2.725 1.05-.667.6833-1 1.675-1 2.975V45h-3.125V31.65h2.975v1.725c.517-.6167 1.167-1.0833 1.95-1.4.783-.3167 1.667-.475 2.65-.475zm22.736-5.05V45h-3v-1.725c-.516.6333-1.158 1.1083-1.925 1.425-.75.3167-1.583.475-2.5.475-1.283 0-2.441-.2833-3.475-.85-1.016-.5667-1.816-1.3667-2.4-2.4-.583-1.05-.875-2.25-.875-3.6s.292-2.5417.875-3.575c.584-1.0333 1.384-1.8333 2.4-2.4 1.034-.5667 2.192-.85 3.475-.85.884 0 1.692.15 2.425.45.734.3 1.359.75 1.875 1.35v-6.85h3.125zm-7.05 16.05c.75 0 1.425-.1667 2.025-.5.6-.35 1.075-.8417 1.425-1.475.35-.6333.525-1.3667.525-2.2 0-.8333-.175-1.5667-.525-2.2-.35-.6333-.825-1.1167-1.425-1.45-.6-.35-1.275-.525-2.025-.525s-1.425.175-2.025.525c-.6.3333-1.075.8167-1.425 1.45-.35.6333-.525 1.3667-.525 2.2 0 .8333.175 1.5667.525 2.2.35.6333.825 1.125 1.425 1.475.6.3333 1.275.5 2.025.5zm31.123-16.05V45h-3v-1.725c-.517.6333-1.159 1.1083-1.925 1.425-.75.3167-1.584.475-2.5.475-1.284 0-2.442-.2833-3.475-.85-1.017-.5667-1.817-1.3667-2.4-2.4-.584-1.05-.875-2.25-.875-3.6s.291-2.5417.875-3.575c.583-1.0333 1.383-1.8333 2.4-2.4 1.033-.5667 2.191-.85 3.475-.85.883 0 1.691.15 2.425.45.733.3 1.358.75 1.875 1.35v-6.85h3.125zm-7.05 16.05c.75 0 1.425-.1667 2.025-.5.6-.35 1.075-.8417 1.425-1.475.35-.6333.525-1.3667.525-2.2 0-.8333-.175-1.5667-.525-2.2-.35-.6333-.825-1.1167-1.425-1.45-.6-.35-1.275-.525-2.025-.525s-1.425.175-2.025.525c-.6.3333-1.075.8167-1.425 1.45-.35.6333-.525 1.3667-.525 2.2 0 .8333.175 1.5667.525 2.2.35.6333.825 1.125 1.425 1.475.6.3333 1.275.5 2.025.5zm16.238-11c1.966 0 3.466.475 4.5 1.425 1.05.9333 1.575 2.35 1.575 4.25V45h-2.95v-1.625c-.384.5833-.934 1.0333-1.65 1.35-.7.3-1.55.45-2.55.45-1 0-1.875-.1667-2.625-.5-.75-.35-1.334-.825-1.75-1.425-.4-.6167-.6-1.3083-.6-2.075 0-1.2.441-2.1583 1.325-2.875.9-.7333 2.308-1.1 4.225-1.1h3.45V37c0-.9333-.284-1.65-.85-2.15-.55-.5-1.375-.75-2.475-.75-.75 0-1.492.1167-2.225.35-.717.2333-1.325.5583-1.825.975l-1.225-2.275c.7-.5333 1.541-.9417 2.525-1.225.983-.2833 2.025-.425 3.125-.425zm-.425 11.4c.783 0 1.475-.175 2.075-.525.616-.3667 1.05-.8833 1.3-1.55v-1.55h-3.225c-1.8 0-2.7.5917-2.7 1.775 0 .5667.225 1.0167.675 1.35.45.3333 1.075.5 1.875.5zm10.51-11.25h3.125V45h-3.125V31.65zm1.575-2.2c-.566 0-1.041-.175-1.425-.525-.383-.3667-.575-.8167-.575-1.35 0-.5333.192-.975.575-1.325.384-.3667.859-.55 1.425-.55.567 0 1.042.175 1.425.525.384.3333.575.7583.575 1.275 0 .55-.191 1.0167-.575 1.4-.366.3667-.841.55-1.425.55zm8.627 4.15c.9-1.4 2.483-2.1 4.75-2.1v2.975c-.267-.05-.509-.075-.725-.075-1.217 0-2.167.3583-2.85 1.075-.684.7-1.025 1.7167-1.025 3.05V45h-3.125V31.65h2.975v1.95zm20.389-1.95l-6.25 14.425c-.583 1.45-1.292 2.4667-2.125 3.05-.833.6-1.842.9-3.025.9-.667 0-1.325-.1083-1.975-.325-.65-.2167-1.183-.5167-1.6-.9l1.25-2.3c.3.2833.65.5083 1.05.675.417.1667.833.25 1.25.25.55 0 1-.1417 1.35-.425.367-.2833.7-.7583 1-1.425l.225-.525-5.825-13.4h3.25l4.2 9.875 4.225-9.875h3zm13.962-.15c1.967 0 3.467.475 4.5 1.425 1.05.9333 1.575 2.35 1.575 4.25V45h-2.95v-1.625c-.383.5833-.933 1.0333-1.65 1.35-.7.3-1.55.45-2.55.45-1 0-1.875-.1667-2.625-.5-.75-.35-1.333-.825-1.75-1.425-.4-.6167-.6-1.3083-.6-2.075 0-1.2.442-2.1583 1.325-2.875.9-.7333 2.309-1.1 4.225-1.1h3.45V37c0-.9333-.283-1.65-.85-2.15-.55-.5-1.375-.75-2.475-.75-.75 0-1.491.1167-2.225.35-.716.2333-1.325.5583-1.825.975l-1.225-2.275c.7-.5333 1.542-.9417 2.525-1.225.984-.2833 2.025-.425 3.125-.425zm-.425 11.4c.784 0 1.475-.175 2.075-.525.617-.3667 1.05-.8833 1.3-1.55v-1.55h-3.225c-1.8 0-2.7.5917-2.7 1.775 0 .5667.225 1.0167.675 1.35.45.3333 1.075.5 1.875.5zm18.536 1.375c-.367.3-.817.525-1.35.675-.517.15-1.067.225-1.65.225-1.467 0-2.6-.3833-3.4-1.15-.8-.7667-1.2-1.8833-1.2-3.35V34.25h-2.2v-2.5h2.2V28.7h3.125v3.05h3.575v2.5h-3.575v6.35c0 .65.158 1.15.475 1.5.317.3333.775.5 1.375.5.7 0 1.283-.1833 1.75-.55l.875 2.225zm10.278 0c-.366.3-.816.525-1.35.675-.516.15-1.066.225-1.65.225-1.466 0-2.6-.3833-3.4-1.15-.8-.7667-1.2-1.8833-1.2-3.35V34.25h-2.2v-2.5h2.2V28.7h3.125v3.05h3.575v2.5h-3.575v6.35c0 .65.159 1.15.475 1.5.317.3333.775.5 1.375.5.7 0 1.284-.1833 1.75-.55l.875 2.225zm5.546-10.675c.9-1.4 2.483-2.1 4.75-2.1v2.975c-.267-.05-.508-.075-.725-.075-1.217 0-2.167.3583-2.85 1.075-.683.7-1.025 1.7167-1.025 3.05V45h-3.125V31.65h2.975v1.95zm12.428-2.1c1.966 0 3.466.475 4.5 1.425 1.05.9333 1.575 2.35 1.575 4.25V45h-2.95v-1.625c-.384.5833-.934 1.0333-1.65 1.35-.7.3-1.55.45-2.55.45-1 0-1.875-.1667-2.625-.5-.75-.35-1.334-.825-1.75-1.425-.4-.6167-.6-1.3083-.6-2.075 0-1.2.441-2.1583 1.325-2.875.9-.7333 2.308-1.1 4.225-1.1h3.45V37c0-.9333-.284-1.65-.85-2.15-.55-.5-1.375-.75-2.475-.75-.75 0-1.492.1167-2.225.35-.717.2333-1.325.5583-1.825.975l-1.225-2.275c.7-.5333 1.541-.9417 2.525-1.225.983-.2833 2.025-.425 3.125-.425zm-.425 11.4c.783 0 1.475-.175 2.075-.525.616-.3667 1.05-.8833 1.3-1.55v-1.55h-3.225c-1.8 0-2.7.5917-2.7 1.775 0 .5667.225 1.0167.675 1.35.45.3333 1.075.5 1.875.5zm16.757 2.275c-1.383 0-2.625-.2917-3.725-.875-1.1-.5833-1.958-1.3917-2.575-2.425-.616-1.05-.925-2.2333-.925-3.55s.309-2.4917.925-3.525c.617-1.0333 1.467-1.8417 2.55-2.425 1.1-.5833 2.35-.875 3.75-.875 1.317 0 2.467.2667 3.45.8 1 .5333 1.75 1.3 2.25 2.3l-2.4 1.4c-.383-.6167-.866-1.075-1.45-1.375-.566-.3167-1.191-.475-1.875-.475-1.166 0-2.133.3833-2.9 1.15-.766.75-1.15 1.7583-1.15 3.025s.375 2.2833 1.125 3.05c.767.75 1.742 1.125 2.925 1.125.684 0 1.309-.15 1.875-.45.584-.3167 1.067-.7833 1.45-1.4l2.4 1.4c-.516 1-1.275 1.775-2.275 2.325-.983.5333-2.125.8-3.425.8zm16.598-.9c-.367.3-.817.525-1.35.675-.517.15-1.067.225-1.65.225-1.467 0-2.6-.3833-3.4-1.15-.8-.7667-1.2-1.8833-1.2-3.35V34.25h-2.2v-2.5h2.2V28.7h3.125v3.05h3.575v2.5h-3.575v6.35c0 .65.158 1.15.475 1.5.316.3333.775.5 1.375.5.7 0 1.283-.1833 1.75-.55l.875 2.225zm9.479-17.825h3.125V45h-3.125V26.45zm13.227 18.725c-1.35 0-2.567-.2917-3.65-.875-1.083-.5833-1.933-1.3917-2.55-2.425-.6-1.05-.9-2.2333-.9-3.55s.3-2.4917.9-3.525c.617-1.0333 1.467-1.8417 2.55-2.425 1.083-.5833 2.3-.875 3.65-.875 1.367 0 2.592.2917 3.675.875 1.083.5833 1.925 1.3917 2.525 2.425.617 1.0333.925 2.2083.925 3.525s-.308 2.5-.925 3.55c-.6 1.0333-1.442 1.8417-2.525 2.425-1.083.5833-2.308.875-3.675.875zm0-2.675c1.15 0 2.1-.3833 2.85-1.15.75-.7667 1.125-1.775 1.125-3.025s-.375-2.2583-1.125-3.025c-.75-.7667-1.7-1.15-2.85-1.15-1.15 0-2.1.3833-2.85 1.15-.733.7667-1.1 1.775-1.1 3.025s.367 2.2583 1.1 3.025c.75.7667 1.7 1.15 2.85 1.15zm18.138 1.775c-.366.3-.816.525-1.35.675-.516.15-1.066.225-1.65.225-1.466 0-2.6-.3833-3.4-1.15-.8-.7667-1.2-1.8833-1.2-3.35V34.25h-2.2v-2.5h2.2V28.7h3.125v3.05h3.575v2.5h-3.575v6.35c0 .65.159 1.15.475 1.5.317.3333.775.5 1.375.5.7 0 1.284-.1833 1.75-.55l.875 2.225zm6.696.9c-1.083 0-2.142-.1417-3.175-.425s-1.858-.6417-2.475-1.075l1.2-2.375c.6.4 1.317.725 2.15.975.85.2333 1.683.35 2.5.35 1.867 0 2.8-.4917 2.8-1.475 0-.4667-.242-.7917-.725-.975-.467-.1833-1.225-.3583-2.275-.525-1.1-.1667-2-.3583-2.7-.575-.683-.2167-1.283-.5917-1.8-1.125-.5-.55-.75-1.3083-.75-2.275 0-1.2667.525-2.275 1.575-3.025 1.067-.7667 2.5-1.15 4.3-1.15.917 0 1.833.1083 2.75.325.917.2 1.667.475 2.25.825l-1.2 2.375c-1.133-.6667-2.408-1-3.825-1-.917 0-1.617.1417-2.1.425-.467.2667-.7.625-.7 1.075 0 .5.25.8583.75 1.075.517.2 1.308.3917 2.375.575 1.067.1667 1.942.3583 2.625.575.683.2167 1.267.5833 1.75 1.1.5.5167.75 1.25.75 2.2 0 1.25-.542 2.25-1.625 3s-2.558 1.125-4.425 1.125zm21.65 0c-1.35 0-2.566-.2917-3.65-.875-1.083-.5833-1.933-1.3917-2.55-2.425-.6-1.05-.9-2.2333-.9-3.55s.3-2.4917.9-3.525c.617-1.0333 1.467-1.8417 2.55-2.425 1.084-.5833 2.3-.875 3.65-.875 1.367 0 2.592.2917 3.675.875 1.084.5833 1.925 1.3917 2.525 2.425.617 1.0333.925 2.2083.925 3.525s-.308 2.5-.925 3.55c-.6 1.0333-1.441 1.8417-2.525 2.425-1.083.5833-2.308.875-3.675.875zm0-2.675c1.15 0 2.1-.3833 2.85-1.15.75-.7667 1.125-1.775 1.125-3.025s-.375-2.2583-1.125-3.025c-.75-.7667-1.7-1.15-2.85-1.15-1.15 0-2.1.3833-2.85 1.15-.733.7667-1.1 1.775-1.1 3.025s.367 2.2583 1.1 3.025c.75.7667 1.7 1.15 2.85 1.15zm15.539-13.7c-1.317 0-1.975.7167-1.975 2.15v.8h3.675v2.5h-3.575V45h-3.125V34.25h-2.2v-2.5h2.2v-.85c0-1.4333.416-2.5583 1.25-3.375.833-.8333 2.008-1.25 3.525-1.25 1.2 0 2.141.2417 2.825.725l-.875 2.35c-.534-.3667-1.109-.55-1.725-.55zm18.112 2.7c1.3 0 2.459.2833 3.475.85 1.034.5667 1.842 1.3667 2.425 2.4.584 1.0333.875 2.225.875 3.575s-.291 2.55-.875 3.6c-.583 1.0333-1.391 1.8333-2.425 2.4-1.016.5667-2.175.85-3.475.85-.916 0-1.758-.1583-2.525-.475-.75-.3167-1.383-.7917-1.9-1.425V45h-2.975V26.45h3.125v6.825c.534-.5833 1.159-1.025 1.875-1.325.734-.3 1.534-.45 2.4-.45zm-.35 11c1.15 0 2.092-.3833 2.825-1.15.75-.7667 1.125-1.775 1.125-3.025s-.375-2.2583-1.125-3.025c-.733-.7667-1.675-1.15-2.825-1.15-.75 0-1.425.175-2.025.525-.6.3333-1.075.8167-1.425 1.45-.35.6333-.525 1.3667-.525 2.2 0 .8333.175 1.5667.525 2.2.35.6333.825 1.125 1.425 1.475.6.3333 1.275.5 2.025.5zm15.018-11c1.967 0 3.467.475 4.5 1.425 1.05.9333 1.575 2.35 1.575 4.25V45h-2.95v-1.625c-.383.5833-.933 1.0333-1.65 1.35-.7.3-1.55.45-2.55.45-1 0-1.875-.1667-2.625-.5-.75-.35-1.333-.825-1.75-1.425-.4-.6167-.6-1.3083-.6-2.075 0-1.2.442-2.1583 1.325-2.875.9-.7333 2.308-1.1 4.225-1.1h3.45V37c0-.9333-.283-1.65-.85-2.15-.55-.5-1.375-.75-2.475-.75-.75 0-1.492.1167-2.225.35-.717.2333-1.325.5583-1.825.975l-1.225-2.275c.7-.5333 1.542-.9417 2.525-1.225.983-.2833 2.025-.425 3.125-.425zm-.425 11.4c.783 0 1.475-.175 2.075-.525.617-.3667 1.05-.8833 1.3-1.55v-1.55h-3.225c-1.8 0-2.7.5917-2.7 1.775 0 .5667.225 1.0167.675 1.35.45.3333 1.075.5 1.875.5zm16.758 2.275c-1.384 0-2.625-.2917-3.725-.875-1.1-.5833-1.959-1.3917-2.575-2.425-.617-1.05-.925-2.2333-.925-3.55s.308-2.4917.925-3.525c.616-1.0333 1.466-1.8417 2.55-2.425 1.1-.5833 2.35-.875 3.75-.875 1.316 0 2.466.2667 3.45.8 1 .5333 1.75 1.3 2.25 2.3l-2.4 1.4c-.384-.6167-.867-1.075-1.45-1.375-.567-.3167-1.192-.475-1.875-.475-1.167 0-2.134.3833-2.9 1.15-.767.75-1.15 1.7583-1.15 3.025s.375 2.2833 1.125 3.05c.766.75 1.741 1.125 2.925 1.125.683 0 1.308-.15 1.875-.45.583-.3167 1.066-.7833 1.45-1.4l2.4 1.4c-.517 1-1.275 1.775-2.275 2.325-.984.5333-2.125.8-3.425.8zm16.597-.9c-.367.3-.817.525-1.35.675-.517.15-1.067.225-1.65.225-1.467 0-2.6-.3833-3.4-1.15-.8-.7667-1.2-1.8833-1.2-3.35V34.25h-2.2v-2.5h2.2V28.7h3.125v3.05h3.575v2.5h-3.575v6.35c0 .65.158 1.15.475 1.5.317.3333.775.5 1.375.5.7 0 1.283-.1833 1.75-.55l.875 2.225zm14.681-5.875c0 .2167-.016.525-.05.925h-10.475c.184.9833.659 1.7667 1.425 2.35.784.5667 1.75.85 2.9.85 1.467 0 2.675-.4833 3.625-1.45L997.313 43c-.6.7167-1.358 1.2583-2.275 1.625-.916.3667-1.95.55-3.1.55-1.466 0-2.758-.2917-3.875-.875-1.116-.5833-1.983-1.3917-2.6-2.425-.6-1.05-.9-2.2333-.9-3.55 0-1.3.292-2.4667.875-3.5.6-1.05 1.425-1.8667 2.475-2.45 1.05-.5833 2.234-.875 3.55-.875 1.3 0 2.459.2917 3.475.875 1.034.5667 1.834 1.375 2.4 2.425.584 1.0333.875 2.2333.875 3.6zm-6.75-4.4c-1 0-1.85.3-2.55.9-.683.5833-1.1 1.3667-1.25 2.35h7.575c-.133-.9667-.541-1.75-1.225-2.35-.683-.6-1.533-.9-2.55-.9zm12.727-.4c.9-1.4 2.48-2.1 4.75-2.1v2.975c-.27-.05-.51-.075-.72-.075-1.22 0-2.17.3583-2.85 1.075-.69.7-1.03 1.7167-1.03 3.05V45h-3.12V31.65h2.97v1.95zm7.4-1.95h3.13V45h-3.13V31.65zm1.58-2.2c-.57 0-1.05-.175-1.43-.525-.38-.3667-.57-.8167-.57-1.35 0-.5333.19-.975.57-1.325.38-.3667.86-.55 1.43-.55.56 0 1.04.175 1.42.525.38.3333.58.7583.58 1.275 0 .55-.2 1.0167-.58 1.4-.37.3667-.84.55-1.42.55zm10.75 2.05c1.96 0 3.46.475 4.5 1.425 1.05.9333 1.57 2.35 1.57 4.25V45h-2.95v-1.625c-.38.5833-.93 1.0333-1.65 1.35-.7.3-1.55.45-2.55.45-1 0-1.87-.1667-2.62-.5-.75-.35-1.34-.825-1.75-1.425-.4-.6167-.6-1.3083-.6-2.075 0-1.2.44-2.1583 1.32-2.875.9-.7333 2.31-1.1 4.23-1.1h3.45V37c0-.9333-.29-1.65-.85-2.15-.55-.5-1.38-.75-2.48-.75-.75 0-1.49.1167-2.22.35-.72.2333-1.33.5583-1.83.975l-1.22-2.275c.7-.5333 1.54-.9417 2.52-1.225.99-.2833 2.03-.425 3.13-.425zm-.43 11.4c.79 0 1.48-.175 2.08-.525.61-.3667 1.05-.8833 1.3-1.55v-1.55h-3.23c-1.8 0-2.7.5917-2.7 1.775 0 .5667.23 1.0167.68 1.35.45.3333 1.07.5 1.87.5zM316.789 61.5c1.966 0 3.466.475 4.5 1.425 1.05.9333 1.575 2.35 1.575 4.25V75h-2.95v-1.625c-.384.5833-.934 1.0333-1.65 1.35-.7.3-1.55.45-2.55.45-1 0-1.875-.1667-2.625-.5-.75-.35-1.334-.825-1.75-1.425-.4-.6167-.6-1.3083-.6-2.075 0-1.2.441-2.1583 1.325-2.875.9-.7333 2.308-1.1 4.225-1.1h3.45V67c0-.9333-.284-1.65-.85-2.15-.55-.5-1.375-.75-2.475-.75-.75 0-1.492.1167-2.225.35-.717.2333-1.325.5583-1.825.975l-1.225-2.275c.7-.5333 1.541-.9417 2.525-1.225.983-.2833 2.025-.425 3.125-.425zm-.425 11.4c.783 0 1.475-.175 2.075-.525.616-.3667 1.05-.8833 1.3-1.55v-1.55h-3.225c-1.8 0-2.7.5917-2.7 1.775 0 .5667.225 1.0167.675 1.35.45.3333 1.075.5 1.875.5zm18.085-11.4c1.684 0 3.034.4917 4.05 1.475 1.017.9833 1.525 2.4417 1.525 4.375V75h-3.125v-7.25c0-1.1667-.275-2.0417-.825-2.625-.55-.6-1.333-.9-2.35-.9-1.15 0-2.058.35-2.725 1.05-.666.6833-1 1.675-1 2.975V75h-3.125V61.65h2.975v1.725c.517-.6167 1.167-1.0833 1.95-1.4.784-.3167 1.667-.475 2.65-.475zm22.737-5.05V75h-3v-1.725c-.517.6333-1.159 1.1083-1.925 1.425-.75.3167-1.584.475-2.5.475-1.284 0-2.442-.2833-3.475-.85-1.017-.5667-1.817-1.3667-2.4-2.4-.584-1.05-.875-2.25-.875-3.6s.291-2.5417.875-3.575c.583-1.0333 1.383-1.8333 2.4-2.4 1.033-.5667 2.191-.85 3.475-.85.883 0 1.691.15 2.425.45.733.3 1.358.75 1.875 1.35v-6.85h3.125zm-7.05 16.05c.75 0 1.425-.1667 2.025-.5.6-.35 1.075-.8417 1.425-1.475.35-.6333.525-1.3667.525-2.2 0-.8333-.175-1.5667-.525-2.2-.35-.6333-.825-1.1167-1.425-1.45-.6-.35-1.275-.525-2.025-.525s-1.425.175-2.025.525c-.6.3333-1.075.8167-1.425 1.45-.35.6333-.525 1.3667-.525 2.2 0 .8333.175 1.5667.525 2.2.35.6333.825 1.125 1.425 1.475.6.3333 1.275.5 2.025.5zm24.172 2.675c-1.384 0-2.625-.2917-3.725-.875-1.1-.5833-1.959-1.3917-2.575-2.425-.617-1.05-.925-2.2333-.925-3.55s.308-2.4917.925-3.525c.616-1.0333 1.466-1.8417 2.55-2.425 1.1-.5833 2.35-.875 3.75-.875 1.316 0 2.466.2667 3.45.8 1 .5333 1.75 1.3 2.25 2.3l-2.4 1.4c-.384-.6167-.867-1.075-1.45-1.375-.567-.3167-1.192-.475-1.875-.475-1.167 0-2.134.3833-2.9 1.15-.767.75-1.15 1.7583-1.15 3.025s.375 2.2833 1.125 3.05c.766.75 1.741 1.125 2.925 1.125.683 0 1.308-.15 1.875-.45.583-.3167 1.066-.7833 1.45-1.4l2.4 1.4c-.517 1-1.275 1.775-2.275 2.325-.984.5333-2.125.8-3.425.8zM387.809 61.5c1.967 0 3.467.475 4.5 1.425 1.05.9333 1.575 2.35 1.575 4.25V75h-2.95v-1.625c-.383.5833-.933 1.0333-1.65 1.35-.7.3-1.55.45-2.55.45-1 0-1.875-.1667-2.625-.5-.75-.35-1.333-.825-1.75-1.425-.4-.6167-.6-1.3083-.6-2.075 0-1.2.442-2.1583 1.325-2.875.9-.7333 2.309-1.1 4.225-1.1h3.45V67c0-.9333-.283-1.65-.85-2.15-.55-.5-1.375-.75-2.475-.75-.75 0-1.491.1167-2.225.35-.716.2333-1.325.5583-1.825.975l-1.225-2.275c.7-.5333 1.542-.9417 2.525-1.225.984-.2833 2.025-.425 3.125-.425zm-.425 11.4c.784 0 1.475-.175 2.075-.525.617-.3667 1.05-.8833 1.3-1.55v-1.55h-3.225c-1.8 0-2.7.5917-2.7 1.775 0 .5667.225 1.0167.675 1.35.45.3333 1.075.5 1.875.5zm18.086-11.4c1.683 0 3.033.4917 4.05 1.475 1.016.9833 1.525 2.4417 1.525 4.375V75h-3.125v-7.25c0-1.1667-.275-2.0417-.825-2.625-.55-.6-1.334-.9-2.35-.9-1.15 0-2.059.35-2.725 1.05-.667.6833-1 1.675-1 2.975V75h-3.125V61.65h2.975v1.725c.516-.6167 1.166-1.0833 1.95-1.4.783-.3167 1.666-.475 2.65-.475zm23.848 0c1.3 0 2.458.2833 3.475.85 1.033.5667 1.842 1.3667 2.425 2.4.583 1.0333.875 2.225.875 3.575s-.292 2.55-.875 3.6c-.583 1.0333-1.392 1.8333-2.425 2.4-1.017.5667-2.175.85-3.475.85-.917 0-1.758-.1583-2.525-.475-.75-.3167-1.383-.7917-1.9-1.425V75h-2.975V56.45h3.125v6.825c.533-.5833 1.158-1.025 1.875-1.325.733-.3 1.533-.45 2.4-.45zm-.35 11c1.15 0 2.092-.3833 2.825-1.15.75-.7667 1.125-1.775 1.125-3.025s-.375-2.2583-1.125-3.025c-.733-.7667-1.675-1.15-2.825-1.15-.75 0-1.425.175-2.025.525-.6.3333-1.075.8167-1.425 1.45-.35.6333-.525 1.3667-.525 2.2 0 .8333.175 1.5667.525 2.2.35.6333.825 1.125 1.425 1.475.6.3333 1.275.5 2.025.5zm22.639-4.1c0 .2167-.017.525-.05.925h-10.475c.183.9833.658 1.7667 1.425 2.35.783.5667 1.75.85 2.9.85 1.467 0 2.675-.4833 3.625-1.45L450.707 73c-.6.7167-1.358 1.2583-2.275 1.625-.917.3667-1.95.55-3.1.55-1.467 0-2.758-.2917-3.875-.875-1.117-.5833-1.983-1.3917-2.6-2.425-.6-1.05-.9-2.2333-.9-3.55 0-1.3.292-2.4667.875-3.5.6-1.05 1.425-1.8667 2.475-2.45 1.05-.5833 2.233-.875 3.55-.875 1.3 0 2.458.2917 3.475.875 1.033.5667 1.833 1.375 2.4 2.425.583 1.0333.875 2.2333.875 3.6zm-6.75-4.4c-1 0-1.85.3-2.55.9-.683.5833-1.1 1.3667-1.25 2.35h7.575c-.133-.9667-.542-1.75-1.225-2.35-.683-.6-1.533-.9-2.55-.9zm15.877 11.175c-1.384 0-2.625-.2917-3.725-.875-1.1-.5833-1.959-1.3917-2.575-2.425-.617-1.05-.925-2.2333-.925-3.55s.308-2.4917.925-3.525c.616-1.0333 1.466-1.8417 2.55-2.425 1.1-.5833 2.35-.875 3.75-.875 1.316 0 2.466.2667 3.45.8 1 .5333 1.75 1.3 2.25 2.3l-2.4 1.4c-.384-.6167-.867-1.075-1.45-1.375-.567-.3167-1.192-.475-1.875-.475-1.167 0-2.134.3833-2.9 1.15-.767.75-1.15 1.7583-1.15 3.025s.375 2.2833 1.125 3.05c.766.75 1.741 1.125 2.925 1.125.683 0 1.308-.15 1.875-.45.583-.3167 1.066-.7833 1.45-1.4l2.4 1.4c-.517 1-1.275 1.775-2.275 2.325-.984.5333-2.125.8-3.425.8zm14.206 0c-1.35 0-2.567-.2917-3.65-.875-1.084-.5833-1.934-1.3917-2.55-2.425-.6-1.05-.9-2.2333-.9-3.55s.3-2.4917.9-3.525c.616-1.0333 1.466-1.8417 2.55-2.425 1.083-.5833 2.3-.875 3.65-.875 1.366 0 2.591.2917 3.675.875 1.083.5833 1.925 1.3917 2.525 2.425.616 1.0333.925 2.2083.925 3.525s-.309 2.5-.925 3.55c-.6 1.0333-1.442 1.8417-2.525 2.425-1.084.5833-2.309.875-3.675.875zm0-2.675c1.15 0 2.1-.3833 2.85-1.15.75-.7667 1.125-1.775 1.125-3.025s-.375-2.2583-1.125-3.025c-.75-.7667-1.7-1.15-2.85-1.15-1.15 0-2.1.3833-2.85 1.15-.734.7667-1.1 1.775-1.1 3.025s.366 2.2583 1.1 3.025c.75.7667 1.7 1.15 2.85 1.15zm26.963-11c1.683 0 3.017.4917 4 1.475.983.9667 1.475 2.425 1.475 4.375V75h-3.125v-7.25c0-1.1667-.258-2.0417-.775-2.625-.517-.6-1.258-.9-2.225-.9-1.05 0-1.892.35-2.525 1.05-.633.6833-.95 1.6667-.95 2.95V75h-3.125v-7.25c0-1.1667-.258-2.0417-.775-2.625-.517-.6-1.258-.9-2.225-.9-1.067 0-1.917.3417-2.55 1.025-.617.6833-.925 1.675-.925 2.975V75h-3.125V61.65h2.975v1.7c.5-.6 1.125-1.0583 1.875-1.375s1.583-.475 2.5-.475c1 0 1.883.1917 2.65.575.783.3667 1.4.9167 1.85 1.65.55-.7 1.258-1.2417 2.125-1.625.867-.4 1.825-.6 2.875-.6zm22.14 6.9c0 .2167-.016.525-.05.925h-10.475c.184.9833.659 1.7667 1.425 2.35.784.5667 1.75.85 2.9.85 1.467 0 2.675-.4833 3.625-1.45L523.143 73c-.6.7167-1.358 1.2583-2.275 1.625-.916.3667-1.95.55-3.1.55-1.466 0-2.758-.2917-3.875-.875-1.116-.5833-1.983-1.3917-2.6-2.425-.6-1.05-.9-2.2333-.9-3.55 0-1.3.292-2.4667.875-3.5.6-1.05 1.425-1.8667 2.475-2.45 1.05-.5833 2.234-.875 3.55-.875 1.3 0 2.459.2917 3.475.875 1.034.5667 1.834 1.375 2.4 2.425.584 1.0333.875 2.2333.875 3.6zm-6.75-4.4c-1 0-1.85.3-2.55.9-.683.5833-1.1 1.3667-1.25 2.35h7.575c-.133-.9667-.541-1.75-1.225-2.35-.683-.6-1.533-.9-2.55-.9zm21.761-2.5c1.967 0 3.467.475 4.5 1.425 1.05.9333 1.575 2.35 1.575 4.25V75h-2.95v-1.625c-.383.5833-.933 1.0333-1.65 1.35-.7.3-1.55.45-2.55.45-1 0-1.875-.1667-2.625-.5-.75-.35-1.333-.825-1.75-1.425-.4-.6167-.6-1.3083-.6-2.075 0-1.2.442-2.1583 1.325-2.875.9-.7333 2.309-1.1 4.225-1.1h3.45V67c0-.9333-.283-1.65-.85-2.15-.55-.5-1.375-.75-2.475-.75-.75 0-1.491.1167-2.225.35-.716.2333-1.325.5583-1.825.975l-1.225-2.275c.7-.5333 1.542-.9417 2.525-1.225.984-.2833 2.025-.425 3.125-.425zm-.425 11.4c.784 0 1.475-.175 2.075-.525.617-.3667 1.05-.8833 1.3-1.55v-1.55h-3.225c-1.8 0-2.7.5917-2.7 1.775 0 .5667.225 1.0167.675 1.35.45.3333 1.075.5 1.875.5zm21.545 2.275c-1.083 0-2.142-.1417-3.175-.425s-1.858-.6417-2.475-1.075l1.2-2.375c.6.4 1.317.725 2.15.975.85.2333 1.683.35 2.5.35 1.867 0 2.8-.4917 2.8-1.475 0-.4667-.242-.7917-.725-.975-.467-.1833-1.225-.3583-2.275-.525-1.1-.1667-2-.3583-2.7-.575-.683-.2167-1.283-.5917-1.8-1.125-.5-.55-.75-1.3083-.75-2.275 0-1.2667.525-2.275 1.575-3.025 1.067-.7667 2.5-1.15 4.3-1.15.917 0 1.833.1083 2.75.325.917.2 1.667.475 2.25.825l-1.2 2.375c-1.133-.6667-2.408-1-3.825-1-.917 0-1.617.1417-2.1.425-.467.2667-.7.625-.7 1.075 0 .5.25.8583.75 1.075.517.2 1.308.3917 2.375.575 1.067.1667 1.942.3583 2.625.575.683.2167 1.267.5833 1.75 1.1.5.5167.75 1.25.75 2.2 0 1.25-.542 2.25-1.625 3s-2.558 1.125-4.425 1.125zM574.015 61.5c1.967 0 3.467.475 4.5 1.425 1.05.9333 1.575 2.35 1.575 4.25V75h-2.95v-1.625c-.383.5833-.933 1.0333-1.65 1.35-.7.3-1.55.45-2.55.45-1 0-1.875-.1667-2.625-.5-.75-.35-1.333-.825-1.75-1.425-.4-.6167-.6-1.3083-.6-2.075 0-1.2.442-2.1583 1.325-2.875.9-.7333 2.309-1.1 4.225-1.1h3.45V67c0-.9333-.283-1.65-.85-2.15-.55-.5-1.375-.75-2.475-.75-.75 0-1.491.1167-2.225.35-.716.2333-1.325.5583-1.825.975l-1.225-2.275c.7-.5333 1.542-.9417 2.525-1.225.984-.2833 2.025-.425 3.125-.425zm-.425 11.4c.784 0 1.475-.175 2.075-.525.617-.3667 1.05-.8833 1.3-1.55v-1.55h-3.225c-1.8 0-2.7.5917-2.7 1.775 0 .5667.225 1.0167.675 1.35.45.3333 1.075.5 1.875.5zm15.936-14.1c-1.317 0-1.975.7167-1.975 2.15v.8h3.675v2.5h-3.575V75h-3.125V64.25h-2.2v-2.5h2.2v-.85c0-1.4333.416-2.5583 1.25-3.375.833-.8333 2.008-1.25 3.525-1.25 1.2 0 2.141.2417 2.825.725l-.875 2.35c-.534-.3667-1.109-.55-1.725-.55zm16.158 9.6c0 .2167-.017.525-.05.925h-10.475c.183.9833.658 1.7667 1.425 2.35.783.5667 1.75.85 2.9.85 1.467 0 2.675-.4833 3.625-1.45L604.784 73c-.6.7167-1.358 1.2583-2.275 1.625-.917.3667-1.95.55-3.1.55-1.467 0-2.758-.2917-3.875-.875-1.117-.5833-1.983-1.3917-2.6-2.425-.6-1.05-.9-2.2333-.9-3.55 0-1.3.292-2.4667.875-3.5.6-1.05 1.425-1.8667 2.475-2.45 1.05-.5833 2.233-.875 3.55-.875 1.3 0 2.458.2917 3.475.875 1.033.5667 1.833 1.375 2.4 2.425.583 1.0333.875 2.2333.875 3.6zm-6.75-4.4c-1 0-1.85.3-2.55.9-.683.5833-1.1 1.3667-1.25 2.35h7.575c-.133-.9667-.542-1.75-1.225-2.35-.683-.6-1.533-.9-2.55-.9zm17.777 10.275c-.367.3-.817.525-1.35.675-.517.15-1.067.225-1.65.225-1.467 0-2.6-.3833-3.4-1.15-.8-.7667-1.2-1.8833-1.2-3.35V64.25h-2.2v-2.5h2.2V58.7h3.125v3.05h3.575v2.5h-3.575v6.35c0 .65.158 1.15.475 1.5.316.3333.775.5 1.375.5.7 0 1.283-.1833 1.75-.55l.875 2.225zm14.826-12.625l-6.25 14.425c-.583 1.45-1.291 2.4667-2.125 3.05-.833.6-1.841.9-3.025.9-.666 0-1.325-.1083-1.975-.325-.65-.2167-1.183-.5167-1.6-.9l1.25-2.3c.3.2833.65.5083 1.05.675.417.1667.834.25 1.25.25.55 0 1-.1417 1.35-.425.367-.2833.7-.7583 1-1.425l.225-.525-5.825-13.4h3.25l4.2 9.875 4.225-9.875h3zm14.988 13.525c-1.384 0-2.625-.2917-3.725-.875-1.1-.5833-1.959-1.3917-2.575-2.425-.617-1.05-.925-2.2333-.925-3.55s.308-2.4917.925-3.525c.616-1.0333 1.466-1.8417 2.55-2.425 1.1-.5833 2.35-.875 3.75-.875 1.316 0 2.466.2667 3.45.8 1 .5333 1.75 1.3 2.25 2.3l-2.4 1.4c-.384-.6167-.867-1.075-1.45-1.375-.567-.3167-1.192-.475-1.875-.475-1.167 0-2.134.3833-2.9 1.15-.767.75-1.15 1.7583-1.15 3.025s.375 2.2833 1.125 3.05c.766.75 1.741 1.125 2.925 1.125.683 0 1.308-.15 1.875-.45.583-.3167 1.066-.7833 1.45-1.4l2.4 1.4c-.517 1-1.275 1.775-2.275 2.325-.984.5333-2.125.8-3.425.8zm14.206 0c-1.35 0-2.567-.2917-3.65-.875-1.084-.5833-1.934-1.3917-2.55-2.425-.6-1.05-.9-2.2333-.9-3.55s.3-2.4917.9-3.525c.616-1.0333 1.466-1.8417 2.55-2.425 1.083-.5833 2.3-.875 3.65-.875 1.366 0 2.591.2917 3.675.875 1.083.5833 1.925 1.3917 2.525 2.425.616 1.0333.925 2.2083.925 3.525s-.309 2.5-.925 3.55c-.6 1.0333-1.442 1.8417-2.525 2.425-1.084.5833-2.309.875-3.675.875zm0-2.675c1.15 0 2.1-.3833 2.85-1.15.75-.7667 1.125-1.775 1.125-3.025s-.375-2.2583-1.125-3.025c-.75-.7667-1.7-1.15-2.85-1.15-1.15 0-2.1.3833-2.85 1.15-.734.7667-1.1 1.775-1.1 3.025s.366 2.2583 1.1 3.025c.75.7667 1.7 1.15 2.85 1.15zm17.688-11c1.683 0 3.033.4917 4.05 1.475 1.017.9833 1.525 2.4417 1.525 4.375V75h-3.125v-7.25c0-1.1667-.275-2.0417-.825-2.625-.55-.6-1.333-.9-2.35-.9-1.15 0-2.058.35-2.725 1.05-.667.6833-1 1.675-1 2.975V75h-3.125V61.65h2.975v1.725c.517-.6167 1.167-1.0833 1.95-1.4.783-.3167 1.667-.475 2.65-.475zm15.786 13.675c-1.383 0-2.625-.2917-3.725-.875-1.1-.5833-1.958-1.3917-2.575-2.425-.616-1.05-.925-2.2333-.925-3.55s.309-2.4917.925-3.525c.617-1.0333 1.467-1.8417 2.55-2.425 1.1-.5833 2.35-.875 3.75-.875 1.317 0 2.467.2667 3.45.8 1 .5333 1.75 1.3 2.25 2.3l-2.4 1.4c-.383-.6167-.866-1.075-1.45-1.375-.566-.3167-1.191-.475-1.875-.475-1.166 0-2.133.3833-2.9 1.15-.766.75-1.15 1.7583-1.15 3.025s.375 2.2833 1.125 3.05c.767.75 1.742 1.125 2.925 1.125.684 0 1.309-.15 1.875-.45.584-.3167 1.067-.7833 1.45-1.4l2.4 1.4c-.516 1-1.275 1.775-2.275 2.325-.983.5333-2.125.8-3.425.8zm20.756-6.775c0 .2167-.016.525-.05.925h-10.475c.184.9833.659 1.7667 1.425 2.35.784.5667 1.75.85 2.9.85 1.467 0 2.675-.4833 3.625-1.45L714.061 73c-.6.7167-1.358 1.2583-2.275 1.625-.916.3667-1.95.55-3.1.55-1.466 0-2.758-.2917-3.875-.875-1.116-.5833-1.983-1.3917-2.6-2.425-.6-1.05-.9-2.2333-.9-3.55 0-1.3.292-2.4667.875-3.5.6-1.05 1.425-1.8667 2.475-2.45 1.05-.5833 2.234-.875 3.55-.875 1.3 0 2.459.2917 3.475.875 1.034.5667 1.834 1.375 2.4 2.425.584 1.0333.875 2.2333.875 3.6zm-6.75-4.4c-1 0-1.85.3-2.55.9-.683.5833-1.1 1.3667-1.25 2.35h7.575c-.133-.9667-.541-1.75-1.225-2.35-.683-.6-1.533-.9-2.55-.9zm12.727-.4c.9-1.4 2.483-2.1 4.75-2.1v2.975c-.267-.05-.508-.075-.725-.075-1.217 0-2.167.3583-2.85 1.075-.683.7-1.025 1.7167-1.025 3.05V75h-3.125V61.65h2.975v1.95zm14.976-2.1c1.683 0 3.033.4917 4.05 1.475 1.017.9833 1.525 2.4417 1.525 4.375V75h-3.125v-7.25c0-1.1667-.275-2.0417-.825-2.625-.55-.6-1.333-.9-2.35-.9-1.15 0-2.058.35-2.725 1.05-.667.6833-1 1.675-1 2.975V75h-3.125V61.65h2.975v1.725c.517-.6167 1.167-1.0833 1.95-1.4.783-.3167 1.667-.475 2.65-.475zm9.139-4h3.7l-.625 11.7h-2.475l-.6-11.7zm1.85 17.675c-.583 0-1.066-.1833-1.45-.55-.383-.3833-.575-.85-.575-1.4 0-.55.192-1.0083.575-1.375.384-.3667.867-.55 1.45-.55.567 0 1.034.1833 1.4.55.384.3667.575.825.575 1.375s-.191 1.0167-.575 1.4c-.366.3667-.833.55-1.4.55z" fill="#000"/></svg>