<svg width="54" height="150" viewBox="0 0 54 150" fill="none" xmlns="http://www.w3.org/2000/svg"><path d="M5.80711 4.4V17h-1.782V5.966h-2.844V4.4h4.626zM17.4192 15.434V17H8.36522v-1.224l5.12998-4.95c.624-.6 1.044-1.116 1.26-1.548.216-.444.324-.888.324-1.332 0-.66-.234-1.17-.702-1.53-.456-.372-1.116-.558-1.98-.558-1.392 0-2.46598.456-3.22198 1.368l-1.224-1.062c.492-.6 1.134-1.068 1.926-1.404.80398-.336 1.69798-.504 2.68198-.504 1.32 0 2.37.318 3.15.954.78.624 1.17 1.476 1.17 2.556 0 .672-.144 1.308-.432 1.908-.288.6-.834 1.284-1.638 2.052l-3.852 3.708h6.462zm6.5752 1.71c-.996 0-1.884-.252-2.664-.756-.768-.516-1.374-1.26-1.818-2.232-.444-.972-.666-2.124-.666-3.456 0-1.332.222-2.484.666-3.456.444-.972 1.05-1.71 1.818-2.214.78-.516 1.668-.774 2.664-.774.984 0 1.86.258 2.628.774.78.504 1.392 1.242 1.836 2.214.444.972.666 2.124.666 3.456 0 1.332-.222 2.484-.666 3.456-.444.972-1.056 1.716-1.836 2.232-.768.504-1.644.756-2.628.756zm0-1.602c1.008 0 1.812-.414 2.412-1.242.612-.828.918-2.028.918-3.6s-.306-2.772-.918-3.6c-.6-.828-1.404-1.242-2.412-1.242-1.02 0-1.836.414-2.448 1.242-.6.828-.9 2.028-.9 3.6s.3 2.772.9 3.6c.612.828 1.428 1.242 2.448 1.242zm12.0059 1.602c-.996 0-1.884-.252-2.664-.756-.768-.516-1.374-1.26-1.818-2.232-.444-.972-.666-2.124-.666-3.456 0-1.332.222-2.484.666-3.456.444-.972 1.05-1.71 1.818-2.214.78-.516 1.668-.774 2.664-.774.984 0 1.86.258 2.628.774.78.504 1.392 1.242 1.836 2.214.444.972.666 2.124.666 3.456 0 1.332-.222 2.484-.666 3.456-.444.972-1.056 1.716-1.836 2.232-.768.504-1.644.756-2.628.756zm0-1.602c1.008 0 1.812-.414 2.412-1.242.612-.828.918-2.028.918-3.6s-.306-2.772-.918-3.6c-.6-.828-1.404-1.242-2.412-1.242-1.02 0-1.836.414-2.448 1.242-.6.828-.9 2.028-.9 3.6s.3 2.772.9 3.6c.612.828 1.428 1.242 2.448 1.242zm12.0058 1.602c-.996 0-1.884-.252-2.664-.756-.768-.516-1.374-1.26-1.818-2.232-.444-.972-.666-2.124-.666-3.456 0-1.332.222-2.484.666-3.456.444-.972 1.05-1.71 1.818-2.214.78-.516 1.668-.774 2.664-.774.984 0 1.86.258 2.628.774.78.504 1.392 1.242 1.836 2.214.444.972.666 2.124.666 3.456 0 1.332-.222 2.484-.666 3.456-.444.972-1.056 1.716-1.836 2.232-.768.504-1.644.756-2.628.756zm0-1.602c1.008 0 1.812-.414 2.412-1.242.612-.828.918-2.028.918-3.6s-.306-2.772-.918-3.6c-.6-.828-1.404-1.242-2.412-1.242-1.02 0-1.836.414-2.448 1.242-.6.828-.9 2.028-.9 3.6s.3 2.772.9 3.6c.612.828 1.428 1.242 2.448 1.242zM5.75438 36.4V49h-1.782V37.966h-2.844V36.4h4.626zm7.90412 12.744c-.996 0-1.884-.252-2.664-.756-.768-.516-1.37402-1.26-1.81802-2.232-.444-.972-.666-2.124-.666-3.456 0-1.332.222-2.484.666-3.456.444-.972 1.05002-1.71 1.81802-2.214.78-.516 1.668-.774 2.664-.774.984 0 1.86.258 2.628.774.78.504 1.392 1.242 1.836 2.214.444.972.666 2.124.666 3.456 0 1.332-.222 2.484-.666 3.456-.444.972-1.056 1.716-1.836 2.232-.768.504-1.644.756-2.628.756zm0-1.602c1.008 0 1.812-.414 2.412-1.242.612-.828.918-2.028.918-3.6s-.306-2.772-.918-3.6c-.6-.828-1.404-1.242-2.412-1.242-1.02 0-1.836.414-2.448 1.242-.6.828-.9 2.028-.9 3.6s.3 2.772.9 3.6c.612.828 1.428 1.242 2.448 1.242zm10.4578-6.12c1.8 0 3.12.342 3.96 1.026.852.672 1.278 1.596 1.278 2.772 0 .744-.18 1.416-.54 2.016-.348.588-.882 1.056-1.602 1.404-.708.336-1.584.504-2.628.504-.888 0-1.746-.132-2.574-.396-.828-.276-1.512-.654-2.052-1.134l.828-1.422c.432.408.984.738 1.656.99.672.24 1.38.36 2.124.36.948 0 1.68-.198 2.196-.594.528-.408.792-.96.792-1.656 0-.756-.288-1.326-.864-1.71-.576-.396-1.56-.594-2.952-.594h-2.862l.666-6.588h7.11v1.566h-5.598l-.342 3.456h1.404zm11.884 7.722c-.996 0-1.884-.252-2.664-.756-.768-.516-1.374-1.26-1.818-2.232-.444-.972-.666-2.124-.666-3.456 0-1.332.222-2.484.666-3.456.444-.972 1.05-1.71 1.818-2.214.78-.516 1.668-.774 2.664-.774.984 0 1.86.258 2.628.774.78.504 1.392 1.242 1.836 2.214.444.972.666 2.124.666 3.456 0 1.332-.222 2.484-.666 3.456-.444.972-1.056 1.716-1.836 2.232-.768.504-1.644.756-2.628.756zm0-1.602c1.008 0 1.812-.414 2.412-1.242.612-.828.918-2.028.918-3.6s-.306-2.772-.918-3.6c-.6-.828-1.404-1.242-2.412-1.242-1.02 0-1.836.414-2.448 1.242-.6.828-.9 2.028-.9 3.6s.3 2.772.9 3.6c.612.828 1.428 1.242 2.448 1.242zm12.0058 1.602c-.996 0-1.884-.252-2.664-.756-.768-.516-1.374-1.26-1.818-2.232-.444-.972-.666-2.124-.666-3.456 0-1.332.222-2.484.666-3.456.444-.972 1.05-1.71 1.818-2.214.78-.516 1.668-.774 2.664-.774.984 0 1.86.258 2.628.774.78.504 1.392 1.242 1.836 2.214.444.972.666 2.124.666 3.456 0 1.332-.222 2.484-.666 3.456-.444.972-1.056 1.716-1.836 2.232-.768.504-1.644.756-2.628.756zm0-1.602c1.008 0 1.812-.414 2.412-1.242.612-.828.918-2.028.918-3.6s-.306-2.772-.918-3.6c-.6-.828-1.404-1.242-2.412-1.242-1.02 0-1.836.414-2.448 1.242-.6.828-.9 2.028-.9 3.6s.3 2.772.9 3.6c.612.828 1.428 1.242 2.448 1.242zM14.7908 74.376c.624.312 1.098.72 1.422 1.224.336.504.504 1.086.504 1.746 0 .78-.222 1.464-.666 2.052-.444.576-1.068 1.026-1.872 1.35-.804.312-1.734.468-2.79.468s-1.986-.156-2.79-.468c-.792-.324-1.41-.774-1.854-1.35-.432-.588-.648-1.272-.648-2.052 0-.66.162-1.242.486-1.746.336-.504.81-.912 1.422-1.224-.468-.288-.828-.648-1.08-1.08-.252-.444-.378-.948-.378-1.512 0-.732.204-1.368.612-1.908.408-.54.978-.954 1.71-1.242.732-.3 1.572-.45 2.52-.45.96 0 1.806.15 2.538.45.744.288 1.32.702 1.728 1.242.408.54.612 1.176.612 1.908 0 .564-.126 1.068-.378 1.512-.252.432-.618.792-1.098 1.08zm-3.402-4.05c-.588 0-1.062.144-1.422.432-.348.276-.522.66-.522 1.152 0 .48.174.858.522 1.134.348.276.822.414 1.422.414s1.08-.138 1.44-.414c.36-.276.54-.654.54-1.134 0-.492-.18-.876-.54-1.152-.36-.288-.84-.432-1.44-.432zm0 8.748c.732 0 1.308-.162 1.728-.486.432-.336.648-.78.648-1.332s-.216-.99-.648-1.314c-.42-.324-.996-.486-1.728-.486-.72 0-1.29.162-1.71.486-.42.324-.63.762-.63 1.314 0 .564.21 1.008.63 1.332.42.324.99.486 1.71.486zm12.0628 2.142c-1.044 0-1.974-.258-2.79-.774-.816-.516-1.458-1.26-1.926-2.232-.456-.984-.684-2.154-.684-3.51 0-1.356.228-2.52.684-3.492.468-.984 1.11-1.734 1.926-2.25.816-.516 1.746-.774 2.79-.774s1.974.258 2.79.774c.816.516 1.452 1.266 1.908 2.25.468.972.702 2.136.702 3.492 0 1.356-.234 2.526-.702 3.51-.456.972-1.092 1.716-1.908 2.232-.816.516-1.746.774-2.79.774zm0-2.466c.768 0 1.368-.33 1.8-.99.444-.66.666-1.68.666-3.06 0-1.38-.222-2.4-.666-3.06-.432-.66-1.032-.99-1.8-.99-.756 0-1.356.33-1.8.99-.432.66-.648 1.68-.648 3.06 0 1.38.216 2.4.648 3.06.444.66 1.044.99 1.8.99zm12.2168 2.466c-1.044 0-1.974-.258-2.79-.774-.816-.516-1.458-1.26-1.926-2.232-.456-.984-.684-2.154-.684-3.51 0-1.356.228-2.52.684-3.492.468-.984 1.11-1.734 1.926-2.25.816-.516 1.746-.774 2.79-.774s1.974.258 2.79.774c.816.516 1.452 1.266 1.908 2.25.468.972.702 2.136.702 3.492 0 1.356-.234 2.526-.702 3.51-.456.972-1.092 1.716-1.908 2.232-.816.516-1.746.774-2.79.774zm0-2.466c.768 0 1.368-.33 1.8-.99.444-.66.666-1.68.666-3.06 0-1.38-.222-2.4-.666-3.06-.432-.66-1.032-.99-1.8-.99-.756 0-1.356.33-1.8.99-.432.66-.648 1.68-.648 3.06 0 1.38.216 2.4.648 3.06.444.66 1.044.99 1.8.99zm12.2168 2.466c-1.044 0-1.974-.258-2.79-.774-.816-.516-1.458-1.26-1.926-2.232-.456-.984-.684-2.154-.684-3.51 0-1.356.228-2.52.684-3.492.468-.984 1.11-1.734 1.926-2.25.816-.516 1.746-.774 2.79-.774s1.974.258 2.79.774c.816.516 1.452 1.266 1.908 2.25.468.972.702 2.136.702 3.492 0 1.356-.234 2.526-.702 3.51-.456.972-1.092 1.716-1.908 2.232-.816.516-1.746.774-2.79.774zm0-2.466c.768 0 1.368-.33 1.8-.99.444-.66.666-1.68.666-3.06 0-1.38-.222-2.4-.666-3.06-.432-.66-1.032-.99-1.8-.99-.756 0-1.356.33-1.8.99-.432.66-.648 1.68-.648 3.06 0 1.38.216 2.4.648 3.06.444.66 1.044.99 1.8.99zM19.1143 100.4v1.224L14.0203 113h-1.908l4.986-11.034h-5.76v2.25H9.61031V100.4h9.50399zm6.2612 5.292c1.236.12 2.178.504 2.826 1.152.648.636.972 1.452.972 2.448 0 .72-.18 1.374-.54 1.962-.36.576-.9 1.038-1.62 1.386-.708.336-1.578.504-2.61.504-.9 0-1.764-.132-2.592-.396-.828-.276-1.506-.654-2.034-1.134l.828-1.422c.432.408.984.738 1.656.99.672.24 1.386.36 2.142.36.936 0 1.662-.198 2.178-.594.528-.396.792-.942.792-1.638s-.258-1.236-.774-1.62c-.516-.384-1.296-.576-2.34-.576h-1.008v-1.26l3.168-3.888h-6.066V100.4h8.316v1.224l-3.294 4.068zm10.6248 7.452c-.996 0-1.884-.252-2.664-.756-.768-.516-1.374-1.26-1.818-2.232-.444-.972-.666-2.124-.666-3.456 0-1.332.222-2.484.666-3.456.444-.972 1.05-1.71 1.818-2.214.78-.516 1.668-.774 2.664-.774.984 0 1.86.258 2.628.774.78.504 1.392 1.242 1.836 2.214.444.972.666 2.124.666 3.456 0 1.332-.222 2.484-.666 3.456-.444.972-1.056 1.716-1.836 2.232-.768.504-1.644.756-2.628.756zm0-1.602c1.008 0 1.812-.414 2.412-1.242.612-.828.918-2.028.918-3.6s-.306-2.772-.918-3.6c-.6-.828-1.404-1.242-2.412-1.242-1.02 0-1.836.414-2.448 1.242-.6.828-.9 2.028-.9 3.6s.3 2.772.9 3.6c.612.828 1.428 1.242 2.448 1.242zm12.0058 1.602c-.996 0-1.884-.252-2.664-.756-.768-.516-1.374-1.26-1.818-2.232-.444-.972-.666-2.124-.666-3.456 0-1.332.222-2.484.666-3.456.444-.972 1.05-1.71 1.818-2.214.78-.516 1.668-.774 2.664-.774.984 0 1.86.258 2.628.774.78.504 1.392 1.242 1.836 2.214.444.972.666 2.124.666 3.456 0 1.332-.222 2.484-.666 3.456-.444.972-1.056 1.716-1.836 2.232-.768.504-1.644.756-2.628.756zm0-1.602c1.008 0 1.812-.414 2.412-1.242.612-.828.918-2.028.918-3.6s-.306-2.772-.918-3.6c-.6-.828-1.404-1.242-2.412-1.242-1.02 0-1.836.414-2.448 1.242-.6.828-.9 2.028-.9 3.6s.3 2.772.9 3.6c.612.828 1.428 1.242 2.448 1.242zm-35.8956 25.88c1.8 0 3.12.342 3.96 1.026.852.672 1.278 1.596 1.278 2.772 0 .744-.18 1.416-.54 2.016-.348.588-.882 1.056-1.602 1.404-.708.336-1.584.504-2.628.504-.888 0-1.746-.132-2.574-.396-.82802-.276-1.51202-.654-2.05202-1.134l.828-1.422c.432.408.984.738 1.65602.99.672.24 1.38.36 2.124.36.948 0 1.68-.198 2.196-.594.528-.408.792-.96.792-1.656 0-.756-.288-1.326-.864-1.71-.576-.396-1.56-.594-2.952-.594H8.87048l.666-6.588h7.11002v1.566h-5.598l-.342 3.456h1.404zm11.8839 7.722c-.996 0-1.884-.252-2.664-.756-.768-.516-1.374-1.26-1.818-2.232-.444-.972-.666-2.124-.666-3.456 0-1.332.222-2.484.666-3.456.444-.972 1.05-1.71 1.818-2.214.78-.516 1.668-.774 2.664-.774.984 0 1.86.258 2.628.774.78.504 1.392 1.242 1.836 2.214.444.972.666 2.124.666 3.456 0 1.332-.222 2.484-.666 3.456-.444.972-1.056 1.716-1.836 2.232-.768.504-1.644.756-2.628.756zm0-1.602c1.008 0 1.812-.414 2.412-1.242.612-.828.918-2.028.918-3.6s-.306-2.772-.918-3.6c-.6-.828-1.404-1.242-2.412-1.242-1.02 0-1.836.414-2.448 1.242-.6.828-.9 2.028-.9 3.6s.3 2.772.9 3.6c.612.828 1.428 1.242 2.448 1.242zm12.0059 1.602c-.996 0-1.884-.252-2.664-.756-.768-.516-1.374-1.26-1.818-2.232-.444-.972-.666-2.124-.666-3.456 0-1.332.222-2.484.666-3.456.444-.972 1.05-1.71 1.818-2.214.78-.516 1.668-.774 2.664-.774.984 0 1.86.258 2.628.774.78.504 1.392 1.242 1.836 2.214.444.972.666 2.124.666 3.456 0 1.332-.222 2.484-.666 3.456-.444.972-1.056 1.716-1.836 2.232-.768.504-1.644.756-2.628.756zm0-1.602c1.008 0 1.812-.414 2.412-1.242.612-.828.918-2.028.918-3.6s-.306-2.772-.918-3.6c-.6-.828-1.404-1.242-2.412-1.242-1.02 0-1.836.414-2.448 1.242-.6.828-.9 2.028-.9 3.6s.3 2.772.9 3.6c.612.828 1.428 1.242 2.448 1.242zm12.0058 1.602c-.996 0-1.884-.252-2.664-.756-.768-.516-1.374-1.26-1.818-2.232-.444-.972-.666-2.124-.666-3.456 0-1.332.222-2.484.666-3.456.444-.972 1.05-1.71 1.818-2.214.78-.516 1.668-.774 2.664-.774.984 0 1.86.258 2.628.774.78.504 1.392 1.242 1.836 2.214.444.972.666 2.124.666 3.456 0 1.332-.222 2.484-.666 3.456-.444.972-1.056 1.716-1.836 2.232-.768.504-1.644.756-2.628.756zm0-1.602c1.008 0 1.812-.414 2.412-1.242.612-.828.918-2.028.918-3.6s-.306-2.772-.918-3.6c-.6-.828-1.404-1.242-2.412-1.242-1.02 0-1.836.414-2.448 1.242-.6.828-.9 2.028-.9 3.6s.3 2.772.9 3.6c.612.828 1.428 1.242 2.448 1.242z" fill="#000"/></svg>