<svg width="322" height="130" viewBox="0 0 322 130" fill="none" xmlns="http://www.w3.org/2000/svg"><path d="M108.84 104.96h-6.72V101h18.3v3.96h-6.72V122h-4.86v-17.04z" fill="#33B8FF"/><path d="M215.84 103.96h-6.72V100h18.3v3.96h-6.72V121h-4.86v-17.04zM263.35 103.9v5.55h9.72v3.9h-9.72V121h-4.86v-21h15.87v3.9h-11.01z" fill="#C4C4C4"/><path d="M182.23 101l-6.87 21h-5.22l-4.62-14.22-4.77 14.22h-5.19l-6.9-21h5.04l4.74 14.76 4.95-14.76h4.5l4.8 14.88 4.89-14.88h4.65zM67.6 122l-.03-12.6-6.18 10.38H59.2l-6.15-10.11V122h-4.56v-21h4.02l7.86 13.05L68.11 101h3.99l.06 21H67.6zM9.39 122.36c-1.66 0-3.27-.22-4.83-.66-1.54-.46-2.78-1.05-3.72-1.77l1.65-3.66c.9.66 1.97 1.19 3.21 1.59 1.24.4 2.48.6 3.72.6 1.38 0 2.4-.2 3.06-.6.66-.42.99-.97.99-1.65 0-.5-.2-.91-.6-1.23-.38-.34-.88-.61-1.5-.81-.6-.2-1.42-.42-2.46-.66-1.6-.38-2.91-.76-3.93-1.14-1.02-.38-1.9-.99-2.64-1.83-.72-.84-1.08-1.96-1.08-3.36 0-1.22.33-2.32.99-3.3.66-1 1.65-1.79 2.97-2.37 1.34-.58 2.97-.87 4.89-.87 1.34 0 2.65.16 3.93.48 1.28.32 2.4.78 3.36 1.38l-1.5 3.69c-1.94-1.1-3.88-1.65-5.82-1.65-1.36 0-2.37.22-3.03.66-.64.44-.96 1.02-.96 1.74s.37 1.26 1.11 1.62c.76.34 1.91.68 3.45 1.02 1.6.38 2.91.76 3.93 1.14 1.02.38 1.89.98 2.61 1.8.74.82 1.11 1.93 1.11 3.33 0 1.2-.34 2.3-1.02 3.3-.66.98-1.66 1.76-3 2.34-1.34.58-2.97.87-4.89.87z" fill="#33B8FF"/><path d="M311.39 120.36c-1.66 0-3.27-.22-4.83-.66-1.54-.46-2.78-1.05-3.72-1.77l1.65-3.66c.9.66 1.97 1.19 3.21 1.59 1.24.4 2.48.6 3.72.6 1.38 0 2.4-.2 3.06-.6.66-.42.99-.97.99-1.65 0-.5-.2-.91-.6-1.23-.38-.34-.88-.61-1.5-.81-.6-.2-1.42-.42-2.46-.66-1.6-.38-2.91-.76-3.93-1.14-1.02-.38-1.9-.99-2.64-1.83-.72-.84-1.08-1.96-1.08-3.36 0-1.22.33-2.32.99-3.3.66-1 1.65-1.79 2.97-2.37 1.34-.58 2.97-.87 4.89-.87 1.34 0 2.65.16 3.93.48 1.28.32 2.4.78 3.36 1.38l-1.5 3.69c-1.94-1.1-3.88-1.65-5.82-1.65-1.36 0-2.37.22-3.03.66-.64.44-.96 1.02-.96 1.74s.37 1.26 1.11 1.62c.76.34 1.91.68 3.45 1.02 1.6.38 2.91.76 3.93 1.14 1.02.38 1.89.98 2.61 1.8.74.82 1.11 1.93 1.11 3.33 0 1.2-.34 2.3-1.02 3.3-.66.98-1.66 1.76-3 2.34-1.34.58-2.97.87-4.89.87z" fill="#C4C4C4"/><path fill="#F5A11A" d="M4 37h12v56H4zM55 57h12v36H55zM106 37h12v56h-12zM160 0h12v93h-12z"/></svg>