<svg width="1061" height="94" viewBox="0 0 1061 94" fill="none" xmlns="http://www.w3.org/2000/svg"><rect width="1061" height="94" rx="30" fill="#fff"/><path d="M48.3034 55.23c-1.242 0-2.4457-.1763-3.611-.529-1.15-.3527-2.0623-.8203-2.737-1.403l1.035-2.323c.6593.5213 1.4643.9507 2.415 1.288.966.322 1.932.483 2.898.483 1.196 0 2.0853-.1917 2.668-.575.598-.3833.897-.8893.897-1.518 0-.46-.1687-.8357-.506-1.127-.322-.3067-.736-.5443-1.242-.713-.506-.1687-1.196-.3603-2.07-.575-1.2267-.2913-2.2233-.5827-2.99-.874-.7513-.2913-1.403-.7437-1.955-1.357-.5367-.6287-.805-1.472-.805-2.53 0-.8893.2377-1.6943.713-2.415.4907-.736 1.219-1.3187 2.185-1.748.9813-.4293 2.1773-.644 3.588-.644.9813 0 1.9473.1227 2.898.368.9507.2453 1.771.598 2.461 1.058l-.943 2.323c-.7053-.414-1.4413-.7283-2.208-.943-.7667-.2147-1.5103-.322-2.231-.322-1.1807 0-2.0623.1993-2.645.598-.5673.3987-.851.9277-.851 1.587 0 .46.161.8357.483 1.127.3373.2913.759.5213 1.265.69.506.1687 1.196.3603 2.07.575 1.196.276 2.1773.5673 2.944.874.7667.2913 1.4183.7437 1.955 1.357.552.6133.828 1.4413.828 2.484 0 .8893-.2453 1.6943-.736 2.415-.4753.7207-1.2037 1.2957-2.185 1.725-.9813.4293-2.1773.644-3.588.644zm21.0888-12.512V55h-2.737v-1.564c-.46.552-1.035.9813-1.725 1.288-.69.2913-1.4336.437-2.231.437-1.6406 0-2.9363-.4523-3.887-1.357-.9353-.92-1.403-2.277-1.403-4.071v-7.015h2.875v6.624c0 1.104.2454 1.932.736 2.484.506.5367 1.219.805 2.139.805 1.0274 0 1.84-.3143 2.438-.943.6134-.644.92-1.564.92-2.76v-6.21h2.875zm6.5013 1.794c.828-1.288 2.2847-1.932 4.37-1.932v2.737c-.2453-.046-.4677-.069-.667-.069-1.1193 0-1.9933.3297-2.622.989-.6287.644-.943 1.5793-.943 2.806V55h-2.875V42.718h2.737v1.794zm13.6169-1.932c1.196 0 2.2617.2607 3.197.782.9507.5213 1.6943 1.2573 2.231 2.208.5367.9507.805 2.047.805 3.289s-.2683 2.346-.805 3.312c-.5367.9507-1.2803 1.6867-2.231 2.208-.9353.5213-2.001.782-3.197.782-1.656 0-2.967-.552-3.933-1.656v5.957h-2.875V42.718h2.737v1.61c.4753-.5827 1.058-1.0197 1.748-1.311.7053-.2913 1.4797-.437 2.323-.437zm-.322 10.12c1.058 0 1.9243-.3527 2.599-1.058.69-.7053 1.035-1.633 1.035-2.783s-.345-2.0777-1.035-2.783c-.6747-.7053-1.541-1.058-2.599-1.058-.69 0-1.311.161-1.863.483-.552.3067-.989.7513-1.311 1.334-.322.5827-.483 1.2573-.483 2.024 0 .7667.161 1.4413.483 2.024.322.5827.759 1.035 1.311 1.357.552.3067 1.173.46 1.863.46zm12.0186-8.188c.828-1.288 2.285-1.932 4.37-1.932v2.737c-.245-.046-.468-.069-.667-.069-1.119 0-1.993.3297-2.622.989-.629.644-.943 1.5793-.943 2.806V55H98.47V42.718h2.737v1.794zm6.809-1.794h2.875V55h-2.875V42.718zm1.449-2.024c-.521 0-.958-.161-1.311-.483-.353-.3373-.529-.7513-.529-1.242s.176-.897.529-1.219c.353-.3373.79-.506 1.311-.506.521 0 .958.161 1.311.483.353.3067.529.6977.529 1.173 0 .506-.176.9353-.529 1.288-.337.3373-.774.506-1.311.506zm8.994 14.467c-.996 0-1.97-.1303-2.921-.391-.95-.2607-1.709-.5903-2.277-.989l1.104-2.185c.552.368 1.212.667 1.978.897.782.2147 1.549.322 2.3.322 1.718 0 2.576-.4523 2.576-1.357 0-.4293-.222-.7283-.667-.897-.429-.1687-1.127-.3297-2.093-.483-1.012-.1533-1.84-.3297-2.484-.529-.628-.1993-1.18-.5443-1.656-1.035-.46-.506-.69-1.2037-.69-2.093 0-1.1653.483-2.093 1.449-2.783.982-.7053 2.3-1.058 3.956-1.058.844 0 1.687.0997 2.53.299.844.184 1.534.437 2.07.759l-1.104 2.185c-1.042-.6133-2.215-.92-3.519-.92-.843 0-1.487.1303-1.932.391-.429.2453-.644.575-.644.989 0 .46.23.7897.69.989.476.184 1.204.3603 2.185.529.982.1533 1.787.3297 2.415.529.629.1993 1.166.5367 1.61 1.012.46.4753.69 1.15.69 2.024 0 1.15-.498 2.07-1.495 2.76-.996.69-2.353 1.035-4.071 1.035zm19.588-6.233c0 .1993-.015.483-.046.851h-9.637c.169.9047.606 1.6253 1.311 2.162.721.5213 1.61.782 2.668.782 1.35 0 2.461-.4447 3.335-1.334l1.541 1.771c-.552.6593-1.249 1.1577-2.093 1.495-.843.3373-1.794.506-2.852.506-1.349 0-2.537-.2683-3.565-.805-1.027-.5367-1.824-1.2803-2.392-2.231-.552-.966-.828-2.0547-.828-3.266 0-1.196.269-2.2693.805-3.22.552-.966 1.311-1.7173 2.277-2.254.966-.5367 2.055-.805 3.266-.805 1.196 0 2.262.2683 3.197.805.951.5213 1.687 1.265 2.208 2.231.537.9507.805 2.0547.805 3.312zm-6.21-4.048c-.92 0-1.702.276-2.346.828-.628.5367-1.012 1.2573-1.15 2.162h6.969c-.122-.8893-.498-1.61-1.127-2.162-.628-.552-1.41-.828-2.346-.828zm8.604-5.98h3.404l-.575 10.764h-2.277l-.552-10.764zm1.702 16.261c-.537 0-.981-.1687-1.334-.506-.353-.3527-.529-.782-.529-1.288s.176-.9277.529-1.265c.353-.3373.797-.506 1.334-.506.521 0 .951.1687 1.288.506.353.3373.529.759.529 1.265 0 .506-.176.9353-.529 1.288-.337.3373-.767.506-1.288.506zm16.691.069c-1.242 0-2.446-.1763-3.611-.529-1.15-.3527-2.063-.8203-2.737-1.403l1.035-2.323c.659.5213 1.464.9507 2.415 1.288.966.322 1.932.483 2.898.483 1.196 0 2.085-.1917 2.668-.575.598-.3833.897-.8893.897-1.518 0-.46-.169-.8357-.506-1.127-.322-.3067-.736-.5443-1.242-.713-.506-.1687-1.196-.3603-2.07-.575-1.227-.2913-2.224-.5827-2.99-.874-.752-.2913-1.403-.7437-1.955-1.357-.537-.6287-.805-1.472-.805-2.53 0-.8893.237-1.6943.713-2.415.49-.736 1.219-1.3187 2.185-1.748.981-.4293 2.177-.644 3.588-.644.981 0 1.947.1227 2.898.368.95.2453 1.771.598 2.461 1.058l-.943 2.323c-.706-.414-1.442-.7283-2.208-.943-.767-.2147-1.511-.322-2.231-.322-1.181 0-2.063.1993-2.645.598-.568.3987-.851.9277-.851 1.587 0 .46.161.8357.483 1.127.337.2913.759.5213 1.265.69.506.1687 1.196.3603 2.07.575 1.196.276 2.177.5673 2.944.874.766.2913 1.418.7437 1.955 1.357.552.6133.828 1.4413.828 2.484 0 .8893-.246 1.6943-.736 2.415-.476.7207-1.204 1.2957-2.185 1.725-.982.4293-2.178.644-3.588.644zm16.581-.897c-.338.276-.752.483-1.242.621-.476.138-.982.207-1.518.207-1.35 0-2.392-.3527-3.128-1.058-.736-.7053-1.104-1.7327-1.104-3.082V45.11h-2.024v-2.3h2.024v-2.806h2.875v2.806h3.289v2.3h-3.289v5.842c0 .598.145 1.058.437 1.38.291.3067.713.46 1.265.46.644 0 1.18-.1687 1.61-.506l.805 2.047zm5.102-9.821c.828-1.288 2.284-1.932 4.37-1.932v2.737c-.246-.046-.468-.069-.667-.069-1.12 0-1.994.3297-2.622.989-.629.644-.943 1.5793-.943 2.806V55h-2.875V42.718h2.737v1.794zm11.433-1.932c1.809 0 3.189.437 4.14 1.311.966.8587 1.449 2.162 1.449 3.91V55h-2.714v-1.495c-.353.5367-.859.9507-1.518 1.242-.644.276-1.426.414-2.346.414-.92 0-1.725-.1533-2.415-.46-.69-.322-1.227-.759-1.61-1.311-.368-.5673-.552-1.2037-.552-1.909 0-1.104.406-1.9857 1.219-2.645.828-.6747 2.124-1.012 3.887-1.012h3.174v-.184c0-.8587-.261-1.518-.782-1.978-.506-.46-1.265-.69-2.277-.69-.69 0-1.372.1073-2.047.322-.659.2147-1.219.5137-1.679.897l-1.127-2.093c.644-.4907 1.418-.8663 2.323-1.127.905-.2607 1.863-.391 2.875-.391zm-.391 10.488c.721 0 1.357-.161 1.909-.483.567-.3373.966-.8127 1.196-1.426v-1.426h-2.967c-1.656 0-2.484.5443-2.484 1.633 0 .5213.207.9353.621 1.242.414.3067.989.46 1.725.46zm28.604-10.35L215.632 55h-2.76l-3.174-8.464-3.22 8.464h-2.76l-4.508-12.282h2.714l3.243 9.062 3.381-9.062h2.415l3.312 9.108 3.335-9.108h2.553zm8.785-.138c1.196 0 2.262.2607 3.197.782.951.5213 1.694 1.2573 2.231 2.208.537.9507.805 2.047.805 3.289s-.268 2.346-.805 3.312c-.537.9507-1.28 1.6867-2.231 2.208-.935.5213-2.001.782-3.197.782-.843 0-1.618-.1457-2.323-.437-.69-.2913-1.273-.7283-1.748-1.311V55h-2.737V37.934h2.875v6.279c.491-.5367 1.066-.943 1.725-1.219.675-.276 1.411-.414 2.208-.414zm-.322 10.12c1.058 0 1.924-.3527 2.599-1.058.69-.7053 1.035-1.633 1.035-2.783s-.345-2.0777-1.035-2.783c-.675-.7053-1.541-1.058-2.599-1.058-.69 0-1.311.161-1.863.483-.552.3067-.989.7513-1.311 1.334-.322.5827-.483 1.2573-.483 2.024 0 .7667.161 1.4413.483 2.024.322.5827.759 1.035 1.311 1.357.552.3067 1.173.46 1.863.46zm20.827-3.772c0 .1993-.015.483-.046.851h-9.637c.169.9047.606 1.6253 1.311 2.162.721.5213 1.61.782 2.668.782 1.35 0 2.461-.4447 3.335-1.334l1.541 1.771c-.552.6593-1.249 1.1577-2.093 1.495-.843.3373-1.794.506-2.852.506-1.349 0-2.537-.2683-3.565-.805-1.027-.5367-1.824-1.2803-2.392-2.231-.552-.966-.828-2.0547-.828-3.266 0-1.196.269-2.2693.805-3.22.552-.966 1.311-1.7173 2.277-2.254.966-.5367 2.055-.805 3.266-.805 1.196 0 2.262.2683 3.197.805.951.5213 1.687 1.265 2.208 2.231.537.9507.805 2.0547.805 3.312zm-6.21-4.048c-.92 0-1.702.276-2.346.828-.628.5367-1.012 1.2573-1.15 2.162h6.969c-.122-.8893-.498-1.61-1.127-2.162-.628-.552-1.41-.828-2.346-.828zm11.709-.368c.828-1.288 2.285-1.932 4.37-1.932v2.737c-.245-.046-.468-.069-.667-.069-1.119 0-1.993.3297-2.622.989-.629.644-.943 1.5793-.943 2.806V55h-2.875V42.718h2.737v1.794zm9.546 0c.828-1.288 2.285-1.932 4.37-1.932v2.737c-.245-.046-.468-.069-.667-.069-1.119 0-1.993.3297-2.622.989-.629.644-.943 1.5793-.943 2.806V55h-2.875V42.718h2.737v1.794zm6.809-1.794h2.875V55h-2.875V42.718zm1.449-2.024c-.521 0-.958-.161-1.311-.483-.353-.3373-.529-.7513-.529-1.242s.176-.897.529-1.219c.353-.3373.79-.506 1.311-.506.521 0 .958.161 1.311.483.353.3067.529.6977.529 1.173 0 .506-.176.9353-.529 1.288-.337.3373-.774.506-1.311.506zm16.745 8.234c0 .1993-.015.483-.046.851h-9.637c.169.9047.606 1.6253 1.311 2.162.721.5213 1.61.782 2.668.782 1.35 0 2.461-.4447 3.335-1.334l1.541 1.771c-.552.6593-1.249 1.1577-2.093 1.495-.843.3373-1.794.506-2.852.506-1.349 0-2.537-.2683-3.565-.805-1.027-.5367-1.824-1.2803-2.392-2.231-.552-.966-.828-2.0547-.828-3.266 0-1.196.269-2.2693.805-3.22.552-.966 1.311-1.7173 2.277-2.254.966-.5367 2.055-.805 3.266-.805 1.196 0 2.262.2683 3.197.805.951.5213 1.687 1.265 2.208 2.231.537.9507.805 2.0547.805 3.312zm-6.21-4.048c-.92 0-1.702.276-2.346.828-.628.5367-1.012 1.2573-1.15 2.162h6.969c-.122-.8893-.498-1.61-1.127-2.162-.628-.552-1.41-.828-2.346-.828zm12.767 10.281c-.997 0-1.97-.1303-2.921-.391-.951-.2607-1.71-.5903-2.277-.989l1.104-2.185c.552.368 1.211.667 1.978.897.782.2147 1.549.322 2.3.322 1.717 0 2.576-.4523 2.576-1.357 0-.4293-.222-.7283-.667-.897-.429-.1687-1.127-.3297-2.093-.483-1.012-.1533-1.84-.3297-2.484-.529-.629-.1993-1.181-.5443-1.656-1.035-.46-.506-.69-1.2037-.69-2.093 0-1.1653.483-2.093 1.449-2.783.981-.7053 2.3-1.058 3.956-1.058.843 0 1.687.0997 2.53.299.843.184 1.533.437 2.07.759l-1.104 2.185c-1.043-.6133-2.216-.92-3.519-.92-.843 0-1.487.1303-1.932.391-.429.2453-.644.575-.644.989 0 .46.23.7897.69.989.475.184 1.204.3603 2.185.529.981.1533 1.786.3297 2.415.529.629.1993 1.165.5367 1.61 1.012.46.4753.69 1.15.69 2.024 0 1.15-.498 2.07-1.495 2.76-.997.69-2.354 1.035-4.071 1.035zm21.367-12.581c1.549 0 2.791.4523 3.726 1.357.936.9047 1.403 2.2463 1.403 4.025V55h-2.875v-6.67c0-1.0733-.253-1.8783-.759-2.415-.506-.552-1.226-.828-2.162-.828-1.058 0-1.893.322-2.507.966-.613.6287-.92 1.541-.92 2.737V55h-2.875V37.934h2.875v6.21c.476-.506 1.058-.8893 1.748-1.15.706-.276 1.488-.414 2.346-.414zm13.468 0c1.81 0 3.19.437 4.14 1.311.966.8587 1.449 2.162 1.449 3.91V55h-2.714v-1.495c-.352.5367-.858.9507-1.518 1.242-.644.276-1.426.414-2.346.414-.92 0-1.725-.1533-2.415-.46-.69-.322-1.226-.759-1.61-1.311-.368-.5673-.552-1.2037-.552-1.909 0-1.104.407-1.9857 1.219-2.645.828-.6747 2.124-1.012 3.887-1.012h3.174v-.184c0-.8587-.26-1.518-.782-1.978-.506-.46-1.265-.69-2.277-.69-.69 0-1.372.1073-2.047.322-.659.2147-1.219.5137-1.679.897l-1.127-2.093c.644-.4907 1.419-.8663 2.323-1.127.905-.2607 1.863-.391 2.875-.391zm-.391 10.488c.721 0 1.357-.161 1.909-.483.568-.3373.966-.8127 1.196-1.426v-1.426h-2.967c-1.656 0-2.484.5443-2.484 1.633 0 .5213.207.9353.621 1.242.414.3067.989.46 1.725.46zm20.946-10.35L346.181 55h-2.967l-5.267-12.282h2.99l3.818 9.108 3.933-9.108h2.76zm13.005 6.21c0 .1993-.015.483-.046.851h-9.637c.169.9047.606 1.6253 1.311 2.162.721.5213 1.61.782 2.668.782 1.35 0 2.461-.4447 3.335-1.334l1.541 1.771c-.552.6593-1.249 1.1577-2.093 1.495-.843.3373-1.794.506-2.852.506-1.349 0-2.537-.2683-3.565-.805-1.027-.5367-1.824-1.2803-2.392-2.231-.552-.966-.828-2.0547-.828-3.266 0-1.196.269-2.2693.805-3.22.552-.966 1.311-1.7173 2.277-2.254.966-.5367 2.055-.805 3.266-.805 1.196 0 2.262.2683 3.197.805.951.5213 1.687 1.265 2.208 2.231.537.9507.805 2.0547.805 3.312zm-6.21-4.048c-.92 0-1.702.276-2.346.828-.628.5367-1.012 1.2573-1.15 2.162h6.969c-.122-.8893-.498-1.61-1.127-2.162-.628-.552-1.41-.828-2.346-.828zm19.883-6.21c2.208 0 3.917.69 5.129 2.07 1.226 1.38 1.84 3.358 1.84 5.934 0 1.8093-.33 3.358-.989 4.646-.66 1.2727-1.587 2.2463-2.783 2.921-1.181.6593-2.553.989-4.117.989-.828 0-1.61-.0843-2.346-.253-.721-.184-1.35-.4447-1.886-.782l1.104-2.254c.797.5213 1.817.782 3.059.782 1.548 0 2.76-.4753 3.634-1.426.874-.9507 1.311-2.323 1.311-4.117v-.023c-.476.552-1.081.9737-1.817 1.265-.736.276-1.564.414-2.484.414-1.058 0-2.009-.1993-2.852-.598-.844-.414-1.503-.9967-1.978-1.748-.476-.7513-.713-1.6177-.713-2.599 0-1.0427.26-1.955.782-2.737.521-.7973 1.226-1.4107 2.116-1.84.889-.4293 1.886-.644 2.99-.644zm.23 7.82c.966 0 1.748-.2607 2.346-.782.613-.5213.92-1.1807.92-1.978 0-.782-.299-1.426-.897-1.932-.583-.5213-1.396-.782-2.438-.782-.936 0-1.695.253-2.277.759-.583.4907-.874 1.15-.874 1.978 0 .8433.291 1.5103.874 2.001.582.4907 1.364.736 2.346.736zm19.203.046c.844.3833 1.488.9047 1.932 1.564.46.644.69 1.403.69 2.277 0 .9813-.276 1.84-.828 2.576-.536.736-1.303 1.3033-2.3 1.702-.996.3833-2.154.575-3.473.575-1.318 0-2.476-.1917-3.473-.575-.981-.3987-1.74-.966-2.277-1.702-.536-.736-.805-1.5947-.805-2.576 0-.874.223-1.633.667-2.277.445-.6593 1.081-1.1807 1.909-1.564-.644-.3527-1.142-.8127-1.495-1.38-.337-.5827-.506-1.2497-.506-2.001 0-.9047.246-1.6943.736-2.369.506-.6747 1.212-1.196 2.116-1.564.905-.368 1.948-.552 3.128-.552 1.196 0 2.247.184 3.151.552.905.368 1.61.8893 2.116 1.564.506.6747.759 1.4643.759 2.369 0 .7513-.176 1.4107-.529 1.978-.352.5673-.858 1.035-1.518 1.403zm-3.979-5.52c-.935 0-1.679.1993-2.231.598-.536.3987-.805.9583-.805 1.679 0 .69.269 1.242.805 1.656.552.3987 1.296.598 2.231.598.951 0 1.702-.1993 2.254-.598.552-.414.828-.966.828-1.656 0-.7207-.283-1.2803-.851-1.679-.552-.3987-1.295-.598-2.231-.598zm0 11.868c1.104 0 1.978-.23 2.622-.69.644-.46.966-1.0963.966-1.909 0-.7973-.322-1.426-.966-1.886-.644-.46-1.518-.69-2.622-.69-1.104 0-1.97.23-2.599.69-.628.46-.943 1.0887-.943 1.886 0 .8127.315 1.449.943 1.909.629.46 1.495.69 2.599.69zm24.917-10.304c1.549 0 2.776.4523 3.68 1.357.905.8893 1.357 2.231 1.357 4.025V55h-2.875v-6.67c0-1.0733-.237-1.8783-.713-2.415-.475-.552-1.157-.828-2.047-.828-.966 0-1.74.322-2.323.966-.582.6287-.874 1.5333-.874 2.714V55h-2.875v-6.67c0-1.0733-.237-1.8783-.713-2.415-.475-.552-1.157-.828-2.047-.828-.981 0-1.763.3143-2.346.943-.567.6287-.851 1.541-.851 2.737V55h-2.875V42.718h2.737v1.564c.46-.552 1.035-.9737 1.725-1.265.69-.2913 1.457-.437 2.3-.437.92 0 1.733.1763 2.438.529.721.3373 1.288.8433 1.702 1.518.506-.644 1.158-1.1423 1.955-1.495.798-.368 1.679-.552 2.645-.552zm21.014.138v10.419c0 4.324-2.208 6.486-6.624 6.486-1.181 0-2.3-.1533-3.358-.46-1.058-.2913-1.932-.7207-2.622-1.288l1.288-2.162c.536.4447 1.211.7973 2.024 1.058.828.276 1.663.414 2.507.414 1.349 0 2.338-.3067 2.967-.92.628-.6133.943-1.5487.943-2.806v-.644c-.491.5367-1.089.943-1.794 1.219-.706.276-1.48.414-2.323.414-1.166 0-2.224-.2453-3.174-.736-.936-.506-1.679-1.2113-2.231-2.116-.537-.9047-.805-1.9397-.805-3.105s.268-2.1927.805-3.082c.552-.9047 1.295-1.6023 2.231-2.093.95-.4907 2.008-.736 3.174-.736.889 0 1.694.1457 2.415.437.736.2913 1.349.736 1.84 1.334v-1.633h2.737zm-6.555 9.292c1.088 0 1.978-.322 2.668-.966.705-.6593 1.058-1.5103 1.058-2.553 0-1.0273-.353-1.863-1.058-2.507-.69-.644-1.58-.966-2.668-.966-1.104 0-2.009.322-2.714.966-.69.644-1.035 1.4797-1.035 2.507 0 1.0427.345 1.8937 1.035 2.553.705.644 1.61.966 2.714.966zm22.211 3.151c-1.242 0-2.362-.2683-3.358-.805-.997-.5367-1.779-1.2803-2.346-2.231-.552-.966-.828-2.0547-.828-3.266s.276-2.2923.828-3.243c.567-.9507 1.349-1.6943 2.346-2.231.996-.5367 2.116-.805 3.358-.805 1.257 0 2.384.2683 3.381.805.996.5367 1.771 1.2803 2.323 2.231.567.9507.851 2.0317.851 3.243s-.284 2.3-.851 3.266c-.552.9507-1.327 1.6943-2.323 2.231-.997.5367-2.124.805-3.381.805zm0-2.461c1.058 0 1.932-.3527 2.622-1.058s1.035-1.633 1.035-2.783-.345-2.0777-1.035-2.783c-.69-.7053-1.564-1.058-2.622-1.058-1.058 0-1.932.3527-2.622 1.058-.675.7053-1.012 1.633-1.012 2.783s.337 2.0777 1.012 2.783c.69.7053 1.564 1.058 2.622 1.058zm14.295-12.604c-1.211 0-1.817.6593-1.817 1.978v.736h3.381v2.3h-3.289V55h-2.875v-9.89h-2.024v-2.3h2.024v-.782c0-1.3187.383-2.3537 1.15-3.105.767-.7667 1.848-1.15 3.243-1.15 1.104 0 1.97.2223 2.599.667l-.805 2.162c-.491-.3373-1.02-.506-1.587-.506zm24.852-1.196L487.299 55h-2.944l-7.038-16.1h3.243l5.359 12.42 5.405-12.42h2.99zm1.535 3.818h2.875V55h-2.875V42.718zm1.449-2.024c-.521 0-.958-.161-1.311-.483-.353-.3373-.529-.7513-.529-1.242s.176-.897.529-1.219c.353-.3373.79-.506 1.311-.506.521 0 .958.161 1.311.483.353.3067.529.6977.529 1.173 0 .506-.176.9353-.529 1.288-.337.3373-.774.506-1.311.506zm12.582 13.639c-.337.276-.751.483-1.242.621-.475.138-.981.207-1.518.207-1.349 0-2.392-.3527-3.128-1.058-.736-.7053-1.104-1.7327-1.104-3.082V45.11h-2.024v-2.3h2.024v-2.806h2.875v2.806h3.289v2.3h-3.289v5.842c0 .598.146 1.058.437 1.38.292.3067.713.46 1.265.46.644 0 1.181-.1687 1.61-.506l.805 2.047zm7.057-11.753c1.81 0 3.19.437 4.14 1.311.966.8587 1.449 2.162 1.449 3.91V55h-2.714v-1.495c-.352.5367-.858.9507-1.518 1.242-.644.276-1.426.414-2.346.414-.92 0-1.725-.1533-2.415-.46-.69-.322-1.226-.759-1.61-1.311-.368-.5673-.552-1.2037-.552-1.909 0-1.104.407-1.9857 1.219-2.645.828-.6747 2.124-1.012 3.887-1.012h3.174v-.184c0-.8587-.26-1.518-.782-1.978-.506-.46-1.265-.69-2.277-.69-.69 0-1.372.1073-2.047.322-.659.2147-1.219.5137-1.679.897l-1.127-2.093c.644-.4907 1.419-.8663 2.323-1.127.905-.2607 1.863-.391 2.875-.391zm-.391 10.488c.721 0 1.357-.161 1.909-.483.568-.3373.966-.8127 1.196-1.426v-1.426h-2.967c-1.656 0-2.484.5443-2.484 1.633 0 .5213.207.9353.621 1.242.414.3067.989.46 1.725.46zm25.172-10.488c1.549 0 2.775.4523 3.68 1.357.905.8893 1.357 2.231 1.357 4.025V55h-2.875v-6.67c0-1.0733-.238-1.8783-.713-2.415-.475-.552-1.158-.828-2.047-.828-.966 0-1.74.322-2.323.966-.583.6287-.874 1.5333-.874 2.714V55h-2.875v-6.67c0-1.0733-.238-1.8783-.713-2.415-.475-.552-1.158-.828-2.047-.828-.981 0-1.763.3143-2.346.943-.567.6287-.851 1.541-.851 2.737V55h-2.875V42.718h2.737v1.564c.46-.552 1.035-.9737 1.725-1.265.69-.2913 1.457-.437 2.3-.437.92 0 1.733.1763 2.438.529.721.3373 1.288.8433 1.702 1.518.506-.644 1.158-1.1423 1.955-1.495.797-.368 1.679-.552 2.645-.552zm8.711.138h2.875V55h-2.875V42.718zm1.449-2.024c-.521 0-.958-.161-1.311-.483-.353-.3373-.529-.7513-.529-1.242s.176-.897.529-1.219c.353-.3373.79-.506 1.311-.506.521 0 .958.161 1.311.483.353.3067.529.6977.529 1.173 0 .506-.176.9353-.529 1.288-.337.3373-.774.506-1.311.506zm12.168 1.886c1.549 0 2.791.4523 3.726 1.357.936.9047 1.403 2.2463 1.403 4.025V55H566.3v-6.67c0-1.0733-.253-1.8783-.759-2.415-.506-.552-1.226-.828-2.162-.828-1.058 0-1.893.322-2.507.966-.613.6287-.92 1.541-.92 2.737V55h-2.875V42.718h2.737v1.587c.476-.5673 1.074-.9967 1.794-1.288.721-.2913 1.534-.437 2.438-.437zm22.861 12.65c-1.625 0-3.097-.3527-4.416-1.058-1.303-.7207-2.331-1.7097-3.082-2.967-.736-1.2573-1.104-2.6757-1.104-4.255s.376-2.9977 1.127-4.255c.751-1.2573 1.779-2.2387 3.082-2.944 1.319-.7207 2.791-1.081 4.416-1.081 1.319 0 2.522.23 3.611.69 1.089.46 2.009 1.127 2.76 2.001l-1.932 1.817c-1.165-1.2573-2.599-1.886-4.301-1.886-1.104 0-2.093.2453-2.967.736-.874.4753-1.556 1.1423-2.047 2.001-.491.8587-.736 1.8323-.736 2.921 0 1.0887.245 2.0623.736 2.921.491.8587 1.173 1.5333 2.047 2.024.874.4753 1.863.713 2.967.713 1.702 0 3.136-.6363 4.301-1.909l1.932 1.84c-.751.874-1.679 1.541-2.783 2.001-1.089.46-2.292.69-3.611.69zm22.147-12.65c1.196 0 2.262.2607 3.197.782.951.5213 1.695 1.2573 2.231 2.208.537.9507.805 2.047.805 3.289s-.268 2.346-.805 3.312c-.536.9507-1.28 1.6867-2.231 2.208-.935.5213-2.001.782-3.197.782-1.656 0-2.967-.552-3.933-1.656v5.957h-2.875V42.718h2.737v1.61c.476-.5827 1.058-1.0197 1.748-1.311.706-.2913 1.48-.437 2.323-.437zm-.322 10.12c1.058 0 1.925-.3527 2.599-1.058.69-.7053 1.035-1.633 1.035-2.783s-.345-2.0777-1.035-2.783c-.674-.7053-1.541-1.058-2.599-1.058-.69 0-1.311.161-1.863.483-.552.3067-.989.7513-1.311 1.334-.322.5827-.483 1.2573-.483 2.024 0 .7667.161 1.4413.483 2.024.322.5827.759 1.035 1.311 1.357.552.3067 1.173.46 1.863.46zm20.828-3.772c0 .1993-.015.483-.046.851h-9.637c.169.9047.606 1.6253 1.311 2.162.721.5213 1.61.782 2.668.782 1.349 0 2.461-.4447 3.335-1.334l1.541 1.771c-.552.6593-1.25 1.1577-2.093 1.495-.843.3373-1.794.506-2.852.506-1.349 0-2.538-.2683-3.565-.805-1.027-.5367-1.825-1.2803-2.392-2.231-.552-.966-.828-2.0547-.828-3.266 0-1.196.268-2.2693.805-3.22.552-.966 1.311-1.7173 2.277-2.254.966-.5367 2.055-.805 3.266-.805 1.196 0 2.262.2683 3.197.805.951.5213 1.687 1.265 2.208 2.231.537.9507.805 2.0547.805 3.312zm-6.21-4.048c-.92 0-1.702.276-2.346.828-.629.5367-1.012 1.2573-1.15 2.162h6.969c-.123-.8893-.498-1.61-1.127-2.162-.629-.552-1.411-.828-2.346-.828zm11.709-.368c.828-1.288 2.284-1.932 4.37-1.932v2.737c-.246-.046-.468-.069-.667-.069-1.12 0-1.994.3297-2.622.989-.629.644-.943 1.5793-.943 2.806V55h-2.875V42.718h2.737v1.794zm18.912 10.649c-1.272 0-2.415-.2683-3.427-.805-1.012-.5367-1.801-1.2803-2.369-2.231-.567-.966-.851-2.0547-.851-3.266s.284-2.2923.851-3.243c.568-.9507 1.35-1.6943 2.346-2.231 1.012-.5367 2.162-.805 3.45-.805 1.212 0 2.27.2453 3.174.736.92.4907 1.61 1.196 2.07 2.116l-2.208 1.288c-.352-.5673-.797-.989-1.334-1.265-.521-.2913-1.096-.437-1.725-.437-1.073 0-1.962.3527-2.668 1.058-.705.69-1.058 1.6177-1.058 2.783s.345 2.1007 1.035 2.806c.706.69 1.603 1.035 2.691 1.035.629 0 1.204-.138 1.725-.414.537-.2913.982-.7207 1.334-1.288l2.208 1.288c-.475.92-1.173 1.633-2.093 2.139-.904.4907-1.955.736-3.151.736zm19.62-12.443V55h-2.737v-1.564c-.46.552-1.035.9813-1.725 1.288-.69.2913-1.433.437-2.231.437-1.64 0-2.936-.4523-3.887-1.357-.935-.92-1.403-2.277-1.403-4.071v-7.015h2.875v6.624c0 1.104.246 1.932.736 2.484.506.5367 1.219.805 2.139.805 1.028 0 1.84-.3143 2.438-.943.614-.644.92-1.564.92-2.76v-6.21h2.875zm10.573-.138c1.196 0 2.261.2607 3.197.782.95.5213 1.694 1.2573 2.231 2.208.536.9507.805 2.047.805 3.289s-.269 2.346-.805 3.312c-.537.9507-1.281 1.6867-2.231 2.208-.936.5213-2.001.782-3.197.782-1.656 0-2.967-.552-3.933-1.656v5.957h-2.875V42.718h2.737v1.61c.475-.5827 1.058-1.0197 1.748-1.311.705-.2913 1.479-.437 2.323-.437zm-.322 10.12c1.058 0 1.924-.3527 2.599-1.058.69-.7053 1.035-1.633 1.035-2.783s-.345-2.0777-1.035-2.783c-.675-.7053-1.541-1.058-2.599-1.058-.69 0-1.311.161-1.863.483-.552.3067-.989.7513-1.311 1.334-.322.5827-.483 1.2573-.483 2.024 0 .7667.161 1.4413.483 2.024.322.5827.759 1.035 1.311 1.357.552.3067 1.173.46 1.863.46zm10-1.357c.536 0 .981.1763 1.334.529.352.3527.529.8127.529 1.38 0 .2453-.039.506-.115.782-.062.2607-.2.6593-.414 1.196l-1.173 3.243h-1.863l.92-3.519c-.338-.138-.606-.3527-.805-.644-.184-.3067-.276-.6593-.276-1.058 0-.5673.176-1.0273.529-1.38.352-.3527.797-.529 1.334-.529zm30.187-8.625L719.498 55h-2.76l-3.174-8.464-3.22 8.464h-2.76l-4.508-12.282h2.714l3.243 9.062 3.381-9.062h2.415l3.312 9.108 3.335-9.108h2.553zm8.946-.138c1.549 0 2.791.4523 3.726 1.357.935.9047 1.403 2.2463 1.403 4.025V55h-2.875v-6.67c0-1.0733-.253-1.8783-.759-2.415-.506-.552-1.227-.828-2.162-.828-1.058 0-1.894.322-2.507.966-.613.6287-.92 1.541-.92 2.737V55h-2.875V37.934h2.875v6.21c.475-.506 1.058-.8893 1.748-1.15.705-.276 1.487-.414 2.346-.414zm20.435 6.348c0 .1993-.016.483-.046.851h-9.637c.168.9047.605 1.6253 1.311 2.162.72.5213 1.61.782 2.668.782 1.349 0 2.461-.4447 3.335-1.334l1.541 1.771c-.552.6593-1.25 1.1577-2.093 1.495-.844.3373-1.794.506-2.852.506-1.35 0-2.538-.2683-3.565-.805-1.028-.5367-1.825-1.2803-2.392-2.231-.552-.966-.828-2.0547-.828-3.266 0-1.196.268-2.2693.805-3.22.552-.966 1.311-1.7173 2.277-2.254.966-.5367 2.054-.805 3.266-.805 1.196 0 2.261.2683 3.197.805.95.5213 1.686 1.265 2.208 2.231.536.9507.805 2.0547.805 3.312zm-6.21-4.048c-.92 0-1.702.276-2.346.828-.629.5367-1.012 1.2573-1.15 2.162h6.969c-.123-.8893-.499-1.61-1.127-2.162-.629-.552-1.411-.828-2.346-.828zm11.708-.368c.828-1.288 2.285-1.932 4.37-1.932v2.737c-.245-.046-.468-.069-.667-.069-1.119 0-1.993.3297-2.622.989-.629.644-.943 1.5793-.943 2.806V55h-2.875V42.718h2.737v1.794zm18.243 4.416c0 .1993-.016.483-.046.851h-9.637c.168.9047.605 1.6253 1.311 2.162.72.5213 1.61.782 2.668.782 1.349 0 2.461-.4447 3.335-1.334l1.541 1.771c-.552.6593-1.25 1.1577-2.093 1.495-.844.3373-1.794.506-2.852.506-1.35 0-2.538-.2683-3.565-.805-1.028-.5367-1.825-1.2803-2.392-2.231-.552-.966-.828-2.0547-.828-3.266 0-1.196.268-2.2693.805-3.22.552-.966 1.311-1.7173 2.277-2.254.966-.5367 2.054-.805 3.266-.805 1.196 0 2.261.2683 3.197.805.95.5213 1.686 1.265 2.208 2.231.536.9507.805 2.0547.805 3.312zm-6.21-4.048c-.92 0-1.702.276-2.346.828-.629.5367-1.012 1.2573-1.15 2.162h6.969c-.123-.8893-.499-1.61-1.127-2.162-.629-.552-1.411-.828-2.346-.828zm20.848 10.281c-1.242 0-2.362-.2683-3.358-.805-.997-.5367-1.779-1.2803-2.346-2.231-.552-.966-.828-2.0547-.828-3.266s.276-2.2923.828-3.243c.567-.9507 1.349-1.6943 2.346-2.231.996-.5367 2.116-.805 3.358-.805 1.257 0 2.384.2683 3.381.805.996.5367 1.771 1.2803 2.323 2.231.567.9507.851 2.0317.851 3.243s-.284 2.3-.851 3.266c-.552.9507-1.327 1.6943-2.323 2.231-.997.5367-2.124.805-3.381.805zm0-2.461c1.058 0 1.932-.3527 2.622-1.058s1.035-1.633 1.035-2.783-.345-2.0777-1.035-2.783c-.69-.7053-1.564-1.058-2.622-1.058-1.058 0-1.932.3527-2.622 1.058-.675.7053-1.012 1.633-1.012 2.783s.337 2.0777 1.012 2.783c.69.7053 1.564 1.058 2.622 1.058zm12.041-8.188c.828-1.288 2.285-1.932 4.37-1.932v2.737c-.245-.046-.468-.069-.667-.069-1.119 0-1.993.3297-2.622.989-.629.644-.943 1.5793-.943 2.806V55h-2.875V42.718h2.737v1.794zm11.434-1.932c1.809 0 3.189.437 4.14 1.311.966.8587 1.449 2.162 1.449 3.91V55h-2.714v-1.495c-.353.5367-.859.9507-1.518 1.242-.644.276-1.426.414-2.346.414-.92 0-1.725-.1533-2.415-.46-.69-.322-1.227-.759-1.61-1.311-.368-.5673-.552-1.2037-.552-1.909 0-1.104.406-1.9857 1.219-2.645.828-.6747 2.123-1.012 3.887-1.012h3.174v-.184c0-.8587-.261-1.518-.782-1.978-.506-.46-1.265-.69-2.277-.69-.69 0-1.373.1073-2.047.322-.66.2147-1.219.5137-1.679.897l-1.127-2.093c.644-.4907 1.418-.8663 2.323-1.127.904-.2607 1.863-.391 2.875-.391zm-.391 10.488c.72 0 1.357-.161 1.909-.483.567-.3373.966-.8127 1.196-1.426v-1.426h-2.967c-1.656 0-2.484.5443-2.484 1.633 0 .5213.207.9353.621 1.242.414.3067.989.46 1.725.46zm16.638-10.488c1.549 0 2.791.4523 3.726 1.357.936.9047 1.403 2.2463 1.403 4.025V55h-2.875v-6.67c0-1.0733-.253-1.8783-.759-2.415-.506-.552-1.226-.828-2.162-.828-1.058 0-1.893.322-2.507.966-.613.6287-.92 1.541-.92 2.737V55h-2.875V42.718h2.737v1.587c.476-.5673 1.074-.9967 1.794-1.288.721-.2913 1.534-.437 2.438-.437zm21.079.138v10.419c0 4.324-2.208 6.486-6.624 6.486-1.181 0-2.3-.1533-3.358-.46-1.058-.2913-1.932-.7207-2.622-1.288l1.288-2.162c.536.4447 1.211.7973 2.024 1.058.828.276 1.663.414 2.507.414 1.349 0 2.338-.3067 2.967-.92.628-.6133.943-1.5487.943-2.806v-.644c-.491.5367-1.089.943-1.794 1.219-.706.276-1.48.414-2.323.414-1.166 0-2.224-.2453-3.174-.736-.936-.506-1.679-1.2113-2.231-2.116-.537-.9047-.805-1.9397-.805-3.105s.268-2.1927.805-3.082c.552-.9047 1.295-1.6023 2.231-2.093.95-.4907 2.008-.736 3.174-.736.889 0 1.694.1457 2.415.437.736.2913 1.349.736 1.84 1.334v-1.633h2.737zm-6.555 9.292c1.088 0 1.978-.322 2.668-.966.705-.6593 1.058-1.5103 1.058-2.553 0-1.0273-.353-1.863-1.058-2.507-.69-.644-1.58-.966-2.668-.966-1.104 0-2.009.322-2.714.966-.69.644-1.035 1.4797-1.035 2.507 0 1.0427.345 1.8937 1.035 2.553.705.644 1.61.966 2.714.966zm21.88-3.082c0 .1993-.015.483-.046.851h-9.637c.169.9047.606 1.6253 1.311 2.162.721.5213 1.61.782 2.668.782 1.35 0 2.461-.4447 3.335-1.334l1.541 1.771c-.552.6593-1.249 1.1577-2.093 1.495-.843.3373-1.794.506-2.852.506-1.349 0-2.537-.2683-3.565-.805-1.027-.5367-1.824-1.2803-2.392-2.231-.552-.966-.828-2.0547-.828-3.266 0-1.196.269-2.2693.805-3.22.552-.966 1.311-1.7173 2.277-2.254.966-.5367 2.055-.805 3.266-.805 1.196 0 2.262.2683 3.197.805.951.5213 1.687 1.265 2.208 2.231.537.9507.805 2.0547.805 3.312zm-6.21-4.048c-.92 0-1.702.276-2.346.828-.628.5367-1.012 1.2573-1.15 2.162h6.969c-.122-.8893-.498-1.61-1.127-2.162-.628-.552-1.41-.828-2.346-.828zm12.767 10.281c-.997 0-1.97-.1303-2.921-.391-.951-.2607-1.71-.5903-2.277-.989l1.104-2.185c.552.368 1.211.667 1.978.897.782.2147 1.549.322 2.3.322 1.717 0 2.576-.4523 2.576-1.357 0-.4293-.222-.7283-.667-.897-.429-.1687-1.127-.3297-2.093-.483-1.012-.1533-1.84-.3297-2.484-.529-.629-.1993-1.181-.5443-1.656-1.035-.46-.506-.69-1.2037-.69-2.093 0-1.1653.483-2.093 1.449-2.783.981-.7053 2.3-1.058 3.956-1.058.843 0 1.687.0997 2.53.299.843.184 1.533.437 2.07.759l-1.104 2.185c-1.043-.6133-2.216-.92-3.519-.92-.843 0-1.487.1303-1.932.391-.429.2453-.644.575-.644.989 0 .46.23.7897.69.989.475.184 1.204.3603 2.185.529.981.1533 1.786.3297 2.415.529.629.1993 1.165.5367 1.61 1.012.46.4753.69 1.15.69 2.024 0 1.15-.498 2.07-1.495 2.76-.997.69-2.354 1.035-4.071 1.035zm21.367-12.581c1.549 0 2.791.4523 3.726 1.357.936.9047 1.403 2.2463 1.403 4.025V55h-2.875v-6.67c0-1.0733-.253-1.8783-.759-2.415-.506-.552-1.226-.828-2.162-.828-1.058 0-1.893.322-2.507.966-.613.6287-.92 1.541-.92 2.737V55h-2.875V37.934h2.875v6.21c.476-.506 1.058-.8893 1.748-1.15.706-.276 1.488-.414 2.346-.414zm13.468 0c1.81 0 3.19.437 4.14 1.311.966.8587 1.449 2.162 1.449 3.91V55h-2.714v-1.495c-.352.5367-.858.9507-1.518 1.242-.644.276-1.426.414-2.346.414-.92 0-1.725-.1533-2.415-.46-.69-.322-1.226-.759-1.61-1.311-.368-.5673-.552-1.2037-.552-1.909 0-1.104.407-1.9857 1.219-2.645.828-.6747 2.124-1.012 3.887-1.012h3.174v-.184c0-.8587-.26-1.518-.782-1.978-.506-.46-1.265-.69-2.277-.69-.69 0-1.372.1073-2.047.322-.659.2147-1.219.5137-1.679.897l-1.127-2.093c.644-.4907 1.419-.8663 2.323-1.127.905-.2607 1.863-.391 2.875-.391zm-.391 10.488c.721 0 1.357-.161 1.909-.483.568-.3373.966-.8127 1.196-1.426v-1.426h-2.967c-1.656 0-2.484.5443-2.484 1.633 0 .5213.207.9353.621 1.242.414.3067.989.46 1.725.46zm20.946-10.35L924.595 55h-2.967l-5.267-12.282h2.99l3.818 9.108 3.933-9.108h2.76zm13.006 6.21c0 .1993-.016.483-.046.851h-9.637c.168.9047.605 1.6253 1.311 2.162.72.5213 1.61.782 2.668.782 1.349 0 2.461-.4447 3.335-1.334l1.541 1.771c-.552.6593-1.25 1.1577-2.093 1.495-.844.3373-1.794.506-2.852.506-1.35 0-2.538-.2683-3.565-.805-1.028-.5367-1.825-1.2803-2.392-2.231-.552-.966-.828-2.0547-.828-3.266 0-1.196.268-2.2693.805-3.22.552-.966 1.311-1.7173 2.277-2.254.966-.5367 2.054-.805 3.266-.805 1.196 0 2.261.2683 3.197.805.95.5213 1.686 1.265 2.208 2.231.536.9507.805 2.0547.805 3.312zm-6.21-4.048c-.92 0-1.702.276-2.346.828-.629.5367-1.012 1.2573-1.15 2.162h6.969c-.123-.8893-.499-1.61-1.127-2.162-.629-.552-1.411-.828-2.346-.828zm19.882-6.21c2.208 0 3.917.69 5.129 2.07 1.226 1.38 1.84 3.358 1.84 5.934 0 1.8093-.33 3.358-.989 4.646-.66 1.2727-1.587 2.2463-2.783 2.921-1.181.6593-2.553.989-4.117.989-.828 0-1.61-.0843-2.346-.253-.721-.184-1.35-.4447-1.886-.782l1.104-2.254c.797.5213 1.817.782 3.059.782 1.548 0 2.76-.4753 3.634-1.426.874-.9507 1.311-2.323 1.311-4.117v-.023c-.476.552-1.081.9737-1.817 1.265-.736.276-1.564.414-2.484.414-1.058 0-2.009-.1993-2.852-.598-.844-.414-1.503-.9967-1.978-1.748-.476-.7513-.713-1.6177-.713-2.599 0-1.0427.26-1.955.782-2.737.521-.7973 1.226-1.4107 2.116-1.84.889-.4293 1.886-.644 2.99-.644zm.23 7.82c.966 0 1.748-.2607 2.346-.782.613-.5213.92-1.1807.92-1.978 0-.782-.299-1.426-.897-1.932-.583-.5213-1.396-.782-2.438-.782-.936 0-1.695.253-2.277.759-.583.4907-.874 1.15-.874 1.978 0 .8433.291 1.5103.874 2.001.582.4907 1.364.736 2.346.736zm16.076-1.426c1.058 0 2.008.207 2.852.621.843.3987 1.502.9737 1.978 1.725.475.7513.713 1.6177.713 2.599 0 1.0427-.261 1.9627-.782 2.76-.522.782-1.227 1.3877-2.116 1.817-.89.4293-1.886.644-2.99.644-2.208 0-3.926-.69-5.152-2.07-1.212-1.38-1.817-3.358-1.817-5.934 0-1.8093.329-3.3503.989-4.623.659-1.288 1.579-2.2617 2.76-2.921 1.196-.6747 2.576-1.012 4.14-1.012.828 0 1.602.092 2.323.276.736.1687 1.372.4217 1.909.759l-1.104 2.254c-.798-.5213-1.817-.782-3.059-.782-1.549 0-2.76.4753-3.634 1.426-.874.9507-1.311 2.323-1.311 4.117v.023c.475-.552 1.081-.966 1.817-1.242.736-.2913 1.564-.437 2.484-.437zm-.506 7.82c.935 0 1.694-.2453 2.277-.736.582-.506.874-1.173.874-2.001 0-.8433-.292-1.5103-.874-2.001-.583-.4907-1.365-.736-2.346-.736-.966 0-1.756.2607-2.369.782-.598.5213-.897 1.1807-.897 1.978 0 .782.291 1.4337.874 1.955.598.506 1.418.759 2.461.759zm23.987-10.304c1.549 0 2.776.4523 3.683 1.357.9.8893 1.35 2.231 1.35 4.025V55h-2.871v-6.67c0-1.0733-.237-1.8783-.713-2.415-.475-.552-1.157-.828-2.047-.828-.966 0-1.74.322-2.323.966-.582.6287-.874 1.5333-.874 2.714V55h-2.875v-6.67c0-1.0733-.237-1.8783-.713-2.415-.475-.552-1.157-.828-2.047-.828-.981 0-1.763.3143-2.346.943-.567.6287-.851 1.541-.851 2.737V55h-2.875V42.718h2.737v1.564c.46-.552 1.035-.9737 1.725-1.265.69-.2913 1.457-.437 2.3-.437.92 0 1.733.1763 2.438.529.721.3373 1.288.8433 1.702 1.518.506-.644 1.158-1.1423 1.955-1.495.798-.368 1.679-.552 2.645-.552zm21.013.138v10.419c0 4.324-2.21 6.486-6.62 6.486-1.18 0-2.3-.1533-3.36-.46-1.06-.2913-1.93-.7207-2.62-1.288l1.28-2.162c.54.4447 1.22.7973 2.03 1.058.83.276 1.66.414 2.51.414 1.34 0 2.33-.3067 2.96-.92.63-.6133.95-1.5487.95-2.806v-.644c-.5.5367-1.09.943-1.8 1.219-.7.276-1.48.414-2.32.414-1.17 0-2.22-.2453-3.18-.736-.93-.506-1.67-1.2113-2.23-2.116-.53-.9047-.8-1.9397-.8-3.105s.27-2.1927.8-3.082c.56-.9047 1.3-1.6023 2.23-2.093.96-.4907 2.01-.736 3.18-.736.89 0 1.69.1457 2.41.437.74.2913 1.35.736 1.84 1.334v-1.633h2.74zm-6.55 9.292c1.08 0 1.97-.322 2.66-.966.71-.6593 1.06-1.5103 1.06-2.553 0-1.0273-.35-1.863-1.06-2.507-.69-.644-1.58-.966-2.66-.966-1.11 0-2.01.322-2.72.966-.69.644-1.03 1.4797-1.03 2.507 0 1.0427.34 1.8937 1.03 2.553.71.644 1.61.966 2.72.966zm11.25 3.151c-.52 0-.97-.1763-1.33-.529-.37-.368-.56-.828-.56-1.38 0-.5673.18-1.0273.53-1.38.37-.3527.82-.529 1.36-.529.54 0 .98.1763 1.33.529.37.3527.56.8127.56 1.38 0 .552-.19 1.012-.56 1.38-.36.3527-.81.529-1.33.529z" fill="#000"/></svg>