<svg width="236" height="43" viewBox="0 0 236 43" fill="none" xmlns="http://www.w3.org/2000/svg"><path d="M21.665 30.185V34H3.29V9.5h17.885v3.815H7.84v6.37h11.83v3.745H7.84v6.755h13.825zM36.9223 15.1c2.3566 0 4.2466.6883 5.67 2.065 1.4233 1.3767 2.135 3.4183 2.135 6.125V34h-4.375V23.85c0-1.6333-.385-2.8583-1.155-3.675-.77-.84-1.8667-1.26-3.29-1.26-1.61 0-2.8817.49-3.815 1.47-.9334.9567-1.4 2.345-1.4 4.165V34h-4.375V15.31h4.165v2.415c.7233-.8633 1.6333-1.5167 2.73-1.96 1.0966-.4433 2.3333-.665 3.71-.665zm30.5131.21L59.4204 34h-4.515l-8.015-18.69h4.55l5.81 13.86 5.985-13.86h4.2zm2.7344 0h4.375V34h-4.375V15.31zm2.205-3.08c-.7933 0-1.4583-.245-1.995-.735-.5367-.5133-.805-1.1433-.805-1.89 0-.74667.2683-1.365.805-1.855.5367-.51333 1.2017-.77 1.995-.77.7933 0 1.4583.245 1.995.735.5367.46667.805 1.06167.805 1.785 0 .77-.2683 1.4233-.805 1.96-.5133.5133-1.1783.77-1.995.77zm12.0772 5.81c1.26-1.96 3.4767-2.94 6.65-2.94v4.165c-.3733-.07-.7117-.105-1.015-.105-1.7033 0-3.0333.5017-3.99 1.505-.9567.98-1.435 2.4033-1.435 4.27V34h-4.375V15.31h4.165v2.73zm18.59 16.205c-1.89 0-3.5929-.4083-5.1095-1.225-1.5167-.8167-2.7067-1.9483-3.57-3.395-.84-1.47-1.26-3.1267-1.26-4.97 0-1.8433.42-3.4883 1.26-4.935.8633-1.4467 2.0533-2.5783 3.57-3.395 1.5166-.8167 3.2195-1.225 5.1095-1.225 1.914 0 3.629.4083 5.145 1.225 1.517.8167 2.695 1.9483 3.535 3.395.864 1.4467 1.295 3.0917 1.295 4.935 0 1.8433-.431 3.5-1.295 4.97-.84 1.4467-2.018 2.5783-3.535 3.395-1.516.8167-3.231 1.225-5.145 1.225zm0-3.745c1.61 0 2.94-.5367 3.99-1.61 1.05-1.0733 1.575-2.485 1.575-4.235 0-1.75-.525-3.1617-1.575-4.235-1.05-1.0733-2.38-1.61-3.99-1.61-1.61 0-2.94.5367-3.9895 1.61-1.0267 1.0733-1.54 2.485-1.54 4.235 0 1.75.5133 3.1617 1.54 4.235 1.0495 1.0733 2.3795 1.61 3.9895 1.61zm24.764-15.4c2.357 0 4.247.6883 5.67 2.065s2.135 3.4183 2.135 6.125V34h-4.375V23.85c0-1.6333-.385-2.8583-1.155-3.675-.77-.84-1.867-1.26-3.29-1.26-1.61 0-2.882.49-3.815 1.47-.933.9567-1.4 2.345-1.4 4.165V34h-4.375V15.31h4.165v2.415c.723-.8633 1.633-1.5167 2.73-1.96s2.333-.665 3.71-.665zm36.945 0c2.357 0 4.223.6883 5.6 2.065 1.377 1.3533 2.065 3.395 2.065 6.125V34h-4.375V23.85c0-1.6333-.362-2.8583-1.085-3.675-.723-.84-1.762-1.26-3.115-1.26-1.47 0-2.648.49-3.535 1.47-.887.9567-1.33 2.3333-1.33 4.13V34h-4.375V23.85c0-1.6333-.362-2.8583-1.085-3.675-.723-.84-1.762-1.26-3.115-1.26-1.493 0-2.683.4783-3.57 1.435-.863.9567-1.295 2.345-1.295 4.165V34h-4.375V15.31h4.165v2.38c.7-.84 1.575-1.4817 2.625-1.925s2.217-.665 3.5-.665c1.4 0 2.637.2683 3.71.805 1.097.5133 1.96 1.2833 2.59 2.31.77-.98 1.762-1.7383 2.975-2.275 1.213-.56 2.555-.84 4.025-.84zm30.997 9.66c0 .3033-.024.735-.07 1.295h-14.665c.256 1.3767.921 2.4733 1.995 3.29 1.096.7933 2.45 1.19 4.06 1.19 2.053 0 3.745-.6767 5.075-2.03l2.345 2.695c-.84 1.0033-1.902 1.7617-3.185 2.275-1.284.5133-2.73.77-4.34.77-2.054 0-3.862-.4083-5.425-1.225-1.564-.8167-2.777-1.9483-3.64-3.395-.84-1.47-1.26-3.1267-1.26-4.97 0-1.82.408-3.4533 1.225-4.9.84-1.47 1.995-2.6133 3.465-3.43 1.47-.8167 3.126-1.225 4.97-1.225 1.82 0 3.441.4083 4.865 1.225 1.446.7933 2.566 1.925 3.36 3.395.816 1.4467 1.225 3.1267 1.225 5.04zm-9.45-6.16c-1.4 0-2.59.42-3.57 1.26-.957.8167-1.54 1.9133-1.75 3.29h10.605c-.187-1.3533-.759-2.45-1.715-3.29-.957-.84-2.147-1.26-3.57-1.26zm24.257-3.5c2.357 0 4.247.6883 5.67 2.065s2.135 3.4183 2.135 6.125V34h-4.375V23.85c0-1.6333-.385-2.8583-1.155-3.675-.77-.84-1.867-1.26-3.29-1.26-1.61 0-2.882.49-3.815 1.47-.933.9567-1.4 2.345-1.4 4.165V34h-4.375V15.31h4.165v2.415c.723-.8633 1.633-1.5167 2.73-1.96s2.333-.665 3.71-.665zm24.59 17.885c-.513.42-1.143.735-1.89.945-.723.21-1.493.315-2.31.315-2.053 0-3.64-.5367-4.76-1.61-1.12-1.0733-1.68-2.6367-1.68-4.69V18.95h-3.08v-3.5h3.08v-4.27h4.375v4.27h5.005v3.5h-5.005v8.89c0 .91.222 1.61.665 2.1.443.4667 1.085.7 1.925.7.98 0 1.797-.2567 2.45-.77l1.225 3.115z" fill="#1D2557"/></svg>