<svg width="144" height="43" viewBox="0 0 144 43" fill="none" xmlns="http://www.w3.org/2000/svg"><path d="M7.84 13.315v7.455h11.83v3.85H7.84V34H3.29V9.5h17.885v3.815H7.84zm16.9734 1.995h4.375V34h-4.375V15.31zm2.205-3.08c-.7934 0-1.4584-.245-1.995-.735-.5367-.5133-.805-1.1433-.805-1.89 0-.74667.2683-1.365.805-1.855.5366-.51333 1.2016-.77 1.995-.77.7933 0 1.4583.245 1.995.735.5366.46667.805 1.06167.805 1.785 0 .77-.2684 1.4233-.805 1.96-.5134.5133-1.1784.77-1.995.77zm18.5171 2.87c2.3567 0 4.2467.6883 5.67 2.065 1.4234 1.3767 2.135 3.4183 2.135 6.125V34h-4.375V23.85c0-1.6333-.385-2.8583-1.155-3.675-.77-.84-1.8666-1.26-3.29-1.26-1.61 0-2.8816.49-3.815 1.47-.9333.9567-1.4 2.345-1.4 4.165V34h-4.375V15.31h4.165v2.415c.7234-.8633 1.6334-1.5167 2.73-1.96 1.0967-.4433 2.3334-.665 3.71-.665zm20.495 0c2.7533 0 4.8533.665 6.3 1.995 1.47 1.3067 2.205 3.29 2.205 5.95V34h-4.13v-2.275c-.5367.8167-1.3067 1.4467-2.31 1.89-.98.42-2.17.63-3.57.63s-2.625-.2333-3.675-.7c-1.05-.49-1.8667-1.155-2.45-1.995-.56-.8633-.84-1.8317-.84-2.905 0-1.68.6183-3.0217 1.855-4.025 1.26-1.0267 3.2317-1.54 5.915-1.54h4.83v-.28c0-1.3067-.3967-2.31-1.19-3.01-.77-.7-1.925-1.05-3.465-1.05-1.05 0-2.0883.1633-3.115.49-1.0033.3267-1.855.7817-2.555 1.365l-1.715-3.185c.98-.7467 2.1583-1.3183 3.535-1.715 1.3767-.3967 2.835-.595 4.375-.595zm-.595 15.96c1.0967 0 2.065-.245 2.905-.735.8633-.5133 1.47-1.2367 1.82-2.17v-2.17h-4.515c-2.52 0-3.78.8283-3.78 2.485 0 .7933.315 1.4233.945 1.89.63.4667 1.505.7 2.625.7zM90.7553 15.1c2.3566 0 4.2466.6883 5.67 2.065 1.4233 1.3767 2.135 3.4183 2.135 6.125V34h-4.375V23.85c0-1.6333-.385-2.8583-1.155-3.675-.77-.84-1.8667-1.26-3.29-1.26-1.61 0-2.8817.49-3.815 1.47-.9334.9567-1.4 2.345-1.4 4.165V34h-4.375V15.31h4.165v2.415c.7233-.8633 1.6333-1.5167 2.73-1.96 1.0966-.4433 2.3333-.665 3.71-.665zm22.1007 19.145c-1.937 0-3.675-.4083-5.215-1.225-1.54-.8167-2.742-1.9483-3.605-3.395-.863-1.47-1.295-3.1267-1.295-4.97 0-1.8433.432-3.4883 1.295-4.935.863-1.4467 2.053-2.5783 3.57-3.395 1.54-.8167 3.29-1.225 5.25-1.225 1.843 0 3.453.3733 4.83 1.12 1.4.7467 2.45 1.82 3.15 3.22l-3.36 1.96c-.537-.8633-1.213-1.505-2.03-1.925-.793-.4433-1.668-.665-2.625-.665-1.633 0-2.987.5367-4.06 1.61-1.073 1.05-1.61 2.4617-1.61 4.235 0 1.7733.525 3.1967 1.575 4.27 1.073 1.05 2.438 1.575 4.095 1.575.957 0 1.832-.21 2.625-.63.817-.4433 1.493-1.0967 2.03-1.96l3.36 1.96c-.723 1.4-1.785 2.485-3.185 3.255-1.377.7467-2.975 1.12-4.795 1.12zm29.059-9.485c0 .3033-.024.735-.07 1.295H127.18c.256 1.3767.921 2.4733 1.995 3.29 1.096.7933 2.45 1.19 4.06 1.19 2.053 0 3.745-.6767 5.075-2.03l2.345 2.695c-.84 1.0033-1.902 1.7617-3.185 2.275-1.284.5133-2.73.77-4.34.77-2.054 0-3.862-.4083-5.425-1.225-1.564-.8167-2.777-1.9483-3.64-3.395-.84-1.47-1.26-3.1267-1.26-4.97 0-1.82.408-3.4533 1.225-4.9.84-1.47 1.995-2.6133 3.465-3.43 1.47-.8167 3.126-1.225 4.97-1.225 1.82 0 3.441.4083 4.865 1.225 1.446.7933 2.566 1.925 3.36 3.395.816 1.4467 1.225 3.1267 1.225 5.04zm-9.45-6.16c-1.4 0-2.59.42-3.57 1.26-.957.8167-1.54 1.9133-1.75 3.29h10.605c-.187-1.3533-.759-2.45-1.715-3.29-.957-.84-2.147-1.26-3.57-1.26z" fill="#1D2557"/></svg>