<svg width="121" height="43" viewBox="0 0 121 43" fill="none" xmlns="http://www.w3.org/2000/svg"><path d="M25.06 9.5V34h-4.55V23.5H7.84V34H3.29V9.5h4.55v10.115h12.67V9.5h4.55zm23.715 15.26c0 .3033-.0234.735-.07 1.295H34.04c.2566 1.3767.9216 2.4733 1.995 3.29 1.0966.7933 2.45 1.19 4.06 1.19 2.0533 0 3.745-.6767 5.075-2.03l2.345 2.695c-.84 1.0033-1.9017 1.7617-3.185 2.275-1.2834.5133-2.73.77-4.34.77-2.0534 0-3.8617-.4083-5.425-1.225-1.5634-.8167-2.7767-1.9483-3.64-3.395-.84-1.47-1.26-3.1267-1.26-4.97 0-1.82.4083-3.4533 1.225-4.9.84-1.47 1.995-2.6133 3.465-3.43 1.47-.8167 3.1266-1.225 4.97-1.225 1.82 0 3.4416.4083 4.865 1.225 1.4466.7933 2.5666 1.925 3.36 3.395.8166 1.4467 1.225 3.1267 1.225 5.04zm-9.45-6.16c-1.4 0-2.59.42-3.57 1.26-.9567.8167-1.54 1.9133-1.75 3.29H44.61c-.1867-1.3533-.7584-2.45-1.715-3.29-.9567-.84-2.1467-1.26-3.57-1.26zm20.2797-3.5c2.7534 0 4.8534.665 6.3 1.995 1.47 1.3067 2.205 3.29 2.205 5.95V34h-4.13v-2.275c-.5366.8167-1.3066 1.4467-2.31 1.89-.98.42-2.17.63-3.57.63s-2.625-.2333-3.675-.7c-1.05-.49-1.8666-1.155-2.45-1.995-.56-.8633-.84-1.8317-.84-2.905 0-1.68.6184-3.0217 1.855-4.025 1.26-1.0267 3.2317-1.54 5.915-1.54h4.83v-.28c0-1.3067-.3966-2.31-1.19-3.01-.77-.7-1.925-1.05-3.465-1.05-1.05 0-2.0883.1633-3.115.49-1.0033.3267-1.855.7817-2.555 1.365l-1.715-3.185c.98-.7467 2.1584-1.3183 3.535-1.715 1.3767-.3967 2.835-.595 4.375-.595zm-.595 15.96c1.0967 0 2.065-.245 2.905-.735.8634-.5133 1.47-1.2367 1.82-2.17v-2.17h-4.515c-2.52 0-3.78.8283-3.78 2.485 0 .7933.315 1.4233.945 1.89.63.4667 1.505.7 2.625.7zM73.7245 8.03h4.375V34h-4.375V8.03zm22.275 24.955c-.5133.42-1.1433.735-1.89.945-.7233.21-1.4933.315-2.31.315-2.0533 0-3.64-.5367-4.76-1.61-1.12-1.0733-1.68-2.6367-1.68-4.69V18.95h-3.08v-3.5h3.08v-4.27h4.375v4.27h5.005v3.5h-5.005v8.89c0 .91.2217 1.61.665 2.1.4434.4667 1.085.7 1.925.7.98 0 1.7967-.2567 2.45-.77l1.225 3.115zM110.204 15.1c2.356 0 4.246.6883 5.67 2.065 1.423 1.3767 2.135 3.4183 2.135 6.125V34h-4.375V23.85c0-1.6333-.385-2.8583-1.155-3.675-.77-.84-1.867-1.26-3.29-1.26-1.61 0-2.882.49-3.815 1.47-.934.9567-1.4 2.345-1.4 4.165V34h-4.3755V8.03h4.3755v9.45c.723-.77 1.61-1.3533 2.66-1.75 1.073-.42 2.263-.63 3.57-.63z" fill="#1D2557"/></svg>