<svg width="343" height="43" viewBox="0 0 343 43" fill="none" xmlns="http://www.w3.org/2000/svg"><path d="M2.905 9.5h5.67v19.88H20.86V34H2.905V9.5zm40.0963 15.155c0 .07-.035.56-.105 1.47h-14.245c.2567 1.1667.8634 2.0883 1.82 2.765.9567.6767 2.1467 1.015 3.57 1.015.98 0 1.8434-.14 2.59-.42.77-.3033 1.4817-.77 2.135-1.4l2.905 3.15c-1.7733 2.03-4.3633 3.045-7.77 3.045-2.1233 0-4.0016-.4083-5.635-1.225-1.6333-.84-2.8933-1.995-3.78-3.465-.8866-1.47-1.33-3.1383-1.33-5.005 0-1.8433.4317-3.5 1.295-4.97.8867-1.4933 2.0884-2.6483 3.605-3.465 1.54-.84 3.255-1.26 5.145-1.26 1.8434 0 3.5117.3967 5.005 1.19 1.4934.7933 2.66 1.9367 3.5 3.43.8634 1.47 1.295 3.185 1.295 5.145zm-9.765-5.635c-1.2366 0-2.275.35-3.115 1.05-.84.7-1.3533 1.6567-1.54 2.87h9.275c-.1866-1.19-.7-2.135-1.54-2.835-.84-.7233-1.8666-1.085-3.08-1.085zm32.7983-3.85L58.0896 34h-5.635l-7.91-18.83h5.635l5.215 12.81 5.39-12.81h5.25zm21.2103 9.485c0 .07-.035.56-.105 1.47h-14.245c.2567 1.1667.8633 2.0883 1.82 2.765.9567.6767 2.1467 1.015 3.57 1.015.98 0 1.8433-.14 2.59-.42.77-.3033 1.4817-.77 2.135-1.4l2.905 3.15c-1.7733 2.03-4.3633 3.045-7.77 3.045-2.1233 0-4.0017-.4083-5.635-1.225-1.6333-.84-2.8933-1.995-3.78-3.465-.8867-1.47-1.33-3.1383-1.33-5.005 0-1.8433.4317-3.5 1.295-4.97.8867-1.4933 2.0883-2.6483 3.605-3.465 1.54-.84 3.255-1.26 5.145-1.26 1.8433 0 3.5117.3967 5.005 1.19 1.4933.7933 2.66 1.9367 3.5 3.43.8633 1.47 1.295 3.185 1.295 5.145zm-9.765-5.635c-1.2367 0-2.275.35-3.115 1.05-.84.7-1.3533 1.6567-1.54 2.87h9.275c-.1867-1.19-.7-2.135-1.54-2.835-.84-.7233-1.8667-1.085-3.08-1.085zM91.93 8.03h5.46V34h-5.46V8.03zm17.912 26.25c-1.563 0-3.091-.1867-4.585-.56-1.493-.3967-2.683-.8867-3.57-1.47l1.82-3.92c.84.5367 1.855.98 3.045 1.33 1.19.3267 2.357.49 3.5.49 2.31 0 3.465-.5717 3.465-1.715 0-.5367-.315-.9217-.945-1.155-.63-.2333-1.598-.4317-2.905-.595-1.54-.2333-2.811-.5017-3.815-.805-1.003-.3033-1.878-.84-2.625-1.61-.723-.77-1.085-1.8667-1.085-3.29 0-1.19.339-2.24 1.015-3.15.7-.9333 1.704-1.6567 3.01-2.17 1.33-.5133 2.894-.77 4.69-.77 1.33 0 2.649.1517 3.955.455 1.33.28 2.427.6767 3.29 1.19l-1.82 3.885c-1.656-.9333-3.465-1.4-5.425-1.4-1.166 0-2.041.1633-2.625.49-.583.3267-.875.7467-.875 1.26 0 .5833.315.9917.945 1.225.63.2333 1.634.455 3.01.665 1.54.2567 2.8.5367 3.78.84.98.28 1.832.805 2.555 1.575.724.77 1.085 1.8433 1.085 3.22 0 1.1667-.35 2.205-1.05 3.115-.7.91-1.726 1.6217-3.08 2.135-1.33.49-2.916.735-4.76.735zm36.381.14c-2.496 0-4.76-.5367-6.79-1.61-2.006-1.0967-3.593-2.6017-4.76-4.515-1.143-1.9367-1.715-4.1183-1.715-6.545 0-2.4267.572-4.5967 1.715-6.51 1.167-1.9367 2.754-3.4417 4.76-4.515 2.03-1.09667 4.305-1.645 6.825-1.645 2.124 0 4.037.37333 5.74 1.12 1.727.7467 3.174 1.82 4.34 3.22l-3.64 3.36c-1.656-1.9133-3.71-2.87-6.16-2.87-1.516 0-2.87.3383-4.06 1.015-1.19.6533-2.123 1.575-2.8 2.765-.653 1.19-.98 2.5433-.98 4.06 0 1.5167.327 2.87.98 4.06.677 1.19 1.61 2.1233 2.8 2.8 1.19.6533 2.544.98 4.06.98 2.45 0 4.504-.9683 6.16-2.905l3.64 3.36c-1.166 1.4233-2.613 2.5083-4.34 3.255-1.726.7467-3.651 1.12-5.775 1.12zm22.92-.14c-1.984 0-3.769-.4083-5.355-1.225-1.564-.84-2.789-1.995-3.675-3.465-.887-1.47-1.33-3.1383-1.33-5.005 0-1.8667.443-3.535 1.33-5.005.886-1.47 2.111-2.6133 3.675-3.43 1.586-.84 3.371-1.26 5.355-1.26 1.983 0 3.756.42 5.32 1.26 1.563.8167 2.788 1.96 3.675 3.43.886 1.47 1.33 3.1383 1.33 5.005 0 1.8667-.444 3.535-1.33 5.005-.887 1.47-2.112 2.625-3.675 3.465-1.564.8167-3.337 1.225-5.32 1.225zm0-4.48c1.4 0 2.543-.4667 3.43-1.4.91-.9567 1.365-2.2283 1.365-3.815s-.455-2.8467-1.365-3.78c-.887-.9567-2.03-1.435-3.43-1.435-1.4 0-2.555.4783-3.465 1.435-.91.9333-1.365 2.1933-1.365 3.78s.455 2.8583 1.365 3.815c.91.9333 2.065 1.4 3.465 1.4zm39.139-14.91c2.357 0 4.224.7 5.6 2.1 1.4 1.3767 2.1 3.4533 2.1 6.23V34h-5.46v-9.94c0-1.4933-.315-2.6017-.945-3.325-.606-.7467-1.481-1.12-2.625-1.12-1.283 0-2.298.42-3.045 1.26-.746.8167-1.12 2.0417-1.12 3.675V34h-5.46v-9.94c0-2.9633-1.19-4.445-3.57-4.445-1.26 0-2.263.42-3.01 1.26-.746.8167-1.12 2.0417-1.12 3.675V34h-5.46V15.17h5.215v2.17c.7-.7933 1.552-1.4 2.555-1.82 1.027-.42 2.147-.63 3.36-.63 1.33 0 2.532.2683 3.605.805 1.074.5133 1.937 1.2717 2.59 2.275.77-.98 1.739-1.7383 2.905-2.275 1.19-.5367 2.485-.805 3.885-.805zm24.774 0c1.75 0 3.337.4083 4.76 1.225 1.447.7933 2.579 1.925 3.395 3.395.817 1.4467 1.225 3.1383 1.225 5.075s-.408 3.64-1.225 5.11c-.816 1.4467-1.948 2.5783-3.395 3.395-1.423.7933-3.01 1.19-4.76 1.19-2.403 0-4.293-.7583-5.67-2.275v8.785h-5.46V15.17h5.215v2.17c1.354-1.6333 3.325-2.45 5.915-2.45zm-.945 14.91c1.4 0 2.544-.4667 3.43-1.4.91-.9567 1.365-2.2283 1.365-3.815s-.455-2.8467-1.365-3.78c-.886-.9567-2.03-1.435-3.43-1.435-1.4 0-2.555.4783-3.465 1.435-.886.9333-1.33 2.1933-1.33 3.78s.444 2.8583 1.33 3.815c.91.9333 2.065 1.4 3.465 1.4zm15.03-21.77h5.46V34h-5.46V8.03zm30.023 16.625c0 .07-.035.56-.105 1.47h-14.245c.256 1.1667.863 2.0883 1.82 2.765.956.6767 2.146 1.015 3.57 1.015.98 0 1.843-.14 2.59-.42.77-.3033 1.481-.77 2.135-1.4l2.905 3.15c-1.774 2.03-4.364 3.045-7.77 3.045-2.124 0-4.002-.4083-5.635-1.225-1.634-.84-2.894-1.995-3.78-3.465-.887-1.47-1.33-3.1383-1.33-5.005 0-1.8433.431-3.5 1.295-4.97.886-1.4933 2.088-2.6483 3.605-3.465 1.54-.84 3.255-1.26 5.145-1.26 1.843 0 3.511.3967 5.005 1.19 1.493.7933 2.66 1.9367 3.5 3.43.863 1.47 1.295 3.185 1.295 5.145zm-9.765-5.635c-1.237 0-2.275.35-3.115 1.05-.84.7-1.354 1.6567-1.54 2.87h9.275c-.187-1.19-.7-2.135-1.54-2.835-.84-.7233-1.867-1.085-3.08-1.085zm26.595 14.07c-.537.3967-1.202.7-1.995.91-.77.1867-1.587.28-2.45.28-2.24 0-3.979-.5717-5.215-1.715-1.214-1.1433-1.82-2.8233-1.82-5.04V19.79h-2.905v-4.2h2.905v-4.585h5.46v4.585h4.69v4.2h-4.69v7.665c0 .7933.198 1.4117.595 1.855.42.42 1.003.63 1.75.63.863 0 1.598-.2333 2.205-.7l1.47 3.85zm21.979-8.435c0 .07-.035.56-.105 1.47h-14.245c.256 1.1667.863 2.0883 1.82 2.765.956.6767 2.146 1.015 3.57 1.015.98 0 1.843-.14 2.59-.42.77-.3033 1.481-.77 2.135-1.4l2.905 3.15c-1.774 2.03-4.364 3.045-7.77 3.045-2.124 0-4.002-.4083-5.635-1.225-1.634-.84-2.894-1.995-3.78-3.465-.887-1.47-1.33-3.1383-1.33-5.005 0-1.8433.431-3.5 1.295-4.97.886-1.4933 2.088-2.6483 3.605-3.465 1.54-.84 3.255-1.26 5.145-1.26 1.843 0 3.511.3967 5.005 1.19 1.493.7933 2.66 1.9367 3.5 3.43.863 1.47 1.295 3.185 1.295 5.145zm-9.765-5.635c-1.237 0-2.275.35-3.115 1.05-.84.7-1.354 1.6567-1.54 2.87h9.275c-.187-1.19-.7-2.135-1.54-2.835-.84-.7233-1.867-1.085-3.08-1.085zm33.63-10.99V34h-5.215v-2.17c-1.354 1.6333-3.314 2.45-5.88 2.45-1.774 0-3.384-.3967-4.83-1.19-1.424-.7933-2.544-1.925-3.36-3.395-.817-1.47-1.225-3.1733-1.225-5.11 0-1.9367.408-3.64 1.225-5.11.816-1.47 1.936-2.6017 3.36-3.395 1.446-.7933 3.056-1.19 4.83-1.19 2.403 0 4.281.7583 5.635 2.275V8.03h5.46zm-10.15 21.77c1.376 0 2.52-.4667 3.43-1.4.91-.9567 1.365-2.2283 1.365-3.815s-.455-2.8467-1.365-3.78c-.91-.9567-2.054-1.435-3.43-1.435-1.4 0-2.555.4783-3.465 1.435-.91.9333-1.365 2.1933-1.365 3.78s.455 2.8583 1.365 3.815c.91.9333 2.065 1.4 3.465 1.4z" fill="#FBFD30"/></svg>