<svg width="142" height="37" viewBox="0 0 142 37" fill="none" xmlns="http://www.w3.org/2000/svg"><path d="M11.7 8c1.9 0 3.55.32 4.95.96 1.4.62 2.48 1.52 3.24 2.7.76 1.16 1.14 2.53 1.14 4.11 0 1.58-.38 2.95-1.14 4.11-.76 1.16-1.84 2.06-3.24 2.7-1.4.62-3.05.93-4.95.93H8.04V29H2.1V8h9.6zm-.36 10.83c1.22 0 2.14-.26 2.76-.78.62-.54.93-1.3.93-2.28 0-.98-.31-1.74-.93-2.28-.62-.54-1.54-.81-2.76-.81h-3.3v6.15h3.3zm17.8927-4.14c.58-.74 1.33-1.29 2.25-1.65.94-.38 2.01-.57 3.21-.57v5.13c-.52-.06-.95-.09-1.29-.09-1.22 0-2.18.33-2.88.99-.68.66-1.02 1.67-1.02 3.03V29h-5.7V12.74h5.43v1.95zm15.8257 14.58c-1.74 0-3.31-.36-4.71-1.08-1.4-.72-2.5-1.72-3.3-3-.78-1.28-1.17-2.73-1.17-4.35 0-1.6.39-3.04 1.17-4.32.8-1.28 1.89-2.27 3.27-2.97 1.4-.72 2.98-1.08 4.74-1.08 1.76 0 3.34.36 4.74 1.08 1.4.7 2.49 1.69 3.27 2.97.78 1.26 1.17 2.7 1.17 4.32s-.39 3.07-1.17 4.35c-.78 1.28-1.87 2.28-3.27 3-1.4.72-2.98 1.08-4.74 1.08zm0-4.53c1 0 1.82-.34 2.46-1.02.64-.7.96-1.66.96-2.88 0-1.2-.32-2.14-.96-2.82-.64-.68-1.46-1.02-2.46-1.02s-1.82.34-2.46 1.02c-.64.68-.96 1.62-.96 2.82 0 1.22.32 2.18.96 2.88.64.68 1.46 1.02 2.46 1.02zm29.3104-12v13.29c0 3.02-.82 5.28-2.46 6.78-1.64 1.52-4 2.28-7.08 2.28-1.6 0-3.1-.18-4.5-.54-1.4-.36-2.59-.89-3.57-1.59l2.07-3.99c.66.54 1.49.96 2.49 1.26 1.02.32 2.02.48 3 .48 1.5 0 2.6-.33 3.3-.99.7-.66 1.05-1.64 1.05-2.94v-.54c-1.1 1.28-2.71 1.92-4.83 1.92-1.44 0-2.77-.32-3.99-.96-1.22-.66-2.19-1.58-2.91-2.76-.72-1.2-1.08-2.58-1.08-4.14 0-1.54.36-2.9 1.08-4.08.72-1.2 1.69-2.12 2.91-2.76 1.22-.66 2.55-.99 3.99-.99 2.32 0 4.02.75 5.1 2.25v-1.98h5.43zm-9.18 10.89c1.02 0 1.86-.31 2.52-.93.68-.62 1.02-1.42 1.02-2.4s-.33-1.77-.99-2.37c-.66-.62-1.51-.93-2.55-.93-1.04 0-1.9.31-2.58.93-.66.6-.99 1.39-.99 2.37 0 .98.34 1.78 1.02 2.4.68.62 1.53.93 2.55.93zm18.2724-8.94c.58-.74 1.33-1.29 2.25-1.65.94-.38 2.01-.57 3.21-.57v5.13c-.52-.06-.95-.09-1.29-.09-1.22 0-2.18.33-2.88.99-.68.66-1.02 1.67-1.02 3.03V29h-5.7V12.74h5.43v1.95zm24.2858 6.21c0 .04-.03.51-.09 1.41H95.8369c.24.84.7 1.49 1.38 1.95.7.44 1.57.66 2.61.66.7801 0 1.4501-.11 2.0101-.33.58-.22 1.16-.58 1.74-1.08l3 3.12c-1.58 1.76-3.89 2.64-6.9301 2.64-1.9 0-3.57-.36-5.01-1.08-1.44-.72-2.56-1.72-3.36-3-.78-1.28-1.17-2.73-1.17-4.35 0-1.6.38-3.03 1.14-4.29.78-1.28 1.85-2.28 3.21-3 1.36-.72 2.89-1.08 4.59-1.08 1.6201 0 3.0901.34 4.4101 1.02 1.32.66 2.36 1.63 3.12 2.91.78 1.26 1.17 2.76 1.17 4.5zm-8.6701-4.38c-.88 0-1.62.25-2.22.75-.58.5-.95 1.18-1.11 2.04h6.6601c-.16-.86-.54-1.54-1.14-2.04-.58-.5-1.3101-.75-2.1901-.75zm17.2081 12.75c-1.36 0-2.7-.15-4.02-.45-1.32-.32-2.38-.73-3.18-1.23l1.71-3.9c.74.46 1.62.83 2.64 1.11 1.02.26 2.03.39 3.03.39.92 0 1.57-.09 1.95-.27.4-.2.6-.48.6-.84s-.24-.61-.72-.75c-.46-.16-1.2-.31-2.22-.45-1.3-.16-2.41-.37-3.33-.63-.9-.26-1.68-.74-2.34-1.44-.66-.7-.99-1.68-.99-2.94 0-1.04.31-1.96.93-2.76.62-.82 1.52-1.46 2.7-1.92 1.2-.48 2.63-.72 4.29-.72 1.18 0 2.35.12 3.51.36 1.16.24 2.13.58 2.91 1.02l-1.71 3.87c-1.44-.8-3-1.2-4.68-1.2-.9 0-1.56.11-1.98.33-.42.2-.63.47-.63.81 0 .38.23.65.69.81.46.14 1.22.29 2.28.45 1.34.2 2.45.43 3.33.69.88.26 1.64.74 2.28 1.44.66.68.99 1.64.99 2.88 0 1.02-.31 1.94-.93 2.76-.62.8-1.54 1.43-2.76 1.89-1.2.46-2.65.69-4.35.69zm16.406 0c-1.36 0-2.7-.15-4.02-.45-1.32-.32-2.38-.73-3.18-1.23l1.71-3.9c.74.46 1.62.83 2.64 1.11 1.02.26 2.03.39 3.03.39.92 0 1.57-.09 1.95-.27.4-.2.6-.48.6-.84s-.24-.61-.72-.75c-.46-.16-1.2-.31-2.22-.45-1.3-.16-2.41-.37-3.33-.63-.9-.26-1.68-.74-2.34-1.44-.66-.7-.99-1.68-.99-2.94 0-1.04.31-1.96.93-2.76.62-.82 1.52-1.46 2.7-1.92 1.2-.48 2.63-.72 4.29-.72 1.18 0 2.35.12 3.51.36 1.16.24 2.13.58 2.91 1.02l-1.71 3.87c-1.44-.8-3-1.2-4.68-1.2-.9 0-1.56.11-1.98.33-.42.2-.63.47-.63.81 0 .38.23.65.69.81.46.14 1.22.29 2.28.45 1.34.2 2.45.43 3.33.69.88.26 1.64.74 2.28 1.44.66.68.99 1.64.99 2.88 0 1.02-.31 1.94-.93 2.76-.62.8-1.54 1.43-2.76 1.89-1.2.46-2.65.69-4.35.69z" fill="#1D2557"/></svg>