<svg width="105" height="117" viewBox="0 0 105 117" fill="none" xmlns="http://www.w3.org/2000/svg"><mask id="a" maskUnits="userSpaceOnUse" x="0" y="0" width="105" height="117" fill="#000"><path fill="#fff" d="M0 0h105v117H0z"/><path fill-rule="evenodd" clip-rule="evenodd" d="M103.356 116c.425-3.775.644-7.612.644-11.5C104 48.0522 57.9306 2.26164 1 2v16.0044c47.7652.521 86.3238 39.0468 86.3238 86.4956 0 3.899-.2603 7.738-.7648 11.5h16.797z"/></mask><path fill-rule="evenodd" clip-rule="evenodd" d="M103.356 116c.425-3.775.644-7.612.644-11.5C104 48.0522 57.9306 2.26164 1 2v16.0044c47.7652.521 86.3238 39.0468 86.3238 86.4956 0 3.899-.2603 7.738-.7648 11.5h16.797z" fill="#F5A11A"/><path d="M103.356 116v1h.894l.1-.888-.994-.112zM1 2l.0046-.99999L0 .995394V2h1zm0 16.0044H0v.9891l.989093.0108L1 18.0044zM86.559 116l-.9911-.133L85.416 117h1.143v-1zm17.791.112c.429-3.812.65-7.687.65-11.612h-2c0 3.85-.216 7.65-.638 11.388l1.988.224zM105 104.5C105 47.4925 58.4764 1.26414 1.0046 1.00001L.995404 2.99999C57.3848 3.25914 103 48.6119 103 104.5h2zM0 2v16.0044h2V2H0zm.989093 17.0043C48.2155 19.5195 86.3238 57.6084 86.3238 104.5h2c0-48.006-39.0089-86.9687-87.31289-87.4955l-.021817 1.9998zM86.3238 104.5c0 3.854-.2574 7.649-.7559 11.367l1.9823.266c.5103-3.806.7736-7.689.7736-11.633h-2zm.2352 12.5h16.797v-2H86.559v2z" fill="#F5A11A" mask="url(#a)"/></svg>