<svg width="210" height="43" viewBox="0 0 210 43" fill="none" xmlns="http://www.w3.org/2000/svg"><path d="M8.26 13.35H.14V9.5h20.79v3.85h-8.12V34H8.26V13.35zm31.3206 11.41c0 .3033-.0233.735-.07 1.295h-14.665c.2567 1.3767.9217 2.4733 1.995 3.29 1.0967.7933 2.45 1.19 4.06 1.19 2.0534 0 3.745-.6767 5.075-2.03l2.345 2.695c-.84 1.0033-1.9016 1.7617-3.185 2.275-1.2833.5133-2.73.77-4.34.77-2.0533 0-3.8616-.4083-5.425-1.225-1.5633-.8167-2.7766-1.9483-3.64-3.395-.84-1.47-1.26-3.1267-1.26-4.97 0-1.82.4084-3.4533 1.225-4.9.84-1.47 1.995-2.6133 3.465-3.43 1.47-.8167 3.1267-1.225 4.97-1.225 1.82 0 3.4417.4083 4.865 1.225 1.4467.7933 2.5667 1.925 3.36 3.395.8167 1.4467 1.225 3.1267 1.225 5.04zm-9.45-6.16c-1.4 0-2.59.42-3.57 1.26-.9566.8167-1.54 1.9133-1.75 3.29h10.605c-.1866-1.3533-.7583-2.45-1.715-3.29-.9566-.84-2.1466-1.26-3.57-1.26zm22.2275 15.645c-1.9367 0-3.675-.4083-5.215-1.225-1.54-.8167-2.7417-1.9483-3.605-3.395-.8633-1.47-1.295-3.1267-1.295-4.97 0-1.8433.4317-3.4883 1.295-4.935.8633-1.4467 2.0533-2.5783 3.57-3.395 1.54-.8167 3.29-1.225 5.25-1.225 1.8433 0 3.4533.3733 4.83 1.12 1.4.7467 2.45 1.82 3.15 3.22l-3.36 1.96c-.5367-.8633-1.2133-1.505-2.03-1.925-.7933-.4433-1.6683-.665-2.625-.665-1.6333 0-2.9867.5367-4.06 1.61-1.0733 1.05-1.61 2.4617-1.61 4.235 0 1.7733.525 3.1967 1.575 4.27 1.0733 1.05 2.4383 1.575 4.095 1.575.9567 0 1.8317-.21 2.625-.63.8167-.4433 1.4933-1.0967 2.03-1.96l3.36 1.96c-.7233 1.4-1.785 2.485-3.185 3.255-1.3767.7467-2.975 1.12-4.795 1.12zM74.5541 15.1c2.3567 0 4.2467.6883 5.67 2.065 1.4233 1.3767 2.135 3.4183 2.135 6.125V34h-4.375V23.85c0-1.6333-.385-2.8583-1.155-3.675-.77-.84-1.8667-1.26-3.29-1.26-1.61 0-2.8817.49-3.815 1.47-.9333.9567-1.4 2.345-1.4 4.165V34h-4.375V8.03h4.375v9.45c.7233-.77 1.61-1.3533 2.66-1.75 1.0733-.42 2.2633-.63 3.57-.63zm23.96 0c2.3569 0 4.2469.6883 5.6699 2.065s2.135 3.4183 2.135 6.125V34h-4.375V23.85c0-1.6333-.385-2.8583-1.155-3.675-.77-.84-1.8666-1.26-3.2899-1.26-1.61 0-2.8817.49-3.815 1.47-.9334.9567-1.4 2.345-1.4 4.165V34h-4.375V15.31h4.165v2.415c.7233-.8633 1.6333-1.5167 2.73-1.96 1.0966-.4433 2.3333-.665 3.71-.665zM120.44 34.245c-1.89 0-3.593-.4083-5.11-1.225-1.517-.8167-2.707-1.9483-3.57-3.395-.84-1.47-1.26-3.1267-1.26-4.97 0-1.8433.42-3.4883 1.26-4.935.863-1.4467 2.053-2.5783 3.57-3.395s3.22-1.225 5.11-1.225c1.913 0 3.628.4083 5.145 1.225 1.517.8167 2.695 1.9483 3.535 3.395.863 1.4467 1.295 3.0917 1.295 4.935 0 1.8433-.432 3.5-1.295 4.97-.84 1.4467-2.018 2.5783-3.535 3.395-1.517.8167-3.232 1.225-5.145 1.225zm0-3.745c1.61 0 2.94-.5367 3.99-1.61 1.05-1.0733 1.575-2.485 1.575-4.235 0-1.75-.525-3.1617-1.575-4.235-1.05-1.0733-2.38-1.61-3.99-1.61-1.61 0-2.94.5367-3.99 1.61-1.027 1.0733-1.54 2.485-1.54 4.235 0 1.75.513 3.1617 1.54 4.235 1.05 1.0733 2.38 1.61 3.99 1.61zm14.159-22.47h4.375V34h-4.375V8.03zm18.517 26.215c-1.89 0-3.594-.4083-5.11-1.225-1.517-.8167-2.707-1.9483-3.57-3.395-.84-1.47-1.26-3.1267-1.26-4.97 0-1.8433.42-3.4883 1.26-4.935.863-1.4467 2.053-2.5783 3.57-3.395 1.516-.8167 3.22-1.225 5.11-1.225 1.913 0 3.628.4083 5.145 1.225 1.516.8167 2.695 1.9483 3.535 3.395.863 1.4467 1.295 3.0917 1.295 4.935 0 1.8433-.432 3.5-1.295 4.97-.84 1.4467-2.019 2.5783-3.535 3.395-1.517.8167-3.232 1.225-5.145 1.225zm0-3.745c1.61 0 2.94-.5367 3.99-1.61 1.05-1.0733 1.575-2.485 1.575-4.235 0-1.75-.525-3.1617-1.575-4.235-1.05-1.0733-2.38-1.61-3.99-1.61-1.61 0-2.94.5367-3.99 1.61-1.027 1.0733-1.54 2.485-1.54 4.235 0 1.75.513 3.1617 1.54 4.235 1.05 1.0733 2.38 1.61 3.99 1.61zm32.708-15.19v15.855c0 6.58-3.36 9.87-10.08 9.87-1.796 0-3.5-.2333-5.11-.7-1.61-.4433-2.94-1.0967-3.99-1.96l1.96-3.29c.817.6767 1.844 1.2133 3.08 1.61 1.26.42 2.532.63 3.815.63 2.054 0 3.559-.4667 4.515-1.4.957-.9333 1.435-2.3567 1.435-4.27v-.98c-.746.8167-1.656 1.435-2.73 1.855-1.073.42-2.251.63-3.535.63-1.773 0-3.383-.3733-4.83-1.12-1.423-.77-2.555-1.8433-3.395-3.22-.816-1.3767-1.225-2.9517-1.225-4.725 0-1.7733.409-3.3367 1.225-4.69.84-1.3767 1.972-2.4383 3.395-3.185 1.447-.7467 3.057-1.12 4.83-1.12 1.354 0 2.579.2217 3.675.665 1.12.4433 2.054 1.12 2.8 2.03V15.31h4.165zm-9.975 14.14c1.657 0 3.01-.49 4.06-1.47 1.074-1.0033 1.61-2.2983 1.61-3.885 0-1.5633-.536-2.835-1.61-3.815-1.05-.98-2.403-1.47-4.06-1.47-1.68 0-3.056.49-4.13 1.47-1.05.98-1.575 2.2517-1.575 3.815 0 1.5867.525 2.8817 1.575 3.885 1.074.98 2.45 1.47 4.13 1.47zm33.227-14.14l-8.75 20.195c-.817 2.03-1.808 3.4533-2.975 4.27-1.167.84-2.578 1.26-4.235 1.26-.933 0-1.855-.1517-2.765-.455-.91-.3033-1.657-.7233-2.24-1.26l1.75-3.22c.42.3967.91.7117 1.47.945.583.2333 1.167.35 1.75.35.77 0 1.4-.1983 1.89-.595.513-.3967.98-1.0617 1.4-1.995l.315-.735-8.155-18.76h4.55l5.88 13.825 5.915-13.825h4.2z" fill="#1D2557"/></svg>