<svg width="187" height="68" viewBox="0 0 187 68" fill="none" xmlns="http://www.w3.org/2000/svg"><path d="M5.796 46.108c-.972 0-1.842-.21-2.61-.63-.756-.42-1.35-.996-1.782-1.728-.432-.744-.648-1.584-.648-2.52 0-.936.216-1.77.648-2.502.432-.744 1.026-1.32 1.782-1.728.768-.42 1.638-.63 2.61-.63.864 0 1.632.174 2.304.522.684.348 1.212.852 1.584 1.512l-1.314.846c-.3-.456-.672-.798-1.116-1.026-.444-.228-.936-.342-1.476-.342-.624 0-1.188.138-1.692.414-.492.276-.882.672-1.17 1.188-.276.504-.414 1.086-.414 1.746 0 .672.138 1.266.414 1.782.288.504.678.894 1.17 1.17.504.276 1.068.414 1.692.414.54 0 1.032-.114 1.476-.342.444-.228.816-.57 1.116-1.026l1.314.828c-.372.66-.9 1.17-1.584 1.53-.672.348-1.44.522-2.304.522zm10.0706 0c-.948 0-1.8-.21-2.556-.63-.756-.42-1.35-.996-1.782-1.728-.42-.744-.63-1.584-.63-2.52 0-.936.21-1.77.63-2.502.432-.744 1.026-1.32 1.782-1.728.756-.42 1.608-.63 2.556-.63s1.794.21 2.538.63c.756.408 1.344.984 1.764 1.728.432.732.648 1.566.648 2.502 0 .936-.216 1.776-.648 2.52-.42.732-1.008 1.308-1.764 1.728-.744.42-1.59.63-2.538.63zm0-1.512c.612 0 1.158-.138 1.638-.414.492-.288.876-.684 1.152-1.188.276-.516.414-1.104.414-1.764 0-.66-.138-1.242-.414-1.746-.276-.516-.66-.912-1.152-1.188-.48-.276-1.026-.414-1.638-.414-.612 0-1.164.138-1.656.414-.48.276-.864.672-1.152 1.188-.276.504-.414 1.086-.414 1.746 0 .66.138 1.248.414 1.764.288.504.672.9 1.152 1.188.492.276 1.044.414 1.656.414zm11.4258 1.512c-.948 0-1.8-.21-2.556-.63-.756-.42-1.35-.996-1.782-1.728-.42-.744-.63-1.584-.63-2.52 0-.936.21-1.77.63-2.502.432-.744 1.026-1.32 1.782-1.728.756-.42 1.608-.63 2.556-.63s1.794.21 2.538.63c.756.408 1.344.984 1.764 1.728.432.732.648 1.566.648 2.502 0 .936-.216 1.776-.648 2.52-.42.732-1.008 1.308-1.764 1.728-.744.42-1.59.63-2.538.63zm0-1.512c.612 0 1.158-.138 1.638-.414.492-.288.876-.684 1.152-1.188.276-.516.414-1.104.414-1.764 0-.66-.138-1.242-.414-1.746-.276-.516-.66-.912-1.152-1.188-.48-.276-1.026-.414-1.638-.414-.612 0-1.164.138-1.656.414-.48.276-.864.672-1.152 1.188-.276.504-.414 1.086-.414 1.746 0 .66.138 1.248.414 1.764.288.504.672.9 1.152 1.188.492.276 1.044.414 1.656.414zm7.3397-11.952h1.728V46h-1.728V32.644zm8.7354 8.91l-1.98 1.836V46h-1.728V32.644h1.728v8.568l5.202-4.752h2.088l-4.014 3.942 4.41 5.598h-2.124l-3.582-4.446zm7.2607-5.094h1.728V46h-1.728v-9.54zm.864-1.836c-.336 0-.618-.108-.846-.324-.216-.216-.324-.48-.324-.792 0-.312.108-.576.324-.792.228-.228.51-.342.846-.342.336 0 .612.108.828.324.228.204.342.462.342.774 0 .324-.114.6-.342.828-.216.216-.492.324-.828.324zm13.1634-1.98V46h-1.656v-1.512c-.384.528-.87.93-1.458 1.206-.588.276-1.236.414-1.944.414-.924 0-1.752-.204-2.484-.612-.732-.408-1.308-.978-1.728-1.71-.408-.744-.612-1.596-.612-2.556s.204-1.806.612-2.538c.42-.732.996-1.302 1.728-1.71.732-.408 1.56-.612 2.484-.612.684 0 1.314.132 1.89.396.576.252 1.056.63 1.44 1.134v-5.256h1.728zm-4.914 11.952c.6 0 1.146-.138 1.638-.414.492-.288.876-.684 1.152-1.188.276-.516.414-1.104.414-1.764 0-.66-.138-1.242-.414-1.746-.276-.516-.66-.912-1.152-1.188-.492-.276-1.038-.414-1.638-.414-.612 0-1.164.138-1.656.414-.48.276-.864.672-1.152 1.188-.276.504-.414 1.086-.414 1.746 0 .66.138 1.248.414 1.764.288.504.672.9 1.152 1.188.492.276 1.044.414 1.656.414zM71.0571 33.4V46h-1.782V34.966h-2.844V33.4h4.626zm7.9041 12.744c-.996 0-1.884-.252-2.664-.756-.768-.516-1.374-1.26-1.818-2.232-.444-.972-.666-2.124-.666-3.456 0-1.332.222-2.484.666-3.456.444-.972 1.05-1.71 1.818-2.214.78-.516 1.668-.774 2.664-.774.984 0 1.86.258 2.628.774.78.504 1.392 1.242 1.836 2.214.444.972.666 2.124.666 3.456 0 1.332-.222 2.484-.666 3.456-.444.972-1.056 1.716-1.836 2.232-.768.504-1.644.756-2.628.756zm0-1.602c1.008 0 1.812-.414 2.412-1.242.612-.828.918-2.028.918-3.6s-.306-2.772-.918-3.6c-.6-.828-1.404-1.242-2.412-1.242-1.02 0-1.836.414-2.448 1.242-.6.828-.9 2.028-.9 3.6s.3 2.772.9 3.6c.612.828 1.428 1.242 2.448 1.242zm12.0059 1.602c-.996 0-1.884-.252-2.664-.756-.768-.516-1.374-1.26-1.818-2.232-.444-.972-.666-2.124-.666-3.456 0-1.332.222-2.484.666-3.456.444-.972 1.05-1.71 1.818-2.214.78-.516 1.668-.774 2.664-.774.984 0 1.86.258 2.628.774.78.504 1.392 1.242 1.836 2.214.444.972.666 2.124.666 3.456 0 1.332-.222 2.484-.666 3.456-.444.972-1.056 1.716-1.836 2.232-.768.504-1.644.756-2.628.756zm0-1.602c1.008 0 1.812-.414 2.412-1.242.612-.828.918-2.028.918-3.6s-.306-2.772-.918-3.6c-.6-.828-1.404-1.242-2.412-1.242-1.02 0-1.836.414-2.448 1.242-.6.828-.9 2.028-.9 3.6s.3 2.772.9 3.6c.612.828 1.428 1.242 2.448 1.242zm12.0059 1.602c-.996 0-1.884-.252-2.664-.756-.7681-.516-1.3741-1.26-1.8181-2.232-.444-.972-.666-2.124-.666-3.456 0-1.332.222-2.484.666-3.456.444-.972 1.05-1.71 1.8181-2.214.78-.516 1.668-.774 2.664-.774.984 0 1.86.258 2.628.774.78.504 1.392 1.242 1.836 2.214.444.972.666 2.124.666 3.456 0 1.332-.222 2.484-.666 3.456-.444.972-1.056 1.716-1.836 2.232-.768.504-1.644.756-2.628.756zm0-1.602c1.008 0 1.812-.414 2.412-1.242.612-.828.918-2.028.918-3.6s-.306-2.772-.918-3.6c-.6-.828-1.404-1.242-2.412-1.242-1.02 0-1.836.414-2.448 1.242-.6001.828-.9001 2.028-.9001 3.6s.3 2.772.9001 3.6c.612.828 1.428 1.242 2.448 1.242z" fill="#fff"/><path d="M152.293 37.488c-8.56 0-15.5 6.9396-15.5 15.5v3.875h31v-3.875c0-8.5604-6.939-15.5-15.5-15.5z" fill="#E3F5FF" stroke="#fff" stroke-width="4"/><ellipse cx="152.294" cy="23.9255" rx="11.6251" ry="11.625" fill="#E3F5FF" stroke="#fff" stroke-width="4" stroke-linecap="square"/></svg>