<svg width="161" height="40" viewBox="0 0 161 40" fill="none" xmlns="http://www.w3.org/2000/svg"><path d="M5.88 9.32v4.44h7.776v3.12H5.88V23H1.992V6.2h12.696v3.12H5.88zm14.5178 2.472c.448-.624 1.048-1.096 1.8-1.416.768-.32 1.648-.48 2.64-.48v3.456c-.416-.032-.696-.048-.84-.048-1.072 0-1.912.304-2.52.912-.608.592-.912 1.488-.912 2.688V23h-3.744V10.088h3.576v1.704zm6.6661-1.704h3.744V23h-3.744V10.088zm1.872-1.8c-.688 0-1.248-.2-1.68-.6-.432-.4-.648-.896-.648-1.488s.216-1.088.648-1.488c.432-.4.992-.6 1.68-.6s1.248.192 1.68.576c.432.384.648.864.648 1.44 0 .624-.216 1.144-.648 1.56-.432.4-.992.6-1.68.6zm17.9948 8.304c0 .048-.024.384-.072 1.008h-9.768c.176.8.592 1.432 1.248 1.896.656.464 1.472.696 2.448.696.672 0 1.264-.096 1.776-.288.528-.208 1.016-.528 1.464-.96l1.992 2.16c-1.216 1.392-2.992 2.088-5.328 2.088-1.456 0-2.744-.28-3.864-.84-1.12-.576-1.984-1.368-2.592-2.376-.608-1.008-.912-2.152-.912-3.432 0-1.264.296-2.4.888-3.408.608-1.024 1.432-1.816 2.472-2.376 1.056-.576 2.232-.864 3.528-.864 1.264 0 2.408.272 3.432.816 1.024.544 1.824 1.328 2.4 2.352.592 1.008.888 2.184.888 3.528zm-6.696-3.864c-.848 0-1.56.24-2.136.72-.576.48-.928 1.136-1.056 1.968h6.36c-.128-.816-.48-1.464-1.056-1.944-.576-.496-1.28-.744-2.112-.744zm17.0366-2.832c1.6 0 2.888.48 3.864 1.44.992.96 1.488 2.384 1.488 4.272V23h-3.744v-6.816c0-1.024-.224-1.784-.672-2.28-.448-.512-1.096-.768-1.944-.768-.944 0-1.696.296-2.256.888-.56.576-.84 1.44-.84 2.592V23h-3.744V10.088h3.576V11.6c.496-.544 1.112-.96 1.848-1.248.736-.304 1.544-.456 2.424-.456zm22.0384-4.704V23h-3.576v-1.488c-.928 1.12-2.272 1.68-4.032 1.68-1.216 0-2.32-.272-3.312-.816-.976-.544-1.744-1.32-2.304-2.328-.56-1.008-.84-2.176-.84-3.504 0-1.328.28-2.496.84-3.504.56-1.008 1.328-1.784 2.304-2.328.992-.544 2.096-.816 3.312-.816 1.648 0 2.936.52 3.864 1.56V5.192h3.744zm-6.96 14.928c.944 0 1.728-.32 2.352-.96.624-.656.936-1.528.936-2.616s-.312-1.952-.936-2.592c-.624-.656-1.408-.984-2.352-.984-.96 0-1.752.328-2.376.984-.624.64-.936 1.504-.936 2.592s.312 1.96.936 2.616c.624.64 1.416.96 2.376.96zm14.7692 3.072c-1.072 0-2.12-.128-3.144-.384-1.024-.272-1.84-.608-2.448-1.008l1.248-2.688c.576.368 1.272.672 2.088.912.816.224 1.616.336 2.4.336 1.584 0 2.376-.392 2.376-1.176 0-.368-.216-.632-.648-.792-.432-.16-1.096-.296-1.992-.408-1.056-.16-1.928-.344-2.616-.552-.688-.208-1.288-.576-1.8-1.104-.496-.528-.744-1.28-.744-2.256 0-.816.232-1.536.696-2.16.48-.64 1.168-1.136 2.064-1.488.912-.352 1.984-.528 3.216-.528.912 0 1.816.104 2.712.312.912.192 1.664.464 2.256.816l-1.248 2.664c-1.136-.64-2.376-.96-3.72-.96-.8 0-1.4.112-1.8.336-.4.224-.6.512-.6.864 0 .4.216.68.648.84.432.16 1.12.312 2.064.456 1.056.176 1.92.368 2.592.576.672.192 1.256.552 1.752 1.08s.744 1.264.744 2.208c0 .8-.24 1.512-.72 2.136-.48.624-1.184 1.112-2.112 1.464-.912.336-2 .504-3.264.504z" fill="#1D2557"/></svg>