<svg width="152" height="150" viewBox="0 0 152 150" fill="none" xmlns="http://www.w3.org/2000/svg"><path d="M10.764 7.46v8.244c0 1.668-.414 2.898-1.242 3.69-.828.804-2.064 1.206-3.708 1.206-.9 0-1.758-.126-2.574-.378-.816-.24-1.476-.588-1.98-1.044l.828-1.332c.444.384.99.684 1.638.9.66.228 1.338.342 2.034.342 1.116 0 1.938-.264 2.466-.792.54-.528.81-1.332.81-2.412v-.756c-.408.492-.912.864-1.512 1.116-.588.24-1.23.36-1.926.36-.912 0-1.74-.192-2.484-.576-.732-.396-1.308-.942-1.728-1.638-.42-.708-.63-1.512-.63-2.412 0-.9.21-1.698.63-2.394.42-.708.996-1.254 1.728-1.638.744-.384 1.572-.576 2.484-.576.72 0 1.386.132 1.998.396.624.264 1.134.654 1.53 1.17V7.46h1.638zm-4.968 7.632c.624 0 1.182-.132 1.674-.396.504-.264.894-.63 1.17-1.098.288-.48.432-1.02.432-1.62 0-.924-.306-1.668-.918-2.232-.612-.576-1.398-.864-2.358-.864-.972 0-1.764.288-2.376.864-.612.564-.918 1.308-.918 2.232 0 .6.138 1.14.414 1.62.288.468.678.834 1.17 1.098.504.264 1.074.396 1.71.396zM17.5397 7.37c1.32 0 2.328.324 3.024.972.708.648 1.062 1.614 1.062 2.898V17h-1.638v-1.26c-.288.444-.702.786-1.242 1.026-.528.228-1.158.342-1.89.342-1.068 0-1.926-.258-2.574-.774-.636-.516-.954-1.194-.954-2.034 0-.84.306-1.512.918-2.016.612-.516 1.584-.774 2.916-.774h2.736v-.342c0-.744-.216-1.314-.648-1.71-.432-.396-1.068-.594-1.908-.594-.564 0-1.116.096-1.656.288-.54.18-.996.426-1.368.738l-.72-1.296c.492-.396 1.08-.696 1.764-.9.684-.216 1.41-.324 2.178-.324zm-.396 8.406c.66 0 1.23-.144 1.71-.432.48-.3.828-.72 1.044-1.26v-1.332h-2.664c-1.464 0-2.196.492-2.196 1.476 0 .48.186.858.558 1.134.372.276.888.414 1.548.414zM36.7575 7.37c1.2 0 2.148.348 2.844 1.044.708.696 1.062 1.728 1.062 3.096V17h-1.728v-5.292c0-.924-.216-1.62-.648-2.088-.42-.468-1.026-.702-1.818-.702-.876 0-1.572.276-2.088.828-.516.54-.774 1.32-.774 2.34V17h-1.728v-5.292c0-.924-.216-1.62-.648-2.088-.42-.468-1.026-.702-1.818-.702-.876 0-1.572.276-2.088.828-.516.54-.774 1.32-.774 2.34V17h-1.728V7.46h1.656v1.422c.348-.492.804-.864 1.368-1.116.564-.264 1.206-.396 1.926-.396.744 0 1.404.15 1.98.45.576.3 1.02.738 1.332 1.314.36-.552.858-.984 1.494-1.296.648-.312 1.374-.468 2.178-.468zm15.7603 4.914c0 .132-.012.306-.036.522h-7.74c.108.84.474 1.518 1.098 2.034.636.504 1.422.756 2.358.756 1.14 0 2.058-.384 2.754-1.152l.954 1.116c-.432.504-.972.888-1.62 1.152-.636.264-1.35.396-2.142.396-1.008 0-1.902-.204-2.682-.612-.78-.42-1.386-1.002-1.818-1.746-.42-.744-.63-1.584-.63-2.52 0-.924.204-1.758.612-2.502.42-.744.99-1.32 1.71-1.728.732-.42 1.554-.63 2.466-.63.912 0 1.722.21 2.43.63.72.408 1.278.984 1.674 1.728.408.744.612 1.596.612 2.556zm-4.716-3.456c-.828 0-1.524.252-2.088.756-.552.504-.876 1.164-.972 1.98h6.12c-.096-.804-.426-1.458-.99-1.962-.552-.516-1.242-.774-2.07-.774zm8.7715.234c.3-.552.744-.972 1.332-1.26.588-.288 1.302-.432 2.142-.432v1.674c-.096-.012-.228-.018-.396-.018-.936 0-1.674.282-2.214.846-.528.552-.792 1.344-.792 2.376V17h-1.728V7.46h1.656v1.602zM71.2152 7.46v8.244c0 1.668-.414 2.898-1.242 3.69-.828.804-2.064 1.206-3.708 1.206-.9 0-1.758-.126-2.574-.378-.816-.24-1.476-.588-1.98-1.044l.828-1.332c.444.384.99.684 1.638.9.66.228 1.338.342 2.034.342 1.116 0 1.938-.264 2.466-.792.54-.528.81-1.332.81-2.412v-.756c-.408.492-.912.864-1.512 1.116-.588.24-1.23.36-1.926.36-.912 0-1.74-.192-2.484-.576-.732-.396-1.308-.942-1.728-1.638-.42-.708-.63-1.512-.63-2.412 0-.9.21-1.698.63-2.394.42-.708.996-1.254 1.728-1.638.744-.384 1.572-.576 2.484-.576.72 0 1.386.132 1.998.396.624.264 1.134.654 1.53 1.17V7.46h1.638zm-4.968 7.632c.624 0 1.182-.132 1.674-.396.504-.264.894-.63 1.17-1.098.288-.48.432-1.02.432-1.62 0-.924-.306-1.668-.918-2.232-.612-.576-1.398-.864-2.358-.864-.972 0-1.764.288-2.376.864-.612.564-.918 1.308-.918 2.232 0 .6.138 1.14.414 1.62.288.468.678.834 1.17 1.098.504.264 1.074.396 1.71.396zm8.2697-7.632h1.728V17h-1.728V7.46zm.864-1.836c-.336 0-.618-.108-.846-.324-.216-.216-.324-.48-.324-.792 0-.312.108-.576.324-.792.228-.228.51-.342.846-.342.336 0 .612.108.828.324.228.204.342.462.342.774 0 .324-.114.6-.342.828-.216.216-.492.324-.828.324zm5.8194 3.438c.3-.552.744-.972 1.3319-1.26.5881-.288 1.3021-.432 2.1421-.432v1.674c-.096-.012-.228-.018-.396-.018-.936 0-1.674.282-2.214.846-.528.552-.792 1.344-.792 2.376V17h-1.728V7.46h1.656v1.602zm5.6037-5.418h1.728V17h-1.728V3.644zm13.1094 11.79V17h-9.054v-1.224l5.13-4.95c.624-.6 1.044-1.116 1.26-1.548.216-.444.324-.888.324-1.332 0-.66-.234-1.17-.702-1.53-.456-.372-1.116-.558-1.98-.558-1.392 0-2.466.456-3.222 1.368l-1.224-1.062c.492-.6 1.134-1.068 1.926-1.404.804-.336 1.698-.504 2.682-.504 1.32 0 2.37.318 3.15.954.78.624 1.17 1.476 1.17 2.556 0 .672-.144 1.308-.432 1.908-.288.6-.834 1.284-1.638 2.052l-3.852 3.708h6.462zm5.5656-11.178c1.692 0 2.994.546 3.906 1.638.924 1.092 1.386 2.64 1.386 4.644 0 1.404-.252 2.604-.756 3.6-.492.984-1.188 1.734-2.088 2.25-.888.504-1.926.756-3.114.756-.612 0-1.188-.06-1.728-.18-.54-.132-1.008-.318-1.404-.558l.684-1.404c.612.396 1.422.594 2.43.594 1.308 0 2.328-.402 3.06-1.206.744-.816 1.116-1.998 1.116-3.546v-.45c-.36.54-.858.954-1.494 1.242-.636.276-1.35.414-2.142.414-.828 0-1.572-.156-2.232-.468-.648-.312-1.158-.756-1.53-1.332-.36-.588-.54-1.26-.54-2.016 0-.792.192-1.488.576-2.088.396-.6.93-1.062 1.602-1.386.672-.336 1.428-.504 2.268-.504zm.162 6.336c.564 0 1.068-.108 1.512-.324.444-.216.786-.51 1.026-.882.252-.372.378-.786.378-1.242 0-.444-.12-.846-.36-1.206-.228-.372-.57-.666-1.026-.882-.444-.228-.984-.342-1.62-.342-.828 0-1.5.222-2.016.666-.504.444-.756 1.038-.756 1.782s.258 1.338.774 1.782c.516.432 1.212.648 2.088.648zM13.572 39.37c1.2 0 2.148.348 2.844 1.044.708.696 1.062 1.728 1.062 3.096V49H15.75v-5.292c0-.924-.216-1.62-.648-2.088-.42-.468-1.026-.702-1.818-.702-.876 0-1.572.276-2.088.828-.516.54-.774 1.32-.774 2.34V49H8.694v-5.292c0-.924-.216-1.62-.648-2.088-.42-.468-1.026-.702-1.818-.702-.876 0-1.572.276-2.088.828-.516.54-.774 1.32-.774 2.34V49H1.638v-9.54h1.656v1.422c.348-.492.804-.864 1.368-1.116.564-.264 1.206-.396 1.926-.396.744 0 1.404.15 1.98.45.576.3 1.02.738 1.332 1.314.36-.552.858-.984 1.494-1.296.648-.312 1.374-.468 2.178-.468zm10.5595 0c1.32 0 2.328.324 3.024.972.708.648 1.062 1.614 1.062 2.898V49h-1.638v-1.26c-.288.444-.702.786-1.242 1.026-.528.228-1.158.342-1.89.342-1.068 0-1.926-.258-2.574-.774-.636-.516-.954-1.194-.954-2.034 0-.84.306-1.512.918-2.016.612-.516 1.584-.774 2.916-.774h2.736v-.342c0-.744-.216-1.314-.648-1.71-.432-.396-1.068-.594-1.908-.594-.564 0-1.116.096-1.656.288-.54.18-.996.426-1.368.738l-.72-1.296c.492-.396 1.08-.696 1.764-.9.684-.216 1.41-.324 2.178-.324zm-.396 8.406c.66 0 1.23-.144 1.71-.432.48-.3.828-.72 1.044-1.26v-1.332h-2.664c-1.464 0-2.196.492-2.196 1.476 0 .48.186.858.558 1.134.372.276.888.414 1.548.414zM37.4993 49l-2.754-3.654-2.79 3.654h-1.926l3.762-4.878-3.582-4.662h1.926l2.628 3.438 2.61-3.438h1.89l-3.6 4.662L39.4613 49h-1.962zm2.8777 0h9v1.116h-9V49zm10.638-9.54h1.728V49h-1.728v-9.54zm.864-1.836c-.336 0-.618-.108-.846-.324-.216-.216-.324-.48-.324-.792 0-.312.108-.576.324-.792.228-.228.51-.342.846-.342.336 0 .612.108.828.324.228.204.342.462.342.774 0 .324-.114.6-.342.828-.216.216-.492.324-.828.324zm6.8993 11.484c-.78 0-1.53-.102-2.25-.306-.72-.216-1.284-.486-1.692-.81l.72-1.368c.42.3.93.54 1.53.72.6.18 1.206.27 1.818.27 1.512 0 2.268-.432 2.268-1.296 0-.288-.102-.516-.306-.684-.204-.168-.462-.288-.774-.36-.3-.084-.732-.174-1.296-.27-.768-.12-1.398-.258-1.89-.414-.48-.156-.894-.42-1.242-.792-.348-.372-.522-.894-.522-1.566 0-.864.36-1.554 1.08-2.07.72-.528 1.686-.792 2.898-.792.636 0 1.272.078 1.908.234.636.156 1.158.366 1.566.63l-.738 1.368c-.78-.504-1.698-.756-2.754-.756-.732 0-1.29.12-1.674.36-.384.24-.576.558-.576.954 0 .312.108.558.324.738.216.18.48.312.792.396.324.084.774.18 1.35.288.768.132 1.386.276 1.854.432.48.144.888.396 1.224.756.336.36.504.864.504 1.512 0 .864-.372 1.554-1.116 2.07-.732.504-1.734.756-3.006.756zM63.4219 49h9v1.116h-9V49zm15.6504-.558c-.252.216-.564.384-.936.504-.372.108-.756.162-1.152.162-.96 0-1.704-.258-2.232-.774-.528-.516-.792-1.254-.792-2.214v-5.238h-1.62V39.46h1.62v-2.088h1.728v2.088h2.736v1.422h-2.736v5.166c0 .516.126.912.378 1.188.264.276.636.414 1.116.414.528 0 .978-.15 1.35-.45l.54 1.242zm7.1831-9.072c1.212 0 2.172.354 2.88 1.062.72.696 1.08 1.722 1.08 3.078V49h-1.728v-5.292c0-.924-.222-1.62-.666-2.088-.444-.468-1.08-.702-1.908-.702-.936 0-1.674.276-2.214.828-.54.54-.81 1.32-.81 2.34V49h-1.728V35.644h1.728v5.166c.36-.456.828-.81 1.404-1.062.588-.252 1.242-.378 1.962-.378zm15.8326 4.914c0 .132-.012.306-.036.522h-7.7399c.108.84.474 1.518 1.098 2.034.636.504 1.422.756 2.358.756 1.14 0 2.058-.384 2.7539-1.152l.954 1.116c-.432.504-.972.888-1.6199 1.152-.636.264-1.35.396-2.142.396-1.008 0-1.902-.204-2.682-.612-.78-.42-1.386-1.002-1.818-1.746-.42-.744-.63-1.584-.63-2.52 0-.924.204-1.758.612-2.502.42-.744.99-1.32 1.71-1.728.732-.42 1.554-.63 2.466-.63.912 0 1.722.21 2.43.63.7199.408 1.2779.984 1.6739 1.728.408.744.612 1.596.612 2.556zm-4.7159-3.456c-.828 0-1.524.252-2.088.756-.552.504-.876 1.164-.972 1.98h6.1199c-.096-.804-.426-1.458-.9899-1.962-.552-.516-1.242-.774-2.07-.774zM102.727 49h9v1.116h-9V49zm15.696-9.63c.924 0 1.752.204 2.484.612.732.408 1.302.978 1.71 1.71.42.732.63 1.578.63 2.538 0 .96-.21 1.812-.63 2.556-.408.732-.978 1.302-1.71 1.71-.732.408-1.56.612-2.484.612-.708 0-1.356-.138-1.944-.414-.588-.276-1.074-.678-1.458-1.206V49h-1.656V35.644h1.728V40.9c.384-.504.864-.882 1.44-1.134.576-.264 1.206-.396 1.89-.396zm-.144 8.226c.612 0 1.158-.138 1.638-.414.492-.288.876-.684 1.152-1.188.288-.516.432-1.104.432-1.764 0-.66-.144-1.242-.432-1.746-.276-.516-.66-.912-1.152-1.188-.48-.276-1.026-.414-1.638-.414-.6 0-1.146.138-1.638.414-.492.276-.876.672-1.152 1.188-.276.504-.414 1.086-.414 1.746 0 .66.138 1.248.414 1.764.276.504.66.9 1.152 1.188.492.276 1.038.414 1.638.414zm15.977-3.312c0 .132-.012.306-.036.522h-7.74c.108.84.474 1.518 1.098 2.034.636.504 1.422.756 2.358.756 1.14 0 2.058-.384 2.754-1.152l.954 1.116c-.432.504-.972.888-1.62 1.152-.636.264-1.35.396-2.142.396-1.008 0-1.902-.204-2.682-.612-.78-.42-1.386-1.002-1.818-1.746-.42-.744-.63-1.584-.63-2.52 0-.924.204-1.758.612-2.502.42-.744.99-1.32 1.71-1.728.732-.42 1.554-.63 2.466-.63.912 0 1.722.21 2.43.63.72.408 1.278.984 1.674 1.728.408.744.612 1.596.612 2.556zm-4.716-3.456c-.828 0-1.524.252-2.088.756-.552.504-.876 1.164-.972 1.98h6.12c-.096-.804-.426-1.458-.99-1.962-.552-.516-1.242-.774-2.07-.774zm9.852 8.28c-.78 0-1.53-.102-2.25-.306-.72-.216-1.284-.486-1.692-.81l.72-1.368c.42.3.93.54 1.53.72.6.18 1.206.27 1.818.27 1.512 0 2.268-.432 2.268-1.296 0-.288-.102-.516-.306-.684-.204-.168-.462-.288-.774-.36-.3-.084-.732-.174-1.296-.27-.768-.12-1.398-.258-1.89-.414-.48-.156-.894-.42-1.242-.792-.348-.372-.522-.894-.522-1.566 0-.864.36-1.554 1.08-2.07.72-.528 1.686-.792 2.898-.792.636 0 1.272.078 1.908.234.636.156 1.158.366 1.566.63l-.738 1.368c-.78-.504-1.698-.756-2.754-.756-.732 0-1.29.12-1.674.36-.384.24-.576.558-.576.954 0 .312.108.558.324.738.216.18.48.312.792.396.324.084.774.18 1.35.288.768.132 1.386.276 1.854.432.48.144.888.396 1.224.756.336.36.504.864.504 1.512 0 .864-.372 1.554-1.116 2.07-.732.504-1.734.756-3.006.756zm11.645-.666c-.252.216-.564.384-.936.504-.372.108-.756.162-1.152.162-.96 0-1.704-.258-2.232-.774-.528-.516-.792-1.254-.792-2.214v-5.238h-1.62V39.46h1.62v-2.088h1.728v2.088h2.736v1.422h-2.736v5.166c0 .516.126.912.378 1.188.264.276.636.414 1.116.414.528 0 .978-.15 1.35-.45l.54 1.242zM5.976 81.144c-1.032 0-1.962-.21-2.79-.63-.816-.432-1.458-1.026-1.926-1.782-.456-.756-.684-1.614-.684-2.574 0-.96.228-1.818.684-2.574.468-.756 1.11-1.344 1.926-1.764.828-.432 1.758-.648 2.79-.648 1.02 0 1.908.216 2.664.648.768.42 1.326 1.026 1.674 1.818l-2.178 1.17c-.504-.888-1.23-1.332-2.178-1.332-.732 0-1.338.24-1.818.72s-.72 1.134-.72 1.962c0 .828.24 1.482.72 1.962s1.086.72 1.818.72c.96 0 1.686-.444 2.178-1.332l2.178 1.188c-.348.768-.906 1.368-1.674 1.8-.756.432-1.644.648-2.664.648zm10.4397 0c-1.02 0-1.938-.21-2.754-.63-.804-.432-1.434-1.026-1.89-1.782-.456-.756-.684-1.614-.684-2.574 0-.96.228-1.818.684-2.574.456-.756 1.086-1.344 1.89-1.764.816-.432 1.734-.648 2.754-.648s1.932.216 2.736.648c.804.42 1.434 1.008 1.89 1.764.456.756.684 1.614.684 2.574 0 .96-.228 1.818-.684 2.574-.456.756-1.086 1.35-1.89 1.782-.804.42-1.716.63-2.736.63zm0-2.304c.72 0 1.308-.24 1.764-.72.468-.492.702-1.146.702-1.962 0-.816-.234-1.464-.702-1.944-.456-.492-1.044-.738-1.764-.738s-1.314.246-1.782.738c-.468.48-.702 1.128-.702 1.944 0 .816.234 1.47.702 1.962.468.48 1.062.72 1.782.72zm11.7949 2.304c-1.02 0-1.938-.21-2.754-.63-.804-.432-1.434-1.026-1.89-1.782-.456-.756-.684-1.614-.684-2.574 0-.96.228-1.818.684-2.574.456-.756 1.086-1.344 1.89-1.764.816-.432 1.734-.648 2.754-.648s1.932.216 2.736.648c.804.42 1.434 1.008 1.89 1.764.456.756.684 1.614.684 2.574 0 .96-.228 1.818-.684 2.574-.456.756-1.086 1.35-1.89 1.782-.804.42-1.716.63-2.736.63zm0-2.304c.72 0 1.308-.24 1.764-.72.468-.492.702-1.146.702-1.962 0-.816-.234-1.464-.702-1.944-.456-.492-1.044-.738-1.764-.738s-1.314.246-1.782.738c-.468.48-.702 1.128-.702 1.944 0 .816.234 1.47.702 1.962.468.48 1.062.72 1.782.72zm7.187-11.196h2.808V81h-2.808V67.644zm9.572 9.558l-1.35 1.332V81h-2.808V67.644h2.808v7.56l4.104-3.888h3.348l-4.032 4.104 4.392 5.58h-3.402l-3.06-3.798zm7.6545-5.886h2.808V81h-2.808v-9.684zm1.404-1.35c-.516 0-.936-.15-1.26-.45-.324-.3-.486-.672-.486-1.116 0-.444.162-.816.486-1.116.324-.3.744-.45 1.26-.45s.936.144 1.26.432c.324.288.486.648.486 1.08 0 .468-.162.858-.486 1.17-.324.3-.744.45-1.26.45zm13.8741-2.322V81h-2.682v-1.116c-.696.84-1.704 1.26-3.024 1.26-.912 0-1.74-.204-2.484-.612-.732-.408-1.308-.99-1.728-1.746-.42-.756-.63-1.632-.63-2.628 0-.996.21-1.872.63-2.628.42-.756.996-1.338 1.728-1.746.744-.408 1.572-.612 2.484-.612 1.236 0 2.202.39 2.898 1.17v-4.698h2.808zm-5.22 11.196c.708 0 1.296-.24 1.764-.72.468-.492.702-1.146.702-1.962 0-.816-.234-1.464-.702-1.944-.468-.492-1.056-.738-1.764-.738-.72 0-1.314.246-1.782.738-.468.48-.702 1.128-.702 1.944 0 .816.234 1.47.702 1.962.468.48 1.062.72 1.782.72zM74.7671 68.4V81h-2.916V70.74h-2.52V68.4h5.436zm7.5888 12.816c-1.044 0-1.974-.258-2.79-.774-.816-.516-1.458-1.26-1.926-2.232-.456-.984-.684-2.154-.684-3.51 0-1.356.228-2.52.684-3.492.468-.984 1.11-1.734 1.926-2.25.816-.516 1.746-.774 2.79-.774s1.974.258 2.79.774c.816.516 1.452 1.266 1.908 2.25.468.972.702 2.136.702 3.492 0 1.356-.234 2.526-.702 3.51-.456.972-1.092 1.716-1.908 2.232-.816.516-1.746.774-2.79.774zm0-2.466c.768 0 1.368-.33 1.8-.99.444-.66.666-1.68.666-3.06 0-1.38-.222-2.4-.666-3.06-.432-.66-1.032-.99-1.8-.99-.756 0-1.356.33-1.8.99-.432.66-.648 1.68-.648 3.06 0 1.38.216 2.4.648 3.06.444.66 1.044.99 1.8.99zm12.2168 2.466c-1.044 0-1.974-.258-2.79-.774-.816-.516-1.458-1.26-1.926-2.232-.456-.984-.684-2.154-.684-3.51 0-1.356.228-2.52.684-3.492.468-.984 1.11-1.734 1.926-2.25.816-.516 1.746-.774 2.79-.774s1.974.258 2.79.774c.816.516 1.452 1.266 1.908 2.25.468.972.702 2.136.702 3.492 0 1.356-.234 2.526-.702 3.51-.456.972-1.092 1.716-1.908 2.232-.816.516-1.746.774-2.79.774zm0-2.466c.768 0 1.368-.33 1.8-.99.444-.66.666-1.68.666-3.06 0-1.38-.222-2.4-.666-3.06-.432-.66-1.032-.99-1.8-.99-.756 0-1.356.33-1.8.99-.432.66-.648 1.68-.648 3.06 0 1.38.216 2.4.648 3.06.444.66 1.044.99 1.8.99zm12.2173 2.466c-1.044 0-1.974-.258-2.79-.774-.816-.516-1.458-1.26-1.926-2.232-.456-.984-.684-2.154-.684-3.51 0-1.356.228-2.52.684-3.492.468-.984 1.11-1.734 1.926-2.25.816-.516 1.746-.774 2.79-.774s1.974.258 2.79.774c.816.516 1.452 1.266 1.908 2.25.468.972.702 2.136.702 3.492 0 1.356-.234 2.526-.702 3.51-.456.972-1.092 1.716-1.908 2.232-.816.516-1.746.774-2.79.774zm0-2.466c.768 0 1.368-.33 1.8-.99.444-.66.666-1.68.666-3.06 0-1.38-.222-2.4-.666-3.06-.432-.66-1.032-.99-1.8-.99-.756 0-1.356.33-1.8.99-.432.66-.648 1.68-.648 3.06 0 1.38.216 2.4.648 3.06.444.66 1.044.99 1.8.99zM6.696 103.37c.924 0 1.752.204 2.484.612.732.408 1.302.978 1.71 1.71.42.732.63 1.578.63 2.538 0 .96-.21 1.812-.63 2.556-.408.732-.978 1.302-1.71 1.71-.732.408-1.56.612-2.484.612-.708 0-1.356-.138-1.944-.414-.588-.276-1.074-.678-1.458-1.206V113H1.638V99.644h1.728v5.256c.384-.504.864-.882 1.44-1.134.576-.264 1.206-.396 1.89-.396zm-.144 8.226c.612 0 1.158-.138 1.638-.414.492-.288.876-.684 1.152-1.188.288-.516.432-1.104.432-1.764 0-.66-.144-1.242-.432-1.746-.276-.516-.66-.912-1.152-1.188-.48-.276-1.026-.414-1.638-.414-.6 0-1.146.138-1.638.414-.492.276-.876.672-1.152 1.188-.276.504-.414 1.086-.414 1.746 0 .66.138 1.248.414 1.764.276.504.66.9 1.152 1.188.492.276 1.038.414 1.638.414zm7.3555-11.952h1.728V113h-1.728V99.644zm13.9194 3.816V113h-1.638v-1.44c-.348.492-.81.876-1.386 1.152-.564.264-1.182.396-1.854.396-1.272 0-2.274-.348-3.006-1.044-.732-.708-1.098-1.746-1.098-3.114v-5.49h1.728v5.292c0 .924.222 1.626.666 2.106.444.468 1.08.702 1.908.702.912 0 1.632-.276 2.16-.828.528-.552.792-1.332.792-2.34v-4.932h1.728zm11.9116 4.824c0 .132-.012.306-.036.522h-7.74c.108.84.474 1.518 1.098 2.034.636.504 1.422.756 2.358.756 1.14 0 2.058-.384 2.754-1.152l.954 1.116c-.432.504-.972.888-1.62 1.152-.636.264-1.35.396-2.142.396-1.008 0-1.902-.204-2.682-.612-.78-.42-1.386-1.002-1.818-1.746-.42-.744-.63-1.584-.63-2.52 0-.924.204-1.758.612-2.502.42-.744.99-1.32 1.71-1.728.732-.42 1.554-.63 2.466-.63.912 0 1.722.21 2.43.63.72.408 1.278.984 1.674 1.728.408.744.612 1.596.612 2.556zm-4.716-3.456c-.828 0-1.524.252-2.088.756-.552.504-.876 1.164-.972 1.98h6.12c-.096-.804-.426-1.458-.99-1.962-.552-.516-1.242-.774-2.07-.774zm12.1735-1.458c.924 0 1.752.204 2.484.612.732.408 1.302.978 1.71 1.71.42.732.63 1.578.63 2.538 0 .96-.21 1.812-.63 2.556-.408.732-.978 1.302-1.71 1.71-.732.408-1.56.612-2.484.612-.708 0-1.356-.138-1.944-.414-.588-.276-1.074-.678-1.458-1.206V113h-1.656V99.644h1.728v5.256c.384-.504.864-.882 1.44-1.134.576-.264 1.206-.396 1.89-.396zm-.144 8.226c.612 0 1.158-.138 1.638-.414.492-.288.876-.684 1.152-1.188.288-.516.432-1.104.432-1.764 0-.66-.144-1.242-.432-1.746-.276-.516-.66-.912-1.152-1.188-.48-.276-1.026-.414-1.638-.414-.6 0-1.146.138-1.638.414-.492.276-.876.672-1.152 1.188-.276.504-.414 1.086-.414 1.746 0 .66.138 1.248.414 1.764.276.504.66.9 1.152 1.188.492.276 1.038.414 1.638.414zm15.9775-3.312c0 .132-.012.306-.036.522h-7.74c.108.84.474 1.518 1.098 2.034.636.504 1.422.756 2.358.756 1.14 0 2.058-.384 2.754-1.152l.954 1.116c-.432.504-.972.888-1.62 1.152-.636.264-1.35.396-2.142.396-1.008 0-1.902-.204-2.682-.612-.78-.42-1.386-1.002-1.818-1.746-.42-.744-.63-1.584-.63-2.52 0-.924.204-1.758.612-2.502.42-.744.99-1.32 1.71-1.728.732-.42 1.554-.63 2.466-.63.912 0 1.722.21 2.43.63.72.408 1.278.984 1.674 1.728.408.744.612 1.596.612 2.556zm-4.716-3.456c-.828 0-1.524.252-2.088.756-.552.504-.876 1.164-.972 1.98h6.12c-.096-.804-.426-1.458-.99-1.962-.552-.516-1.242-.774-2.07-.774zm8.7715.234c.3-.552.744-.972 1.332-1.26.588-.288 1.302-.432 2.142-.432v1.674c-.096-.012-.228-.018-.396-.018-.936 0-1.674.282-2.214.846-.528.552-.792 1.344-.792 2.376V113h-1.728v-9.54h1.656v1.602zm7.2598 0c.3-.552.744-.972 1.332-1.26.588-.288 1.302-.432 2.142-.432v1.674c-.096-.012-.228-.018-.396-.018-.936 0-1.674.282-2.214.846-.528.552-.792 1.344-.792 2.376V113h-1.728v-9.54h1.656v1.602zm14.4325-1.602l-4.626 10.494c-.408.972-.888 1.656-1.44 2.052-.54.396-1.194.594-1.962.594-.468 0-.924-.078-1.368-.234-.432-.144-.792-.36-1.08-.648l.738-1.296c.492.468 1.062.702 1.71.702.42 0 .768-.114 1.044-.342.288-.216.546-.594.774-1.134l.306-.666-4.212-9.522h1.8l3.33 7.632 3.294-7.632h1.692zm4.938-3.06V113h-1.782v-11.034h-2.844V100.4h4.626zM10.764 135.46v8.244c0 1.668-.414 2.898-1.242 3.69-.828.804-2.064 1.206-3.708 1.206-.9 0-1.758-.126-2.574-.378-.816-.24-1.476-.588-1.98-1.044l.828-1.332c.444.384.99.684 1.638.9.66.228 1.338.342 2.034.342 1.116 0 1.938-.264 2.466-.792.54-.528.81-1.332.81-2.412v-.756c-.408.492-.912.864-1.512 1.116-.588.24-1.23.36-1.926.36-.912 0-1.74-.192-2.484-.576-.732-.396-1.308-.942-1.728-1.638-.42-.708-.63-1.512-.63-2.412 0-.9.21-1.698.63-2.394.42-.708.996-1.254 1.728-1.638.744-.384 1.572-.576 2.484-.576.72 0 1.386.132 1.998.396.624.264 1.134.654 1.53 1.17v-1.476h1.638zm-4.968 7.632c.624 0 1.182-.132 1.674-.396.504-.264.894-.63 1.17-1.098.288-.48.432-1.02.432-1.62 0-.924-.306-1.668-.918-2.232-.612-.576-1.398-.864-2.358-.864-.972 0-1.764.288-2.376.864-.612.564-.918 1.308-.918 2.232 0 .6.138 1.14.414 1.62.288.468.678.834 1.17 1.098.504.264 1.074.396 1.71.396zm12.3557 2.016c-.948 0-1.8-.21-2.556-.63-.756-.42-1.35-.996-1.782-1.728-.42-.744-.63-1.584-.63-2.52 0-.936.21-1.77.63-2.502.432-.744 1.026-1.32 1.782-1.728.756-.42 1.608-.63 2.556-.63s1.794.21 2.538.63c.756.408 1.344.984 1.764 1.728.432.732.648 1.566.648 2.502 0 .936-.216 1.776-.648 2.52-.42.732-1.008 1.308-1.764 1.728-.744.42-1.59.63-2.538.63zm0-1.512c.612 0 1.158-.138 1.638-.414.492-.288.876-.684 1.152-1.188.276-.516.414-1.104.414-1.764 0-.66-.138-1.242-.414-1.746-.276-.516-.66-.912-1.152-1.188-.48-.276-1.026-.414-1.638-.414-.612 0-1.164.138-1.656.414-.48.276-.864.672-1.152 1.188-.276.504-.414 1.086-.414 1.746 0 .66.138 1.248.414 1.764.288.504.672.9 1.152 1.188.492.276 1.044.414 1.656.414zm10.7259-8.226c1.32 0 2.328.324 3.024.972.708.648 1.062 1.614 1.062 2.898V145h-1.638v-1.26c-.288.444-.702.786-1.242 1.026-.528.228-1.158.342-1.89.342-1.068 0-1.926-.258-2.574-.774-.636-.516-.954-1.194-.954-2.034 0-.84.306-1.512.918-2.016.612-.516 1.584-.774 2.916-.774h2.736v-.342c0-.744-.216-1.314-.648-1.71-.432-.396-1.068-.594-1.908-.594-.564 0-1.116.096-1.656.288-.54.18-.996.426-1.368.738l-.72-1.296c.492-.396 1.08-.696 1.764-.9.684-.216 1.41-.324 2.178-.324zm-.396 8.406c.66 0 1.23-.144 1.71-.432.48-.3.828-.72 1.044-1.26v-1.332h-2.664c-1.464 0-2.196.492-2.196 1.476 0 .48.186.858.558 1.134.372.276.888.414 1.548.414zm13.0438.666c-.252.216-.564.384-.936.504-.372.108-.756.162-1.152.162-.96 0-1.704-.258-2.232-.774-.528-.516-.792-1.254-.792-2.214v-5.238h-1.62v-1.422h1.62v-2.088h1.728v2.088h2.736v1.422h-2.736v5.166c0 .516.126.912.378 1.188.264.276.636.414 1.116.414.528 0 .978-.15 1.35-.45l.54 1.242zm8.8961-6.048c.72.276 1.272.672 1.656 1.188.384.516.576 1.134.576 1.854 0 .756-.204 1.416-.612 1.98-.408.552-.99.978-1.746 1.278-.756.3-1.644.45-2.664.45-1.008 0-1.89-.15-2.646-.45-.744-.3-1.32-.726-1.728-1.278-.408-.564-.612-1.224-.612-1.98 0-.72.186-1.338.558-1.854.384-.516.936-.912 1.656-1.188-.576-.276-1.014-.642-1.314-1.098-.3-.456-.45-.996-.45-1.62 0-.696.186-1.302.558-1.818.384-.516.918-.912 1.602-1.188.684-.276 1.476-.414 2.376-.414.912 0 1.71.138 2.394.414.696.276 1.23.672 1.602 1.188.384.516.576 1.122.576 1.818 0 .612-.156 1.152-.468 1.62-.3.456-.738.822-1.314 1.098zm-2.79-4.68c-.852 0-1.524.186-2.016.558-.492.36-.738.852-.738 1.476s.24 1.116.72 1.476c.492.36 1.17.54 2.034.54.876 0 1.56-.18 2.052-.54.504-.36.756-.852.756-1.476s-.258-1.116-.774-1.476c-.504-.372-1.182-.558-2.034-.558zm0 9.972c.996 0 1.782-.204 2.358-.612.576-.42.864-.984.864-1.692 0-.696-.288-1.242-.864-1.638-.576-.408-1.362-.612-2.358-.612s-1.776.204-2.34.612c-.564.396-.846.942-.846 1.638 0 .708.282 1.272.846 1.692.564.408 1.344.612 2.34.612zm14.374-5.292c.72.276 1.272.672 1.656 1.188.384.516.576 1.134.576 1.854 0 .756-.204 1.416-.612 1.98-.408.552-.99.978-1.746 1.278-.756.3-1.644.45-2.664.45-1.008 0-1.89-.15-2.646-.45-.744-.3-1.32-.726-1.728-1.278-.408-.564-.612-1.224-.612-1.98 0-.72.186-1.338.558-1.854.384-.516.936-.912 1.656-1.188-.576-.276-1.014-.642-1.314-1.098-.3-.456-.45-.996-.45-1.62 0-.696.186-1.302.558-1.818.384-.516.918-.912 1.602-1.188.684-.276 1.476-.414 2.376-.414.912 0 1.71.138 2.394.414.696.276 1.23.672 1.602 1.188.384.516.576 1.122.576 1.818 0 .612-.156 1.152-.468 1.62-.3.456-.738.822-1.314 1.098zm-2.79-4.68c-.852 0-1.524.186-2.016.558-.492.36-.738.852-.738 1.476s.24 1.116.72 1.476c.492.36 1.17.54 2.034.54.876 0 1.56-.18 2.052-.54.504-.36.756-.852.756-1.476s-.258-1.116-.774-1.476c-.504-.372-1.182-.558-2.034-.558zm0 9.972c.996 0 1.782-.204 2.358-.612.576-.42.864-.984.864-1.692 0-.696-.288-1.242-.864-1.638-.576-.408-1.362-.612-2.358-.612s-1.776.204-2.34.612c-.564.396-.846.942-.846 1.638 0 .708.282 1.272.846 1.692.564.408 1.344.612 2.34.612zm14.374-5.292c.72.276 1.272.672 1.656 1.188.384.516.576 1.134.576 1.854 0 .756-.204 1.416-.612 1.98-.408.552-.99.978-1.746 1.278-.756.3-1.644.45-2.664.45-1.008 0-1.89-.15-2.646-.45-.744-.3-1.32-.726-1.728-1.278-.408-.564-.612-1.224-.612-1.98 0-.72.186-1.338.558-1.854.384-.516.936-.912 1.656-1.188-.576-.276-1.014-.642-1.314-1.098-.3-.456-.45-.996-.45-1.62 0-.696.186-1.302.558-1.818.384-.516.918-.912 1.602-1.188.684-.276 1.476-.414 2.376-.414.912 0 1.71.138 2.394.414.696.276 1.23.672 1.602 1.188.384.516.576 1.122.576 1.818 0 .612-.156 1.152-.468 1.62-.3.456-.738.822-1.314 1.098zm-2.79-4.68c-.852 0-1.524.186-2.016.558-.492.36-.738.852-.738 1.476s.24 1.116.72 1.476c.492.36 1.17.54 2.034.54.876 0 1.56-.18 2.052-.54.504-.36.756-.852.756-1.476s-.258-1.116-.774-1.476c-.504-.372-1.182-.558-2.034-.558zm0 9.972c.996 0 1.782-.204 2.358-.612.576-.42.864-.984.864-1.692 0-.696-.288-1.242-.864-1.638-.576-.408-1.362-.612-2.358-.612s-1.776.204-2.34.612c-.564.396-.846.942-.846 1.638 0 .708.282 1.272.846 1.692.564.408 1.344.612 2.34.612z" fill="#000"/></svg>