<svg width="147" height="72" viewBox="0 0 147 72" fill="none" xmlns="http://www.w3.org/2000/svg"><rect y="9.84058" width="147" height="49" rx="24.5" fill="#000" fill-opacity=".3"/><rect x=".5" y="7.5" width="146" height="48" rx="24" fill="#00CC6D" stroke="#00CC6D"/><path d="M62.36 24.0173v15.4h-2.926l-7.678-9.35v9.35h-3.52v-15.4h2.948l7.656 9.35v-9.35h3.52zm14.6656 9.526c0 .044-.022.352-.066.924h-8.954c.1614.7333.5427 1.3127 1.144 1.738.6014.4253 1.3494.638 2.244.638.616 0 1.1587-.088 1.628-.264.484-.1907.9314-.484 1.342-.88l1.826 1.98c-1.1146 1.276-2.7426 1.914-4.884 1.914-1.3346 0-2.5153-.2567-3.542-.77-1.0266-.528-1.8186-1.254-2.376-2.178-.5573-.924-.836-1.9727-.836-3.146 0-1.1587.2714-2.2.814-3.124.5574-.9387 1.3127-1.6647 2.266-2.178.968-.528 2.046-.792 3.234-.792 1.1587 0 2.2074.2493 3.146.748.9387.4987 1.672 1.2173 2.2 2.156.5427.924.814 2.002.814 3.234zm-6.138-3.542c-.7773 0-1.43.22-1.958.66-.528.44-.8506 1.0413-.968 1.804h5.83c-.1173-.748-.44-1.342-.968-1.782-.528-.4547-1.1733-.682-1.936-.682zm15.2947 9.416l-2.596-3.63-2.684 3.63h-3.74l4.554-5.962-4.4-5.874h3.85l2.508 3.454 2.574-3.454h3.652l-4.4 5.786 4.576 6.05h-3.894zm12.8639-.572c-.3373.2493-.7553.44-1.254.572-.484.1173-.9973.176-1.54.176-1.408 0-2.5006-.3593-3.278-1.078-.7626-.7187-1.144-1.7747-1.144-3.168v-4.862h-1.826v-2.64h1.826v-2.882h3.432v2.882h2.948v2.64h-2.948v4.818c0 .4987.1247.8873.374 1.166.264.264.6307.396 1.1.396.5427 0 1.0047-.1467 1.386-.44l.924 2.42z" fill="#F2F2F2"/></svg>