<svg width="136" height="37" viewBox="0 0 136 37" fill="none" xmlns="http://www.w3.org/2000/svg"><path d="M11.46 8c1.82 0 3.4.3 4.74.9 1.36.6 2.4 1.46 3.12 2.58.72 1.12 1.08 2.45 1.08 3.99 0 1.52-.36 2.85-1.08 3.99-.72 1.12-1.76 1.98-3.12 2.58-1.34.6-2.92.9-4.74.9H6.72V29h-3.9V8h8.64zm-.18 11.64c1.7 0 2.99-.36 3.87-1.08.88-.72 1.32-1.75 1.32-3.09 0-1.34-.44-2.37-1.32-3.09-.88-.72-2.17-1.08-3.87-1.08H6.72v8.34h4.56zm16.0781-4.32c1.08-1.68 2.98-2.52 5.7-2.52v3.57c-.32-.06-.61-.09-.87-.09-1.46 0-2.6.43-3.42 1.29-.82.84-1.23 2.06-1.23 3.66V29h-3.75V12.98h3.57v2.34zm15.9347 13.89c-1.62 0-3.08-.35-4.38-1.05-1.3-.7-2.32-1.67-3.06-2.91-.72-1.26-1.08-2.68-1.08-4.26 0-1.58.36-2.99 1.08-4.23.74-1.24 1.76-2.21 3.06-2.91 1.3-.7 2.76-1.05 4.38-1.05 1.64 0 3.11.35 4.41 1.05 1.3.7 2.31 1.67 3.03 2.91.74 1.24 1.11 2.65 1.11 4.23 0 1.58-.37 3-1.11 4.26-.72 1.24-1.73 2.21-3.03 2.91-1.3.7-2.77 1.05-4.41 1.05zm0-3.21c1.38 0 2.52-.46 3.42-1.38.9-.92 1.35-2.13 1.35-3.63s-.45-2.71-1.35-3.63c-.9-.92-2.04-1.38-3.42-1.38s-2.52.46-3.42 1.38c-.88.92-1.32 2.13-1.32 3.63s.44 2.71 1.32 3.63c.9.92 2.04 1.38 3.42 1.38zm28.036-13.02v13.59c0 5.64-2.88 8.46-8.64 8.46-1.54 0-3-.2-4.38-.6-1.38-.38-2.52-.94-3.42-1.68l1.68-2.82c.7.58 1.58 1.04 2.64 1.38 1.08.36 2.17.54 3.27.54 1.76 0 3.05-.4 3.87-1.2.82-.8 1.23-2.02 1.23-3.66v-.84c-.64.7-1.42 1.23-2.34 1.59-.92.36-1.93.54-3.03.54-1.52 0-2.9-.32-4.14-.96-1.22-.66-2.19-1.58-2.91-2.76-.7-1.18-1.05-2.53-1.05-4.05s.35-2.86 1.05-4.02c.72-1.18 1.69-2.09 2.91-2.73 1.24-.64 2.62-.96 4.14-.96 1.16 0 2.21.19 3.15.57.96.38 1.76.96 2.4 1.74v-2.13h3.57zm-8.55 12.12c1.42 0 2.58-.42 3.48-1.26.92-.86 1.38-1.97 1.38-3.33 0-1.34-.46-2.43-1.38-3.27-.9-.84-2.06-1.26-3.48-1.26-1.44 0-2.62.42-3.54 1.26-.9.84-1.35 1.93-1.35 3.27 0 1.36.45 2.47 1.35 3.33.92.84 2.1 1.26 3.54 1.26zm17.05-9.78c1.08-1.68 2.98-2.52 5.7-2.52v3.57c-.32-.06-.61-.09-.87-.09-1.46 0-2.6.43-3.42 1.29-.82.84-1.23 2.06-1.23 3.66V29h-3.75V12.98h3.57v2.34zm23.7952 5.76c0 .26-.02.63-.06 1.11H90.9935c.22 1.18.79 2.12 1.71 2.82.94.68 2.1 1.02 3.48 1.02 1.76 0 3.21-.58 4.3505-1.74l2.01 2.31c-.72.86-1.63 1.51-2.7305 1.95-1.1.44-2.34.66-3.72.66-1.76 0-3.31-.35-4.65-1.05-1.34-.7-2.38-1.67-3.12-2.91-.72-1.26-1.08-2.68-1.08-4.26 0-1.56.35-2.96 1.05-4.2.72-1.26 1.71-2.24 2.97-2.94 1.26-.7 2.68-1.05 4.26-1.05 1.56 0 2.95.35 4.17 1.05 1.2405.68 2.2005 1.65 2.8805 2.91.7 1.24 1.05 2.68 1.05 4.32zm-8.1005-5.28c-1.2 0-2.22.36-3.06 1.08-.82.7-1.32 1.64-1.5 2.82h9.0905c-.1605-1.16-.6505-2.1-1.4705-2.82-.82-.72-1.84-1.08-3.06-1.08zm16.6525 13.41c-1.3 0-2.57-.17-3.81-.51-1.24-.34-2.23-.77-2.97-1.29l1.44-2.85c.72.48 1.58.87 2.58 1.17 1.02.28 2.02.42 3 .42 2.24 0 3.36-.59 3.36-1.77 0-.56-.29-.95-.87-1.17-.56-.22-1.47-.43-2.73-.63-1.32-.2-2.4-.43-3.24-.69-.82-.26-1.54-.71-2.16-1.35-.6-.66-.9-1.57-.9-2.73 0-1.52.63-2.73 1.89-3.63 1.28-.92 3-1.38 5.16-1.38 1.1 0 2.2.13 3.3.39 1.1.24 2 .57 2.7.99l-1.44 2.85c-1.36-.8-2.89-1.2-4.59-1.2-1.1 0-1.94.17-2.52.51-.56.32-.84.75-.84 1.29 0 .6.3 1.03.9 1.29.62.24 1.57.47 2.85.69 1.28.2 2.33.43 3.15.69.82.26 1.52.7 2.1 1.32.6.62.9 1.5.9 2.64 0 1.5-.65 2.7-1.95 3.6-1.3.9-3.07 1.35-5.31 1.35zm15.439 0c-1.3 0-2.57-.17-3.81-.51-1.24-.34-2.23-.77-2.97-1.29l1.44-2.85c.72.48 1.58.87 2.58 1.17 1.02.28 2.02.42 3 .42 2.24 0 3.36-.59 3.36-1.77 0-.56-.29-.95-.87-1.17-.56-.22-1.47-.43-2.73-.63-1.32-.2-2.4-.43-3.24-.69-.82-.26-1.54-.71-2.16-1.35-.6-.66-.9-1.57-.9-2.73 0-1.52.63-2.73 1.89-3.63 1.28-.92 3-1.38 5.16-1.38 1.1 0 2.2.13 3.3.39 1.1.24 2 .57 2.7.99l-1.44 2.85c-1.36-.8-2.89-1.2-4.59-1.2-1.1 0-1.94.17-2.52.51-.56.32-.84.75-.84 1.29 0 .6.3 1.03.9 1.29.62.24 1.57.47 2.85.69 1.28.2 2.33.43 3.15.69.82.26 1.52.7 2.1 1.32.6.62.9 1.5.9 2.64 0 1.5-.65 2.7-1.95 3.6-1.3.9-3.07 1.35-5.31 1.35z" fill="#fff"/></svg>