<svg width="646" height="43" viewBox="0 0 646 43" fill="none" xmlns="http://www.w3.org/2000/svg"><path d="M39.095 9.5L30.975 34h-4.83L20.09 15.87 13.93 34H9.065L.945 9.5H5.67l6.09 18.62L18.095 9.5h4.2l6.195 18.725L34.755 9.5h4.34zm14.4044 5.6c2.3567 0 4.2467.6883 5.67 2.065 1.4233 1.3767 2.135 3.4183 2.135 6.125V34h-4.375V23.85c0-1.6333-.385-2.8583-1.155-3.675-.77-.84-1.8667-1.26-3.29-1.26-1.61 0-2.8817.49-3.815 1.47-.9333.9567-1.4 2.345-1.4 4.165V34h-4.375V8.03h4.375v9.45c.7233-.77 1.61-1.3533 2.66-1.75 1.0733-.42 2.2633-.63 3.57-.63zm13.355.21h4.375V34h-4.375V15.31zm2.205-3.08c-.7934 0-1.4584-.245-1.995-.735-.5367-.5133-.805-1.1433-.805-1.89 0-.74667.2683-1.365.805-1.855.5366-.51333 1.2016-.77 1.995-.77.7933 0 1.4583.245 1.995.735.5366.46667.805 1.06167.805 1.785 0 .77-.2684 1.4233-.805 1.96-.5134.5133-1.1784.77-1.995.77zm16.4872 22.015c-1.9367 0-3.675-.4083-5.215-1.225-1.54-.8167-2.7417-1.9483-3.605-3.395-.8634-1.47-1.295-3.1267-1.295-4.97 0-1.8433.4316-3.4883 1.295-4.935.8633-1.4467 2.0533-2.5783 3.57-3.395 1.54-.8167 3.29-1.225 5.25-1.225 1.8433 0 3.4533.3733 4.83 1.12 1.4.7467 2.45 1.82 3.15 3.22l-3.36 1.96c-.5367-.8633-1.2134-1.505-2.03-1.925-.7934-.4433-1.6684-.665-2.625-.665-1.6334 0-2.9867.5367-4.06 1.61-1.0734 1.05-1.61 2.4617-1.61 4.235 0 1.7733.525 3.1967 1.575 4.27 1.0733 1.05 2.4383 1.575 4.095 1.575.9566 0 1.8316-.21 2.625-.63.8166-.4433 1.4933-1.0967 2.03-1.96l3.36 1.96c-.7234 1.4-1.785 2.485-3.185 3.255-1.3767.7467-2.975 1.12-4.795 1.12zM107.743 15.1c2.356 0 4.246.6883 5.67 2.065 1.423 1.3767 2.135 3.4183 2.135 6.125V34h-4.375V23.85c0-1.6333-.385-2.8583-1.155-3.675-.77-.84-1.867-1.26-3.29-1.26-1.61 0-2.882.49-3.815 1.47-.934.9567-1.4 2.345-1.4 4.165V34h-4.3754V8.03h4.3754v9.45c.723-.77 1.61-1.3533 2.66-1.75 1.073-.42 2.263-.63 3.57-.63zm30.622-3.78c-1.843 0-2.765 1.0033-2.765 3.01v1.12h5.145v3.5h-5.005V34h-4.375V18.95h-3.08v-3.5h3.08v-1.19c0-2.0067.584-3.5817 1.75-4.725 1.167-1.16667 2.812-1.75 4.935-1.75 1.68 0 2.999.33833 3.955 1.015l-1.225 3.29c-.746-.5133-1.551-.77-2.415-.77zm13.452 22.925c-1.89 0-3.593-.4083-5.11-1.225-1.517-.8167-2.707-1.9483-3.57-3.395-.84-1.47-1.26-3.1267-1.26-4.97 0-1.8433.42-3.4883 1.26-4.935.863-1.4467 2.053-2.5783 3.57-3.395s3.22-1.225 5.11-1.225c1.913 0 3.628.4083 5.145 1.225 1.517.8167 2.695 1.9483 3.535 3.395.863 1.4467 1.295 3.0917 1.295 4.935 0 1.8433-.432 3.5-1.295 4.97-.84 1.4467-2.018 2.5783-3.535 3.395-1.517.8167-3.232 1.225-5.145 1.225zm0-3.745c1.61 0 2.94-.5367 3.99-1.61 1.05-1.0733 1.575-2.485 1.575-4.235 0-1.75-.525-3.1617-1.575-4.235-1.05-1.0733-2.38-1.61-3.99-1.61-1.61 0-2.94.5367-3.99 1.61-1.027 1.0733-1.54 2.485-1.54 4.235 0 1.75.513 3.1617 1.54 4.235 1.05 1.0733 2.38 1.61 3.99 1.61zm22.558 3.745c-1.89 0-3.593-.4083-5.11-1.225-1.516-.8167-2.706-1.9483-3.57-3.395-.84-1.47-1.26-3.1267-1.26-4.97 0-1.8433.42-3.4883 1.26-4.935.864-1.4467 2.054-2.5783 3.57-3.395 1.517-.8167 3.22-1.225 5.11-1.225 1.914 0 3.629.4083 5.145 1.225 1.517.8167 2.695 1.9483 3.535 3.395.864 1.4467 1.295 3.0917 1.295 4.935 0 1.8433-.431 3.5-1.295 4.97-.84 1.4467-2.018 2.5783-3.535 3.395-1.516.8167-3.231 1.225-5.145 1.225zm0-3.745c1.61 0 2.94-.5367 3.99-1.61 1.05-1.0733 1.575-2.485 1.575-4.235 0-1.75-.525-3.1617-1.575-4.235-1.05-1.0733-2.38-1.61-3.99-1.61-1.61 0-2.94.5367-3.99 1.61-1.026 1.0733-1.54 2.485-1.54 4.235 0 1.75.514 3.1617 1.54 4.235 1.05 1.0733 2.38 1.61 3.99 1.61zm32.464-22.47V34h-4.2v-2.415c-.723.8867-1.622 1.5517-2.695 1.995-1.05.4433-2.217.665-3.5.665-1.797 0-3.418-.3967-4.865-1.19-1.423-.7933-2.543-1.9133-3.36-3.36-.817-1.47-1.225-3.15-1.225-5.04 0-1.89.408-3.5583 1.225-5.005.817-1.4467 1.937-2.5667 3.36-3.36 1.447-.7933 3.068-1.19 4.865-1.19 1.237 0 2.368.21 3.395.63 1.027.42 1.902 1.05 2.625 1.89V8.03h4.375zm-9.87 22.47c1.05 0 1.995-.2333 2.835-.7.84-.49 1.505-1.1783 1.995-2.065.49-.8867.735-1.9133.735-3.08s-.245-2.1933-.735-3.08c-.49-.8867-1.155-1.5633-1.995-2.03-.84-.49-1.785-.735-2.835-.735s-1.995.245-2.835.735c-.84.4667-1.505 1.1433-1.995 2.03-.49.8867-.735 1.9133-.735 3.08s.245 2.1933.735 3.08c.49.8867 1.155 1.575 1.995 2.065.84.4667 1.785.7 2.835.7zm25.266-15.19h4.375V34h-4.375V15.31zm2.205-3.08c-.793 0-1.458-.245-1.995-.735-.536-.5133-.805-1.1433-.805-1.89 0-.74667.269-1.365.805-1.855.537-.51333 1.202-.77 1.995-.77.794 0 1.459.245 1.995.735.537.46667.805 1.06167.805 1.785 0 .77-.268 1.4233-.805 1.96-.513.5133-1.178.77-1.995.77zm13.687 22.015c-1.516 0-2.998-.1983-4.445-.595-1.446-.3967-2.601-.8983-3.465-1.505l1.68-3.325c.84.56 1.844 1.015 3.01 1.365 1.19.3267 2.357.49 3.5.49 2.614 0 3.92-.6883 3.92-2.065 0-.6533-.338-1.1083-1.015-1.365-.653-.2567-1.715-.5017-3.185-.735-1.54-.2333-2.8-.5017-3.78-.805-.956-.3033-1.796-.8283-2.52-1.575-.7-.77-1.05-1.8317-1.05-3.185 0-1.7733.735-3.185 2.205-4.235 1.494-1.0733 3.5-1.61 6.02-1.61 1.284 0 2.567.1517 3.85.455 1.284.28 2.334.665 3.15 1.155l-1.68 3.325c-1.586-.9333-3.371-1.4-5.355-1.4-1.283 0-2.263.1983-2.94.595-.653.3733-.98.875-.98 1.505 0 .7.35 1.2017 1.05 1.505.724.28 1.832.5483 3.325.805 1.494.2333 2.719.5017 3.675.805.957.3033 1.774.8167 2.45 1.54.7.7233 1.05 1.75 1.05 3.08 0 1.75-.758 3.15-2.275 4.2-1.516 1.05-3.581 1.575-6.195 1.575zM270.643 15.1c2.357 0 4.247.6883 5.67 2.065s2.135 3.4183 2.135 6.125V34h-4.375V23.85c0-1.6333-.385-2.8583-1.155-3.675-.77-.84-1.867-1.26-3.29-1.26-1.61 0-2.882.49-3.815 1.47-.933.9567-1.4 2.345-1.4 4.165V34h-4.375V8.03h4.375v9.45c.723-.77 1.61-1.3533 2.66-1.75 1.073-.42 2.263-.63 3.57-.63zm13.355.21h4.375V34h-4.375V15.31zm2.205-3.08c-.793 0-1.458-.245-1.995-.735-.537-.5133-.805-1.1433-.805-1.89 0-.74667.268-1.365.805-1.855.537-.51333 1.202-.77 1.995-.77.793 0 1.458.245 1.995.735.537.46667.805 1.06167.805 1.785 0 .77-.268 1.4233-.805 1.96-.513.5133-1.178.77-1.995.77zm26.462 3.08v15.855c0 6.58-3.36 9.87-10.08 9.87-1.797 0-3.5-.2333-5.11-.7-1.61-.4433-2.94-1.0967-3.99-1.96l1.96-3.29c.817.6767 1.843 1.2133 3.08 1.61 1.26.42 2.532.63 3.815.63 2.053 0 3.558-.4667 4.515-1.4.957-.9333 1.435-2.3567 1.435-4.27v-.98c-.747.8167-1.657 1.435-2.73 1.855-1.073.42-2.252.63-3.535.63-1.773 0-3.383-.3733-4.83-1.12-1.423-.77-2.555-1.8433-3.395-3.22-.817-1.3767-1.225-2.9517-1.225-4.725 0-1.7733.408-3.3367 1.225-4.69.84-1.3767 1.972-2.4383 3.395-3.185 1.447-.7467 3.057-1.12 4.83-1.12 1.353 0 2.578.2217 3.675.665 1.12.4433 2.053 1.12 2.8 2.03V15.31h4.165zm-9.975 14.14c1.657 0 3.01-.49 4.06-1.47 1.073-1.0033 1.61-2.2983 1.61-3.885 0-1.5633-.537-2.835-1.61-3.815-1.05-.98-2.403-1.47-4.06-1.47-1.68 0-3.057.49-4.13 1.47-1.05.98-1.575 2.2517-1.575 3.815 0 1.5867.525 2.8817 1.575 3.885 1.073.98 2.45 1.47 4.13 1.47zm26.332-14.35c2.357 0 4.247.6883 5.67 2.065s2.135 3.4183 2.135 6.125V34h-4.375V23.85c0-1.6333-.385-2.8583-1.155-3.675-.77-.84-1.867-1.26-3.29-1.26-1.61 0-2.882.49-3.815 1.47-.933.9567-1.4 2.345-1.4 4.165V34h-4.375V8.03h4.375v9.45c.723-.77 1.61-1.3533 2.66-1.75 1.073-.42 2.263-.63 3.57-.63zm31.096 9.66c0 .3033-.024.735-.07 1.295h-14.665c.256 1.3767.921 2.4733 1.995 3.29 1.096.7933 2.45 1.19 4.06 1.19 2.053 0 3.745-.6767 5.075-2.03l2.345 2.695c-.84 1.0033-1.902 1.7617-3.185 2.275-1.284.5133-2.73.77-4.34.77-2.054 0-3.862-.4083-5.425-1.225-1.564-.8167-2.777-1.9483-3.64-3.395-.84-1.47-1.26-3.1267-1.26-4.97 0-1.82.408-3.4533 1.225-4.9.84-1.47 1.995-2.6133 3.465-3.43 1.47-.8167 3.126-1.225 4.97-1.225 1.82 0 3.441.4083 4.865 1.225 1.446.7933 2.566 1.925 3.36 3.395.816 1.4467 1.225 3.1267 1.225 5.04zm-9.45-6.16c-1.4 0-2.59.42-3.57 1.26-.957.8167-1.54 1.9133-1.75 3.29h10.605c-.187-1.3533-.759-2.45-1.715-3.29-.957-.84-2.147-1.26-3.57-1.26zm19.427 15.645c-1.516 0-2.998-.1983-4.445-.595-1.446-.3967-2.601-.8983-3.465-1.505l1.68-3.325c.84.56 1.844 1.015 3.01 1.365 1.19.3267 2.357.49 3.5.49 2.614 0 3.92-.6883 3.92-2.065 0-.6533-.338-1.1083-1.015-1.365-.653-.2567-1.715-.5017-3.185-.735-1.54-.2333-2.8-.5017-3.78-.805-.956-.3033-1.796-.8283-2.52-1.575-.7-.77-1.05-1.8317-1.05-3.185 0-1.7733.735-3.185 2.205-4.235 1.494-1.0733 3.5-1.61 6.02-1.61 1.284 0 2.567.1517 3.85.455 1.284.28 2.334.665 3.15 1.155l-1.68 3.325c-1.586-.9333-3.371-1.4-5.355-1.4-1.283 0-2.263.1983-2.94.595-.653.3733-.98.875-.98 1.505 0 .7.35 1.2017 1.05 1.505.724.28 1.832.5483 3.325.805 1.494.2333 2.719.5017 3.675.805.957.3033 1.774.8167 2.45 1.54.7.7233 1.05 1.75 1.05 3.08 0 1.75-.758 3.15-2.275 4.2-1.516 1.05-3.581 1.575-6.195 1.575zm23.473-1.26c-.513.42-1.143.735-1.89.945-.723.21-1.493.315-2.31.315-2.053 0-3.64-.5367-4.76-1.61-1.12-1.0733-1.68-2.6367-1.68-4.69V18.95h-3.08v-3.5h3.08v-4.27h4.375v4.27h5.005v3.5h-5.005v8.89c0 .91.222 1.61.665 2.1.443.4667 1.085.7 1.925.7.98 0 1.797-.2567 2.45-.77l1.225 3.115zM406.84 15.31h4.375V34h-4.375V15.31zm2.205-3.08c-.794 0-1.459-.245-1.995-.735-.537-.5133-.805-1.1433-.805-1.89 0-.74667.268-1.365.805-1.855.536-.51333 1.201-.77 1.995-.77.793 0 1.458.245 1.995.735.536.46667.805 1.06167.805 1.785 0 .77-.269 1.4233-.805 1.96-.514.5133-1.179.77-1.995.77zm18.517 2.87c2.357 0 4.247.6883 5.67 2.065s2.135 3.4183 2.135 6.125V34h-4.375V23.85c0-1.6333-.385-2.8583-1.155-3.675-.77-.84-1.867-1.26-3.29-1.26-1.61 0-2.882.49-3.815 1.47-.933.9567-1.4 2.345-1.4 4.165V34h-4.375V15.31h4.165v2.415c.723-.8633 1.633-1.5167 2.73-1.96s2.333-.665 3.71-.665zm45.848-5.6L462.735 34h-4.48l-10.71-24.5h4.935l8.155 18.9 8.225-18.9h4.55zm2.336 5.81h4.375V34h-4.375V15.31zm2.205-3.08c-.793 0-1.458-.245-1.995-.735-.537-.5133-.805-1.1433-.805-1.89 0-.74667.268-1.365.805-1.855.537-.51333 1.202-.77 1.995-.77.793 0 1.458.245 1.995.735.537.46667.805 1.06167.805 1.785 0 .77-.268 1.4233-.805 1.96-.513.5133-1.178.77-1.995.77zm19.147 20.755c-.513.42-1.143.735-1.89.945-.723.21-1.493.315-2.31.315-2.053 0-3.64-.5367-4.76-1.61-1.12-1.0733-1.68-2.6367-1.68-4.69V18.95h-3.08v-3.5h3.08v-4.27h4.375v4.27h5.005v3.5h-5.005v8.89c0 .91.222 1.61.665 2.1.443.4667 1.085.7 1.925.7.98 0 1.797-.2567 2.45-.77l1.225 3.115zM507.837 15.1c2.753 0 4.853.665 6.3 1.995 1.47 1.3067 2.205 3.29 2.205 5.95V34h-4.13v-2.275c-.537.8167-1.307 1.4467-2.31 1.89-.98.42-2.17.63-3.57.63s-2.625-.2333-3.675-.7c-1.05-.49-1.867-1.155-2.45-1.995-.56-.8633-.84-1.8317-.84-2.905 0-1.68.618-3.0217 1.855-4.025 1.26-1.0267 3.232-1.54 5.915-1.54h4.83v-.28c0-1.3067-.397-2.31-1.19-3.01-.77-.7-1.925-1.05-3.465-1.05-1.05 0-2.088.1633-3.115.49-1.003.3267-1.855.7817-2.555 1.365l-1.715-3.185c.98-.7467 2.158-1.3183 3.535-1.715 1.377-.3967 2.835-.595 4.375-.595zm-.595 15.96c1.097 0 2.065-.245 2.905-.735.863-.5133 1.47-1.2367 1.82-2.17v-2.17h-4.515c-2.52 0-3.78.8283-3.78 2.485 0 .7933.315 1.4233.945 1.89.63.4667 1.505.7 2.625.7zm38.305-15.96c2.357 0 4.223.6883 5.6 2.065 1.377 1.3533 2.065 3.395 2.065 6.125V34h-4.375V23.85c0-1.6333-.362-2.8583-1.085-3.675-.723-.84-1.762-1.26-3.115-1.26-1.47 0-2.648.49-3.535 1.47-.887.9567-1.33 2.3333-1.33 4.13V34h-4.375V23.85c0-1.6333-.362-2.8583-1.085-3.675-.723-.84-1.762-1.26-3.115-1.26-1.493 0-2.683.4783-3.57 1.435-.863.9567-1.295 2.345-1.295 4.165V34h-4.375V15.31h4.165v2.38c.7-.84 1.575-1.4817 2.625-1.925s2.217-.665 3.5-.665c1.4 0 2.637.2683 3.71.805 1.097.5133 1.96 1.2833 2.59 2.31.77-.98 1.762-1.7383 2.975-2.275 1.213-.56 2.555-.84 4.025-.84zm13.256.21h4.375V34h-4.375V15.31zm2.205-3.08c-.794 0-1.459-.245-1.995-.735-.537-.5133-.805-1.1433-.805-1.89 0-.74667.268-1.365.805-1.855.536-.51333 1.201-.77 1.995-.77.793 0 1.458.245 1.995.735.536.46667.805 1.06167.805 1.785 0 .77-.269 1.4233-.805 1.96-.514.5133-1.179.77-1.995.77zm18.517 2.87c2.356 0 4.246.6883 5.67 2.065 1.423 1.3767 2.135 3.4183 2.135 6.125V34h-4.375V23.85c0-1.6333-.385-2.8583-1.155-3.675-.77-.84-1.867-1.26-3.29-1.26-1.61 0-2.882.49-3.815 1.47-.934.9567-1.4 2.345-1.4 4.165V34h-4.375V15.31h4.165v2.415c.723-.8633 1.633-1.5167 2.73-1.96 1.096-.4433 2.333-.665 3.71-.665zm34.788 19.25c-2.474 0-4.714-.5367-6.72-1.61-1.984-1.0967-3.547-2.6017-4.69-4.515-1.12-1.9133-1.68-4.0717-1.68-6.475 0-2.4033.571-4.5617 1.715-6.475 1.143-1.9133 2.706-3.4067 4.69-4.48 2.006-1.09667 4.246-1.645 6.72-1.645 2.006 0 3.838.35 5.495 1.05 1.656.7 3.056 1.715 4.2 3.045l-2.94 2.765c-1.774-1.9133-3.955-2.87-6.545-2.87-1.68 0-3.185.3733-4.515 1.12-1.33.7233-2.369 1.7383-3.115 3.045-.747 1.3067-1.12 2.7883-1.12 4.445 0 1.6567.373 3.1383 1.12 4.445.746 1.3067 1.785 2.3333 3.115 3.08 1.33.7233 2.835 1.085 4.515 1.085 2.59 0 4.771-.9683 6.545-2.905l2.94 2.8c-1.144 1.33-2.555 2.345-4.235 3.045-1.657.7-3.489 1.05-5.495 1.05zm18.569-8.47c0-1.26.28-2.2983.84-3.115.584-.84 1.424-1.75 2.52-2.73.84-.7467 1.459-1.3883 1.855-1.925.42-.56.63-1.19.63-1.89 0-.98-.396-1.7733-1.19-2.38-.793-.6067-1.855-.91-3.185-.91-2.52 0-4.421.8983-5.705 2.695l-3.395-2.205c1.004-1.3767 2.299-2.4267 3.885-3.15 1.587-.74667 3.454-1.12 5.6-1.12 2.614 0 4.69.57167 6.23 1.715 1.564 1.12 2.345 2.6717 2.345 4.655 0 .9567-.163 1.7967-.49 2.52-.303.7233-.676 1.3417-1.12 1.855-.443.49-1.026 1.0617-1.75 1.715-.886.7933-1.551 1.4933-1.995 2.1-.42.6067-.63 1.33-.63 2.17h-4.445zm2.24 8.365c-.816 0-1.493-.2567-2.03-.77-.513-.5367-.77-1.19-.77-1.96s.257-1.4117.77-1.925c.537-.5133 1.214-.77 2.03-.77.794 0 1.447.2567 1.96.77.537.5133.805 1.155.805 1.925s-.268 1.4233-.805 1.96c-.513.5133-1.166.77-1.96.77z" fill="#1D2557"/></svg>